<svg width="296" height="294" viewBox="0 0 296 294" fill="none" xmlns="http://www.w3.org/2000/svg">
<path d="M296 224.85H0V224.997H296V224.85Z" fill="#EBEBEB"/>
<path d="M266.341 234.314H246.732V234.461H266.341V234.314Z" fill="#EBEBEB"/>
<path d="M196.082 235.91H190.936V236.057H196.082V235.91Z" fill="#EBEBEB"/>
<path d="M246.141 228.854H234.779V229.001H246.141V228.854Z" fill="#EBEBEB"/>
<path d="M56.6269 229.842H31.0566V229.989H56.6269V229.842Z" fill="#EBEBEB"/>
<path d="M65.6476 229.842H61.8984V229.989H65.6476V229.842Z" fill="#EBEBEB"/>
<path d="M133.286 232.326H77.8301V232.473H133.286V232.326Z" fill="#EBEBEB"/>
<path d="M140.313 198.627H25.9983C24.1353 198.627 22.6191 197.121 22.6191 195.27V35.6683C22.6191 33.8179 24.1353 32.312 25.9983 32.312H140.313C142.175 32.312 143.691 33.8179 143.691 35.6683V195.27C143.691 197.121 142.175 198.627 140.313 198.627ZM25.9983 32.4596C24.2164 32.4596 22.7671 33.899 22.7671 35.6689V195.271C22.7671 197.041 24.2164 198.48 25.9983 198.48H140.313C142.094 198.48 143.543 197.041 143.543 195.271V35.6683C143.543 33.899 142.094 32.459 140.313 32.459L25.9983 32.4596Z" fill="#EBEBEB"/>
<path d="M268.361 198.627H154.047C152.183 198.627 150.668 197.121 150.668 195.27V35.6683C150.668 33.8179 152.184 32.312 154.047 32.312H268.361C270.224 32.312 271.74 33.8179 271.74 35.6683V195.27C271.74 197.121 270.224 198.627 268.361 198.627ZM154.047 32.4596C152.265 32.4596 150.816 33.899 150.816 35.6689V195.271C150.816 197.041 152.265 198.48 154.047 198.48H268.361C270.142 198.48 271.592 197.041 271.592 195.271V35.6683C271.592 33.899 270.142 32.459 268.361 32.459L154.047 32.4596Z" fill="#EBEBEB"/>
<path d="M171.498 102.347L253.064 102.347V49.2932L171.498 49.2932V102.347Z" fill="#E6E6E6"/>
<path d="M169.011 102.347L251.902 102.347V49.2932L169.011 49.2932V102.347Z" fill="#F0F0F0"/>
<path d="M171.498 112.758L253.064 112.758V102.346L171.498 102.346V112.758Z" fill="#E6E6E6"/>
<path d="M164.864 112.758L247.756 112.758V102.346L164.864 102.346V112.758Z" fill="#F0F0F0"/>
<path d="M248.418 98.886V52.7539L172.495 52.7539V98.886L248.418 98.886Z" fill="#FAFAFA"/>
<path d="M231.296 98.8865L221.599 52.7544H206.467L216.164 98.8865H231.296Z" fill="white"/>
<path d="M246.804 95.4413C246.941 95.4413 247.053 95.3308 247.053 95.1944V55.0057C247.053 54.8693 246.942 54.7588 246.804 54.7588C246.667 54.7588 246.555 54.8693 246.555 55.0057V95.1944C246.555 95.3308 246.667 95.4413 246.804 95.4413Z" fill="#F0F0F0"/>
<path d="M212.913 98.8865L203.216 52.7544H197.316L207.014 98.8865H212.913Z" fill="white"/>
<path d="M172.936 98.886V52.7539H172.493V98.886H172.936Z" fill="#E6E6E6"/>
<path opacity="0.6" d="M168.186 57.9717H249.752L250.072 54.0991H168.506L168.186 57.9717Z" fill="#EBEBEB"/>
<path opacity="0.6" d="M168.186 64.3233H249.752L250.072 60.4507H168.506L168.186 64.3233Z" fill="#EBEBEB"/>
<path opacity="0.6" d="M168.186 70.6748H249.752L250.072 66.8022H168.506L168.186 70.6748Z" fill="#EBEBEB"/>
<path opacity="0.6" d="M168.186 77.0264H249.752L250.072 73.1538H168.506L168.186 77.0264Z" fill="#EBEBEB"/>
<path opacity="0.6" d="M168.186 83.3779H249.752L250.072 79.5054H168.506L168.186 83.3779Z" fill="#EBEBEB"/>
<path opacity="0.6" d="M168.186 89.7295H249.752L250.072 85.8569H168.506L168.186 89.7295Z" fill="#EBEBEB"/>
<path d="M241.348 186.268H224.246V189.617H241.348V186.268Z" fill="#E6E6E6"/>
<path d="M191.989 224.852H195.146V147.785H191.989V224.852Z" fill="#E6E6E6"/>
<path d="M181.052 189.618H224.246V186.268H181.052V189.618Z" fill="#F5F5F5"/>
<path d="M241.348 204.594H224.246V207.943H241.348V204.594Z" fill="#E6E6E6"/>
<path d="M181.052 207.943H224.246V204.594H181.052V207.943Z" fill="#F5F5F5"/>
<path d="M241.348 149.616H224.246V152.965H241.348V149.616Z" fill="#E6E6E6"/>
<path d="M181.052 152.965H224.246V149.616H181.052V152.965Z" fill="#F5F5F5"/>
<path d="M241.348 167.942H224.246V171.292H241.348V167.942Z" fill="#E6E6E6"/>
<path d="M181.052 171.291H224.246V167.942H181.052V171.291Z" fill="#F5F5F5"/>
<path d="M235.185 224.851H238.342V147.785H235.185V224.851Z" fill="#E6E6E6"/>
<path d="M221.091 224.851H224.248V147.785H221.091V224.851Z" fill="#F5F5F5"/>
<path d="M181.054 224.851H184.211V147.785H181.054V224.851Z" fill="#F5F5F5"/>
<path d="M38.7015 224.851H71.0117L71.0117 162.587H38.7015L38.7015 224.851Z" fill="#E6E6E6"/>
<path d="M47.329 224.851H38.7012V216.255H56.3747L47.329 224.851Z" fill="#FAFAFA"/>
<path d="M126.795 224.851H159.105V162.587H126.795V224.851Z" fill="#E6E6E6"/>
<path d="M38.701 221.892H134.326V162.586H38.701L38.701 221.892Z" fill="#FAFAFA"/>
<path d="M125.699 224.851H134.326V216.255H116.652L125.699 224.851Z" fill="#FAFAFA"/>
<path d="M45.394 199.527H127.633V184.685H45.394V199.527Z" fill="#F0F0F0"/>
<path d="M45.394 217.541H127.633V202.699H45.394V217.541Z" fill="#F0F0F0"/>
<path d="M61.0254 186.273H112.001C113.497 186.273 114.71 185.068 114.71 183.582V183.4H58.3164V183.582C58.3164 185.068 59.5294 186.273 61.0254 186.273Z" fill="#FAFAFA"/>
<path d="M45.394 181.513H127.633V166.671H45.394V181.513Z" fill="#F0F0F0"/>
<path d="M61.0254 168.259H112.001C113.497 168.259 114.71 167.054 114.71 165.567V165.386H58.3164V165.567C58.3164 167.054 59.5294 168.259 61.0254 168.259Z" fill="#FAFAFA"/>
<path d="M61.0254 204.286H112.001C113.497 204.286 114.71 203.081 114.71 201.595V201.414H58.3164V201.595C58.3164 203.081 59.5294 204.286 61.0254 204.286Z" fill="#FAFAFA"/>
<path d="M43.8477 102.347L125.414 102.347V49.2932L43.8477 49.2932V102.347Z" fill="#E6E6E6"/>
<path d="M41.3601 102.347L124.252 102.347V49.2932L41.3601 49.2932V102.347Z" fill="#F0F0F0"/>
<path d="M43.8477 112.758L125.414 112.758V102.346L43.8477 102.346V112.758Z" fill="#E6E6E6"/>
<path d="M37.2136 112.758L120.105 112.758V102.346L37.2136 102.346V112.758Z" fill="#F0F0F0"/>
<path d="M120.768 98.8865L120.768 52.7544L44.8442 52.7544L44.8442 98.8865L120.768 98.8865Z" fill="#FAFAFA"/>
<path d="M103.646 98.8865L93.9485 52.7544H78.8164L88.514 98.8865H103.646Z" fill="white"/>
<path d="M119.154 95.4413C119.291 95.4413 119.402 95.3308 119.402 95.1944V55.0057C119.402 54.8693 119.291 54.7588 119.154 54.7588C119.016 54.7588 118.904 54.8693 118.904 55.0057V95.1944C118.905 95.3308 119.016 95.4413 119.154 95.4413Z" fill="#F0F0F0"/>
<path d="M85.2648 98.8865L75.5673 52.7544H69.668L79.3655 98.8865H85.2648Z" fill="white"/>
<path d="M45.2852 98.8865L45.2852 52.7544H44.8429L44.8429 98.8865H45.2852Z" fill="#E6E6E6"/>
<path opacity="0.6" d="M40.5352 57.9717H122.102L122.422 54.0991H40.856L40.5352 57.9717Z" fill="#EBEBEB"/>
<path opacity="0.6" d="M40.5352 60.1568H122.102L122.422 56.2837H40.856L40.5352 60.1568Z" fill="#EBEBEB"/>
<path opacity="0.6" d="M40.5352 62.3413H122.102L122.422 58.4688H40.856L40.5352 62.3413Z" fill="#EBEBEB"/>
<path opacity="0.6" d="M40.5352 64.526H122.102L122.422 60.6528H40.856L40.5352 64.526Z" fill="#EBEBEB"/>
<path opacity="0.6" d="M40.5352 66.7105H122.102L122.422 62.8379H40.856L40.5352 66.7105Z" fill="#EBEBEB"/>
<path opacity="0.6" d="M40.5352 68.895H122.102L122.422 65.0225H40.856L40.5352 68.895Z" fill="#EBEBEB"/>
<path d="M56.8405 160.684H59.6602L59.6602 129.465H56.8405L56.8405 160.684Z" fill="#F5F5F5"/>
<path d="M57.2018 160.662H57.998L57.998 129.444H57.2018L57.2018 160.662Z" fill="#FAFAFA"/>
<path d="M58.3325 160.662H58.6445L58.6445 129.444H58.3325L58.3325 160.662Z" fill="#FAFAFA"/>
<path d="M47.8105 162.586H68.6868C68.6868 161.143 67.5093 159.974 66.0566 159.974H50.4408C48.988 159.974 47.8105 161.143 47.8105 162.586Z" fill="#F0F0F0"/>
<path d="M53.1821 148.846C53.6285 148.846 53.9932 148.483 53.9932 148.04V127.572C53.9932 127.129 53.6279 126.766 53.1821 126.766C52.7358 126.766 52.3711 127.129 52.3711 127.572V148.04C52.3711 148.483 52.7358 148.846 53.1821 148.846Z" fill="#F0F0F0"/>
<path d="M45.627 136.886H70.871L67.9673 119.364H48.5307L45.627 136.886Z" fill="#E0E0E0"/>
<path d="M147.999 251.406C211.392 251.406 262.781 248.425 262.781 244.748C262.781 241.071 211.392 238.09 147.999 238.09C84.6066 238.09 33.2168 241.071 33.2168 244.748C33.2168 248.425 84.6066 251.406 147.999 251.406Z" fill="#F5F5F5"/>
<path d="M61.6295 118.988L61.0391 119.03L61.8249 129.874L62.4154 129.831L61.6295 118.988Z" fill="#00623A"/>
<path d="M62.8326 135.425L62.2422 135.468L62.5382 139.547L63.1287 139.504L62.8326 135.425Z" fill="#00623A"/>
<path d="M199.922 185.315H73.1409C70.2732 185.315 67.7584 182.984 67.5518 180.136L61.3222 94.2117C61.1156 91.3634 63.2929 89.0332 66.1606 89.0332H192.942C195.81 89.0332 198.325 91.3634 198.531 94.2117L204.761 180.136C204.967 182.984 202.79 185.315 199.922 185.315Z" fill="#00623A"/>
<path d="M200.411 185.315H73.6291C70.7615 185.315 68.2467 182.984 68.0401 180.136L61.8104 94.2117C61.6038 91.3634 63.7812 89.0332 66.6489 89.0332H193.43C196.298 89.0332 198.813 91.3634 199.019 94.2117L205.249 180.136C205.455 182.984 203.278 185.315 200.411 185.315Z" fill="#00623A"/>
<path opacity="0.5" d="M200.411 185.315H73.6291C70.7615 185.315 68.2467 182.984 68.0401 180.136L61.8104 94.2117C61.6038 91.3634 63.7812 89.0332 66.6489 89.0332H193.43C196.298 89.0332 198.813 91.3634 199.019 94.2117L205.249 180.136C205.455 182.984 203.278 185.315 200.411 185.315Z" fill="white"/>
<path d="M193.617 91.6226H66.8355C66.6922 91.6226 66.5507 91.6284 66.411 91.6396C63.1704 91.9048 63.8323 96.8011 67.1031 96.8011H194.101C197.371 96.8011 197.324 91.9048 194.044 91.6396C193.903 91.6284 193.76 91.6226 193.617 91.6226Z" fill="#00623A"/>
<path d="M70.1378 94.2126C70.1851 94.8682 69.689 95.3997 69.0284 95.3997C68.3683 95.3997 67.7946 94.8682 67.7473 94.2126C67.6999 93.5569 68.196 93.0254 68.8567 93.0254C69.5173 93.0254 70.0904 93.5564 70.1378 94.2126Z" fill="#FAFAFA"/>
<path d="M74.2042 94.2126C74.2515 94.8682 73.7554 95.3997 73.0948 95.3997C72.4347 95.3997 71.861 94.8682 71.8137 94.2126C71.7663 93.5569 72.2624 93.0254 72.9231 93.0254C73.5832 93.0254 74.1568 93.5564 74.2042 94.2126Z" fill="#FAFAFA"/>
<path d="M78.2712 94.2126C78.3185 94.8682 77.8218 95.3997 77.1618 95.3997C76.5017 95.3997 75.928 94.8682 75.8801 94.2126C75.8327 93.5569 76.3294 93.0254 76.9895 93.0254C77.6496 93.0254 78.2232 93.5564 78.2712 94.2126Z" fill="#FAFAFA"/>
<path d="M197.047 176.739H75.7444C74.7007 176.739 73.7932 175.899 73.718 174.862L68.5948 104.2C68.5196 103.164 69.3052 102.323 70.3489 102.323H191.651C192.695 102.323 193.603 103.163 193.678 104.2L198.801 174.862C198.876 175.899 198.091 176.739 197.047 176.739Z" fill="white"/>
<path d="M145.948 149.82L143.973 122.585L137.989 119.007H121.529L123.764 149.82H145.948Z" fill="white"/>
<path d="M145.947 150.105H123.763C123.613 150.105 123.488 149.99 123.477 149.841L121.243 119.028C121.237 118.949 121.265 118.871 121.319 118.813C121.374 118.755 121.45 118.723 121.529 118.723H137.989C138.042 118.723 138.093 118.737 138.137 118.764L144.121 122.341C144.201 122.388 144.252 122.472 144.259 122.564L146.233 149.8C146.239 149.878 146.211 149.957 146.157 150.014C146.103 150.072 146.026 150.105 145.947 150.105ZM124.03 149.536H145.639L143.697 122.753L137.91 119.292H121.837L124.03 149.536Z" fill="#00623A"/>
<path d="M143.972 122.585L137.988 119.007L140.185 123.747L143.972 122.585Z" fill="#EBEBEB"/>
<path d="M140.185 124.031C140.075 124.031 139.972 123.968 139.924 123.865L137.728 119.127C137.675 119.013 137.703 118.879 137.797 118.795C137.89 118.712 138.028 118.699 138.136 118.763L144.119 122.341C144.216 122.398 144.27 122.508 144.256 122.619C144.243 122.731 144.164 122.824 144.056 122.857L140.27 124.019C140.242 124.027 140.213 124.031 140.185 124.031ZM138.639 119.729L140.341 123.4L143.275 122.5L138.639 119.729Z" fill="#00623A"/>
<path d="M130.814 132.89C130.864 133.578 130.344 134.135 129.651 134.135C128.959 134.135 128.358 133.578 128.308 132.89C128.258 132.203 128.779 131.646 129.471 131.646C130.163 131.646 130.765 132.203 130.814 132.89Z" fill="#00623A"/>
<path d="M138.946 132.89C138.996 133.578 138.475 134.135 137.783 134.135C137.091 134.135 136.489 133.578 136.439 132.89C136.389 132.203 136.909 131.646 137.602 131.646C138.295 131.646 138.896 132.203 138.946 132.89Z" fill="#00623A"/>
<path d="M141.239 140.964C141.09 140.964 140.965 140.849 140.953 140.699C140.808 138.698 137.648 137.069 133.909 137.069C131.431 137.069 129.207 137.801 128.103 138.979C127.613 139.503 127.386 140.067 127.429 140.658C127.44 140.815 127.321 140.951 127.163 140.963C127.004 140.973 126.867 140.856 126.856 140.699C126.802 139.954 127.088 139.225 127.683 138.59C128.891 137.3 131.277 136.499 133.909 136.499C138.01 136.499 141.356 138.326 141.526 140.657C141.537 140.814 141.418 140.951 141.26 140.962C141.253 140.964 141.246 140.964 141.239 140.964Z" fill="#00623A"/>
<path d="M126.195 130.369C126.126 130.369 126.056 130.344 126 130.293C125.884 130.186 125.877 130.006 125.985 129.891L127.242 128.545C127.35 128.429 127.532 128.424 127.648 128.53C127.764 128.637 127.77 128.818 127.663 128.933L126.406 130.278C126.349 130.339 126.272 130.369 126.195 130.369Z" fill="#00623A"/>
<path d="M140.649 130.369C140.58 130.369 140.509 130.344 140.454 130.293L139.001 128.947C138.885 128.84 138.879 128.66 138.987 128.545C139.095 128.429 139.277 128.424 139.393 128.531L140.845 129.876C140.961 129.983 140.967 130.163 140.859 130.279C140.803 130.339 140.726 130.369 140.649 130.369Z" fill="#00623A"/>
<path d="M119.736 155.91H121.074L123.005 158.459L122.82 155.91H124.17L124.504 160.516H123.153L121.233 157.987L121.417 160.516H120.07L119.736 155.91Z" fill="#00623A"/>
<path d="M125.11 158.215C125.055 157.463 125.223 156.878 125.615 156.459C126.006 156.04 126.579 155.831 127.331 155.831C128.103 155.831 128.713 156.036 129.16 156.448C129.608 156.86 129.858 157.436 129.912 158.177C129.951 158.715 129.892 159.157 129.734 159.501C129.577 159.846 129.333 160.114 129.002 160.306C128.671 160.498 128.248 160.593 127.734 160.593C127.211 160.593 126.772 160.51 126.417 160.345C126.063 160.18 125.766 159.918 125.527 159.56C125.288 159.202 125.149 158.754 125.11 158.215ZM126.543 158.222C126.577 158.687 126.688 159.021 126.876 159.224C127.065 159.427 127.309 159.528 127.608 159.528C127.916 159.528 128.147 159.429 128.302 159.23C128.456 159.031 128.514 158.674 128.477 158.158C128.446 157.725 128.334 157.408 128.144 157.208C127.953 157.008 127.707 156.908 127.405 156.908C127.116 156.908 126.892 157.01 126.732 157.213C126.572 157.417 126.509 157.753 126.543 158.222Z" fill="#00623A"/>
<path d="M132.697 155.91H134.826C135.246 155.91 135.589 155.967 135.856 156.079C136.122 156.192 136.348 156.355 136.532 156.566C136.716 156.778 136.856 157.024 136.952 157.305C137.048 157.585 137.108 157.883 137.131 158.197C137.166 158.689 137.138 159.071 137.044 159.342C136.951 159.613 136.811 159.841 136.624 160.024C136.437 160.207 136.231 160.329 136.005 160.39C135.698 160.474 135.416 160.515 135.161 160.515H133.032L132.697 155.91ZM134.206 156.953L134.388 159.47H134.739C135.039 159.47 135.249 159.437 135.371 159.371C135.493 159.305 135.583 159.19 135.643 159.025C135.703 158.861 135.719 158.594 135.693 158.226C135.657 157.738 135.553 157.404 135.38 157.224C135.206 157.044 134.934 156.954 134.563 156.954H134.206V156.953Z" fill="#00623A"/>
<path d="M140.569 159.755H138.943L138.771 160.515H137.309L138.718 155.909H140.28L142.357 160.515H140.856L140.569 159.755ZM140.2 158.759L139.568 157.103L139.181 158.759H140.2Z" fill="#00623A"/>
<path d="M141.707 155.91H146.062L146.145 157.047H144.684L144.935 160.516H143.503L143.251 157.047H141.79L141.707 155.91Z" fill="#00623A"/>
<path d="M149.399 159.755H147.773L147.602 160.515H146.139L147.548 155.909H149.111L151.187 160.515H149.686L149.399 159.755ZM149.03 158.759L148.398 157.103L148.012 158.759H149.03Z" fill="#00623A"/>
<path d="M209.383 101.771C209.912 101.508 210.543 101.167 211.126 100.849C211.719 100.525 212.31 100.187 212.892 99.8353C214.051 99.1262 215.221 98.4253 216.33 97.6467C218.569 96.115 220.666 94.4151 222.554 92.5588C222.801 92.3342 223.011 92.0849 223.24 91.8473L223.577 91.4874L223.747 91.3075L223.831 91.2176C223.854 91.194 223.848 91.1987 223.838 91.2128L223.819 91.2417C223.735 91.3987 223.805 91.351 223.837 91.1993C223.877 91.0535 223.91 90.8154 223.921 90.5578C223.958 89.49 223.747 88.1441 223.489 86.8428C222.962 84.2057 222.164 81.4932 221.376 78.8355L223.675 77.8335C225.116 80.3889 226.317 82.9991 227.294 85.8291C227.76 87.2627 228.187 88.7021 228.312 90.4702C228.335 90.9206 228.345 91.394 228.263 91.9461C228.176 92.4894 228.038 93.1397 227.539 93.8771L227.44 94.0129L227.364 94.1117L227.272 94.2222L227.09 94.4421L226.725 94.8831C226.478 95.1736 226.244 95.48 225.981 95.7522C223.94 98.0037 221.669 99.9923 219.245 101.722C218.038 102.597 216.806 103.429 215.525 104.185C214.888 104.569 214.242 104.937 213.585 105.294C212.921 105.661 212.288 105.98 211.533 106.332L209.383 101.771Z" fill="#FFB573"/>
<path d="M204.119 240.009C204.577 240.009 205.078 239.914 205.427 239.832C205.473 239.822 205.508 239.785 205.516 239.739C205.524 239.693 205.504 239.646 205.465 239.621C205.295 239.51 203.79 238.545 203.213 238.804C203.122 238.845 203.007 238.935 202.979 239.132C202.942 239.393 203.007 239.602 203.174 239.752C203.385 239.944 203.737 240.009 204.119 240.009ZM205.095 239.666C204.232 239.837 203.583 239.807 203.332 239.58C203.225 239.483 203.186 239.348 203.212 239.165C203.225 239.067 203.271 239.034 203.309 239.017C203.613 238.881 204.481 239.297 205.095 239.666Z" fill="#00623A"/>
<path d="M205.401 239.835C205.421 239.835 205.441 239.83 205.46 239.82C205.496 239.798 205.518 239.76 205.518 239.718C205.518 239.658 205.512 238.24 204.973 237.766C204.829 237.64 204.662 237.588 204.475 237.61C204.181 237.646 204.102 237.83 204.08 237.936C203.968 238.491 204.87 239.553 205.343 239.82C205.36 239.83 205.38 239.835 205.401 239.835ZM204.557 237.839C204.653 237.839 204.739 237.872 204.817 237.941C205.139 238.224 205.249 239.02 205.276 239.492C204.804 239.118 204.243 238.32 204.311 237.982C204.322 237.926 204.354 237.86 204.504 237.842C204.521 237.84 204.539 237.839 204.557 237.839Z" fill="#00623A"/>
<path d="M204.965 87.0635C204.388 89.9858 203.172 95.9052 205.231 97.8556C205.231 97.8556 204.427 100.82 198.96 100.82C192.948 100.82 196.087 97.8562 196.087 97.8562C199.368 97.0777 199.283 94.6598 198.712 92.389L204.965 87.0635Z" fill="#FFB573"/>
<path d="M194.936 99.0331C193.993 99.1601 194.795 96.7323 195.179 96.4806C196.065 95.8991 207.523 95.0759 207.448 96.4571C207.401 97.0516 207.12 98.2117 206.619 98.6057C206.117 98.9996 203.174 97.8089 194.936 99.0331Z" fill="#263238"/>
<path d="M196.804 98.2159C196.054 98.4675 196.125 96.0209 196.38 95.7263C196.971 95.0454 206.245 92.6787 206.521 94.0176C206.627 94.5956 206.678 95.7504 206.36 96.199C206.042 96.6471 203.317 95.9056 196.804 98.2159Z" fill="#263238"/>
<path d="M193.353 81.7955C193.28 81.7996 193.206 81.7708 193.157 81.7102C192.494 80.9047 191.632 80.987 191.623 80.9882C191.493 81.0017 191.378 80.9094 191.365 80.7812C191.35 80.653 191.444 80.5378 191.573 80.5242C191.619 80.5195 192.698 80.4155 193.521 81.4145C193.603 81.5144 193.588 81.6614 193.488 81.7426C193.448 81.7755 193.401 81.7926 193.353 81.7955Z" fill="#263238"/>
<path d="M192.204 84.6724C192.204 84.6724 191.698 86.4405 191.035 87.3342C191.609 87.7699 192.48 87.4601 192.48 87.4601L192.204 84.6724Z" fill="#FF5652"/>
<path d="M192.495 83.9583C192.534 84.3535 192.354 84.6945 192.095 84.7204C191.834 84.7457 191.592 84.4458 191.552 84.0506C191.513 83.6555 191.693 83.3145 191.952 83.2886C192.213 83.2633 192.456 83.5632 192.495 83.9583Z" fill="#263238"/>
<path d="M192.071 83.2992L191.088 83.1187C191.088 83.1187 191.652 83.8131 192.071 83.2992Z" fill="#263238"/>
<path d="M211.168 239.719H206.209L206.598 228.313H211.557L211.168 239.719Z" fill="#FFB573"/>
<path d="M205.816 239.149H211.387C211.59 239.149 211.754 239.289 211.782 239.485L212.417 243.863C212.483 244.317 212.09 244.747 211.622 244.739C209.68 244.706 208.744 244.593 206.294 244.593C204.787 244.593 202.585 244.748 200.504 244.748C198.468 244.748 198.312 242.703 199.178 242.519C203.064 241.688 203.678 240.544 204.988 239.452C205.223 239.255 205.52 239.149 205.816 239.149Z" fill="#263238"/>
<g opacity="0.2">
<path d="M211.555 228.316H206.594L206.396 234.195H211.357L211.555 228.316Z" fill="black"/>
</g>
<path d="M191.437 104.69C188.369 103.497 185.442 102.199 182.528 100.719C179.618 99.2397 176.753 97.6644 174.001 95.56C173.315 95.0243 172.637 94.4387 171.975 93.7548C171.81 93.5784 171.645 93.415 171.482 93.2127C171.312 92.9998 171.183 92.8746 170.962 92.5477C170.562 91.9761 170.252 91.2088 170.17 90.4256C170.092 89.6418 170.234 88.8933 170.461 88.2964C170.687 87.689 170.983 87.1933 171.293 86.7635C171.916 85.9027 172.605 85.2665 173.3 84.6938C174.687 83.5536 176.154 82.7245 177.623 81.9496C178.357 81.5627 179.105 81.214 179.863 80.8929C180.625 80.5666 181.368 80.2632 182.176 79.9868L183.226 82.2524C180.644 83.8688 177.969 85.6457 176.003 87.6379C175.525 88.1312 175.107 88.6475 174.844 89.102C174.562 89.5647 174.566 89.9111 174.614 89.8846C174.638 89.8846 174.629 89.874 174.697 89.9422L174.933 90.1933C175.022 90.2986 175.147 90.4062 175.259 90.5144C175.723 90.9454 176.269 91.3781 176.856 91.7897C178.032 92.6206 179.326 93.3979 180.665 94.1241C182 94.8603 183.373 95.5647 184.771 96.2333C187.56 97.5604 190.453 98.8375 193.291 100.004L191.437 104.69Z" fill="#FFB573"/>
<path d="M184.685 80.6464L185.505 78.8801L181.778 77.5947C181.778 77.5947 180.617 81.0657 182.001 82.6674C183.179 82.4798 184.186 81.7225 184.685 80.6464Z" fill="#FFB573"/>
<path d="M185.505 75.0617L182.525 74.2085L181.777 77.5942L185.505 78.8802V75.0617Z" fill="#FFB573"/>
<path d="M223.983 79.0511L224.417 74.9233L220.576 75.82C220.576 75.82 220.52 79.6891 222.552 80.3059L223.983 79.0511Z" fill="#FFB573"/>
<path d="M222.567 72.0342L220.064 73.1949L220.576 75.8203L224.417 74.9236L222.567 72.0342Z" fill="#FFB573"/>
<path d="M205.744 81.2938C205.925 86.1783 206.107 88.2422 203.884 90.9758C200.542 95.0871 194.461 94.2392 192.815 89.5064C191.333 85.2463 191.286 77.9739 195.88 75.5737C200.406 73.21 205.564 76.4087 205.744 81.2938Z" fill="#FFB573"/>
<path d="M203.601 90.9662C208.429 88.8941 211.604 84.5246 210.264 77.6926C208.982 71.1564 204.539 70.5108 202.703 71.8667C200.868 73.2227 196.294 71.2017 193.549 73.4961C188.792 77.4716 193.289 81.7575 195.631 84.2971C197.031 87.1536 198.864 92.9995 203.601 90.9662Z" fill="#263238"/>
<path d="M201.595 76.5206C203.225 78.8637 206.349 79.5252 208.575 77.9982C210.801 76.4717 211.285 73.3348 209.656 70.9916C208.026 68.6484 204.902 67.9869 202.676 69.5139C200.45 71.0404 199.966 74.1774 201.595 76.5206Z" fill="#00623A"/>
<path d="M202.849 72.3252C202.152 68.3867 205.904 65.3497 210.922 66.8174C215.939 68.285 213.285 72.7027 212.256 76.2307C211.227 79.7587 213.927 83.1191 215.056 80.4319C216.184 77.7453 214.287 76.9157 214.287 76.9157C214.287 76.9157 219.615 78.2875 214.665 84.2522C209.716 90.2174 205.236 83.6306 206.448 79.7434C207.427 76.6023 203.508 76.0478 202.849 72.3252Z" fill="#263238"/>
<path d="M197.835 73.8137C195.545 72.6271 191.666 71.6675 189.459 75.356C188.415 77.1 188.819 79.4655 188.819 79.4655L195.562 79.9112L197.835 73.8137Z" fill="#263238"/>
<path d="M188.025 78.309C188.022 78.309 188.019 78.309 188.016 78.3084C187.934 78.3037 187.872 78.2337 187.877 78.1526C187.883 78.0526 188.047 75.6871 189.484 74.203C192.958 70.6173 197.032 73.5914 198.198 74.5887C198.26 74.6416 198.267 74.7345 198.213 74.7963C198.159 74.858 198.066 74.8645 198.004 74.8115C196.888 73.8572 192.992 71.0072 189.697 74.407C188.336 75.8117 188.174 78.1473 188.172 78.1708C188.168 78.2484 188.103 78.309 188.025 78.309Z" fill="#263238"/>
<path d="M196.457 84.1035C196.45 85.0548 196.021 85.9862 195.477 86.6183C194.659 87.5685 193.721 87.1005 193.506 86.0468C193.313 85.0984 193.505 83.4614 194.539 82.8875C195.557 82.3224 196.465 83.0157 196.457 84.1035Z" fill="#FFB573"/>
<path d="M195.393 128.844C195.393 128.844 195.709 163.032 198.695 182.084C201.107 197.472 205.57 233.057 205.57 233.057H212.331C212.331 233.057 212.992 198.704 211.768 183.484C208.67 144.971 216.664 137.771 210.213 128.844H195.393Z" fill="#263238"/>
<path opacity="0.1" d="M195.393 128.844C195.393 128.844 195.709 163.032 198.695 182.084C201.107 197.472 205.57 233.057 205.57 233.057H212.331C212.331 233.057 212.992 198.704 211.768 183.484C208.67 144.971 216.664 137.771 210.213 128.844H195.393Z" fill="white"/>
<path opacity="0.3" d="M198.945 144.354C201.319 154.673 199.425 170.926 198.128 178.082C196.755 167.215 196.062 153.133 195.719 142.813C196.944 140.838 198.105 140.708 198.945 144.354Z" fill="black"/>
<path d="M204.643 233.19H213.256L213.708 230.189L204.594 229.883L204.643 233.19Z" fill="#00623A"/>
<path d="M207.1 99.9844C207.91 98.3845 212.266 97.3778 214.646 97.3814L216.428 105.24C216.428 105.24 211.685 112.231 209.713 111.49C207.383 110.615 205.365 103.412 207.1 99.9844Z" fill="#00623A"/>
<path opacity="0.4" d="M207.1 99.9844C207.91 98.3845 212.266 97.3778 214.646 97.3814L216.428 105.24C216.428 105.24 211.685 112.231 209.713 111.49C207.383 110.615 205.365 103.412 207.1 99.9844Z" fill="black"/>
<path d="M202.081 231.268C202.103 231.233 202.104 231.189 202.085 231.153C202.062 231.109 202.013 231.085 201.963 231.092C201.715 231.129 199.523 231.475 199.227 232.096C199.17 232.217 199.178 232.344 199.25 232.464C199.371 232.664 199.542 232.777 199.758 232.799C200.476 232.873 201.514 231.883 202.068 231.287C202.072 231.28 202.077 231.274 202.081 231.268ZM199.452 232.172C199.655 231.842 200.788 231.538 201.653 231.38C200.872 232.168 200.184 232.607 199.781 232.566C199.64 232.552 199.533 232.479 199.451 232.343C199.419 232.291 199.415 232.245 199.439 232.196C199.443 232.188 199.447 232.179 199.452 232.172Z" fill="#00623A"/>
<path d="M202.08 231.268C202.085 231.261 202.089 231.253 202.091 231.245C202.105 231.206 202.096 231.162 202.069 231.131C202.032 231.088 201.154 230.083 200.345 230.031C200.097 230.015 199.88 230.088 199.699 230.248C199.456 230.465 199.477 230.653 199.538 230.772C199.794 231.277 201.369 231.453 202.004 231.322C202.036 231.315 202.063 231.295 202.08 231.268ZM199.763 230.528C199.781 230.498 199.811 230.463 199.856 230.422C199.99 230.303 200.145 230.251 200.329 230.264C200.861 230.298 201.465 230.845 201.74 231.123C201.039 231.182 199.901 230.97 199.747 230.667C199.739 230.649 199.715 230.604 199.763 230.528Z" fill="#00623A"/>
<path d="M207.249 229.182L202.714 231.183L200.693 227.005L198.052 221.534L197.742 220.898L202.272 218.894L202.623 219.61L205.183 224.908L207.249 229.182Z" fill="#FFB573"/>
<path opacity="0.2" d="M205.184 224.908L200.694 227.005L198.053 221.534L202.624 219.61L205.184 224.908Z" fill="black"/>
<path d="M190.074 128.844C190.074 128.844 175.586 164.615 179.513 181.459C183.062 196.682 198.755 225.513 198.755 225.513L204.823 222.487C204.823 222.487 195.122 187.685 194.069 180.124C192.021 165.414 205.185 144.649 205.185 128.844H190.074Z" fill="#263238"/>
<path opacity="0.1" d="M190.074 128.844C190.074 128.844 175.586 164.615 179.513 181.459C183.062 196.682 198.755 225.513 198.755 225.513L204.823 222.487C204.823 222.487 195.122 187.685 194.069 180.124C192.021 165.414 205.185 144.649 205.185 128.844H190.074Z" fill="white"/>
<path d="M201.905 230.557L206.409 227.3C206.573 227.182 206.789 227.199 206.928 227.341L210.035 230.51C210.357 230.838 210.294 231.416 209.911 231.683C208.321 232.791 207.497 233.247 205.517 234.679C204.298 235.56 201.87 237.508 200.187 238.724C198.541 239.914 197.203 238.353 197.795 237.696C200.445 234.754 201.003 232.934 201.415 231.286C201.489 230.989 201.665 230.73 201.905 230.557Z" fill="#263238"/>
<path d="M198.363 226.788L206.195 223.229L205.19 220.06L196.803 223.859L198.363 226.788Z" fill="#00623A"/>
<path d="M193.916 99.5834C193.266 97.9129 187.607 96.0807 184.769 95.4409L183.521 104.712C183.521 104.712 188.157 111.33 190.193 110.783C192.597 110.137 195.309 103.163 193.916 99.5834Z" fill="#00623A"/>
<path opacity="0.4" d="M193.916 99.5834C193.266 97.9129 187.607 96.0807 184.769 95.4409L183.521 104.712C183.521 104.712 188.157 111.33 190.193 110.783C192.597 110.137 195.309 103.163 193.916 99.5834Z" fill="black"/>
<path d="M187.703 99.1172C187.703 99.1172 185.341 99.9433 190.073 128.844C198.064 128.844 206.324 128.844 210.212 128.844C209.874 120.702 209.864 115.682 213.782 98.9743C213.782 98.9743 209.562 98.0623 205.23 97.8553C201.84 97.693 199.064 97.5854 196.084 97.8559C192.158 98.2116 187.703 99.1172 187.703 99.1172Z" fill="#00623A"/>
<path opacity="0.4" d="M187.703 99.1172C187.703 99.1172 185.341 99.9433 190.073 128.844C198.064 128.844 206.324 128.844 210.212 128.844C209.874 120.702 209.864 115.682 213.782 98.9743C213.782 98.9743 209.562 98.0623 205.23 97.8553C201.84 97.693 199.064 97.5854 196.084 97.8559C192.158 98.2116 187.703 99.1172 187.703 99.1172Z" fill="black"/>
<path d="M210.516 127.67L211.424 129.46C211.494 129.599 211.328 129.741 211.096 129.741H189.975C189.793 129.741 189.643 129.652 189.632 129.539L189.45 127.748C189.437 127.624 189.595 127.519 189.793 127.519H210.188C210.337 127.52 210.47 127.58 210.516 127.67Z" fill="#00623A"/>
<path opacity="0.3" d="M210.516 127.67L211.424 129.46C211.494 129.599 211.328 129.741 211.096 129.741H189.975C189.793 129.741 189.643 129.652 189.632 129.539L189.45 127.748C189.437 127.624 189.595 127.519 189.793 127.519H210.188C210.337 127.52 210.47 127.58 210.516 127.67Z" fill="white"/>
<path d="M207.775 129.934H208.321C208.43 129.934 208.513 129.879 208.505 129.811L208.249 127.485C208.241 127.417 208.147 127.361 208.038 127.361H207.491C207.382 127.361 207.299 127.417 207.307 127.485L207.563 129.811C207.571 129.879 207.666 129.934 207.775 129.934Z" fill="#263238"/>
<path d="M194.537 129.934H195.083C195.192 129.934 195.275 129.879 195.267 129.811L195.011 127.485C195.003 127.417 194.908 127.361 194.799 127.361H194.253C194.144 127.361 194.061 127.417 194.069 127.485L194.325 129.811C194.332 129.879 194.428 129.934 194.537 129.934Z" fill="#263238"/>
</svg>
