<svg width="286" height="212" viewBox="0 0 286 212" fill="none" xmlns="http://www.w3.org/2000/svg">
<path opacity="0.5" d="M269.28 181.007H16.7193C9.10783 181.007 2.9375 174.837 2.9375 167.226V16.2573C2.9375 8.64571 9.10783 2.47559 16.7193 2.47559H269.28C276.891 2.47559 283.061 8.64592 283.061 16.2573V167.226C283.061 174.837 276.891 181.007 269.28 181.007Z" fill="#AAF1F7"/>
<path opacity="0.5" d="M167.921 118.876C168.442 118.451 168.949 118.008 169.479 117.593C169.575 117.518 169.774 117.485 169.886 117.531C170.608 117.824 171.314 118.159 172.037 118.448C172.248 118.532 172.346 118.615 172.365 118.847C172.43 119.665 172.517 120.48 172.597 121.296C172.609 121.428 172.627 121.56 172.654 121.79C173.872 121.78 175.077 121.77 176.313 121.759C176.409 120.769 176.512 119.87 176.577 118.969C176.6 118.651 176.684 118.499 177.018 118.391C177.7 118.17 178.351 117.853 179.022 117.596C179.126 117.556 179.302 117.58 179.388 117.647C180.044 118.158 180.703 118.669 181.326 119.219C181.625 119.483 181.836 119.46 182.091 119.197C182.189 119.097 182.324 119.031 182.442 118.95C182.893 118.5 183.343 118.05 183.794 117.601C183.828 117.537 183.852 117.466 183.897 117.412C184.363 116.838 184.319 116.962 183.885 116.425C183.355 115.771 182.815 115.125 182.35 114.562C182.747 113.586 183.118 112.675 183.501 111.734C184.502 111.636 185.548 111.534 186.6 111.431C186.798 110.201 186.754 109.003 186.57 107.784C185.596 107.691 184.646 107.598 183.696 107.511C183.525 107.496 183.431 107.457 183.361 107.264C183.086 106.509 182.792 105.759 182.466 105.024C182.372 104.813 182.404 104.705 182.534 104.547C183.073 103.896 183.596 103.233 184.132 102.581C184.265 102.418 184.295 102.297 184.156 102.105C183.528 101.243 182.745 100.548 181.897 99.9159C181.729 99.791 181.62 99.8568 181.485 99.9712C180.858 100.5 180.218 101.014 179.595 101.548C179.416 101.701 179.293 101.728 179.058 101.615C178.247 101.227 177.414 100.886 176.523 100.497C176.434 99.5878 176.333 98.5557 176.232 97.5239C174.98 97.3172 173.768 97.3035 172.544 97.516C172.447 98.5797 172.354 99.6145 172.268 100.552C171.468 100.91 170.715 101.224 169.986 101.586C169.71 101.723 169.538 101.71 169.308 101.512C168.696 100.984 168.064 100.481 167.434 99.9739C167.31 99.8737 167.179 99.7109 166.996 99.8969C166.249 100.653 165.501 101.409 164.755 102.165C164.596 102.326 164.624 102.466 164.769 102.636C165.31 103.269 165.822 103.926 166.373 104.55C166.585 104.79 166.543 104.967 166.424 105.227C166.132 105.869 165.851 106.521 165.632 107.191C165.538 107.48 165.43 107.563 165.142 107.583C164.216 107.648 163.293 107.749 162.388 107.833C162.17 108.554 162.193 110.702 162.418 111.542C163.358 111.624 164.308 111.716 165.26 111.782C165.498 111.799 165.573 111.894 165.656 112.105C165.922 112.785 166.237 113.446 166.51 114.124C166.556 114.238 166.541 114.437 166.468 114.529C166.007 115.116 165.525 115.686 165.043 116.257C164.773 116.576 164.663 116.704 164.715 116.873L167.109 119.273C167.341 119.346 167.499 119.22 167.921 118.876ZM170.648 113.469C168.508 111.324 168.513 107.85 170.658 105.711C172.803 103.571 176.276 103.576 178.416 105.721C180.555 107.866 180.55 111.339 178.406 113.478C176.261 115.618 172.787 115.614 170.648 113.469Z" fill="#3B9C0B"/>
<path opacity="0.5" d="M180.29 94.7356C180.598 94.485 180.897 94.2235 181.209 93.9791C181.266 93.9344 181.383 93.9154 181.449 93.9421C181.875 94.1153 182.29 94.3128 182.717 94.4829C182.842 94.5324 182.9 94.5814 182.911 94.7184C182.949 95.2003 183 95.6811 183.047 96.1624C183.055 96.2404 183.065 96.3182 183.081 96.4535C183.8 96.4475 184.51 96.4415 185.238 96.4355C185.295 95.8516 185.356 95.3215 185.395 94.79C185.408 94.6025 185.458 94.5129 185.654 94.449C186.057 94.3186 186.441 94.132 186.837 93.9804C186.897 93.957 187.002 93.9708 187.052 94.0101C187.439 94.3116 187.827 94.6131 188.195 94.9371C188.371 95.0927 188.495 95.0792 188.646 94.9245C188.704 94.8651 188.783 94.8264 188.853 94.7784C189.119 94.5133 189.384 94.2481 189.65 93.983C189.67 93.9456 189.685 93.9038 189.711 93.8715C189.985 93.533 189.96 93.6065 189.704 93.2897C189.392 92.9038 189.073 92.5231 188.799 92.1908C189.033 91.6158 189.252 91.0785 189.478 90.5234C190.068 90.4659 190.684 90.4054 191.305 90.3448C191.422 89.6196 191.395 88.9128 191.287 88.1944C190.713 88.1394 190.153 88.0844 189.592 88.0335C189.492 88.0244 189.436 88.0012 189.395 87.8874C189.233 87.4419 189.059 87 188.867 86.5669C188.812 86.4422 188.831 86.3782 188.907 86.2853C189.225 85.9017 189.533 85.5107 189.849 85.1258C189.928 85.0302 189.946 84.9582 189.863 84.8451C189.493 84.3369 189.031 83.9272 188.531 83.5546C188.432 83.4809 188.368 83.5198 188.288 83.5871C187.919 83.8991 187.542 84.2022 187.174 84.5167C187.068 84.6073 186.996 84.6231 186.857 84.5566C186.379 84.3276 185.888 84.1263 185.362 83.8974C185.31 83.3611 185.25 82.7524 185.191 82.1441C184.453 82.0223 183.738 82.0142 183.016 82.1396C182.959 82.7667 182.904 83.3769 182.853 83.9295C182.382 84.1412 181.938 84.3264 181.508 84.5397C181.345 84.6204 181.243 84.6125 181.108 84.4958C180.747 84.1848 180.374 83.8879 180.003 83.5892C179.93 83.53 179.852 83.434 179.744 83.5436C179.304 83.9895 178.863 84.435 178.423 84.8811C178.329 84.9758 178.346 85.0584 178.431 85.1587C178.75 85.532 179.052 85.9195 179.377 86.2872C179.502 86.4291 179.477 86.5334 179.407 86.6867C179.235 87.0656 179.069 87.4498 178.94 87.8448C178.884 88.0151 178.821 88.0643 178.651 88.0761C178.105 88.1142 177.56 88.1736 177.027 88.2234C176.899 88.6482 176.912 89.9149 177.045 90.4102C177.599 90.4584 178.159 90.513 178.721 90.5519C178.861 90.5617 178.906 90.6177 178.954 90.7421C179.111 91.1433 179.297 91.5333 179.458 91.933C179.485 92.0003 179.476 92.1174 179.433 92.1718C179.161 92.5177 178.877 92.8544 178.593 93.1906C178.434 93.3787 178.369 93.454 178.399 93.5537L179.811 94.9687C179.948 95.0128 180.041 94.9383 180.29 94.7356ZM181.898 91.5467C180.636 90.2819 180.639 88.2338 181.904 86.9723C183.169 85.7106 185.217 85.7134 186.478 86.9783H186.478C187.74 88.2431 187.737 90.2912 186.472 91.5527C185.208 92.8142 183.16 92.8115 181.898 91.5467Z" fill="#3B9C0B"/>
<path opacity="0.3" d="M233.224 117.164H222.193V174.159H233.224V117.164Z" fill="#3B9C0B"/>
<path opacity="0.3" d="M217.818 134.227H206.787V173.838H217.818V134.227Z" fill="#3B9C0B"/>
<path opacity="0.3" d="M248.851 129.512H237.82V174.159H248.851V129.512Z" fill="#3B9C0B"/>
<path opacity="0.3" d="M202.414 127.435H191.383V173.837H202.414V127.435Z" fill="#3B9C0B"/>
<path opacity="0.3" d="M187.008 141.192H175.977V173.837H187.008V141.192Z" fill="#3B9C0B"/>
<g opacity="0.5">
<path d="M233.224 129.977H222.193V174.158H233.224V129.977Z" fill="#3B9C0B"/>
<path d="M217.818 143.354H206.787V173.836H217.818V143.354Z" fill="#3B9C0B"/>
<path d="M248.851 139.481H237.82V174.159H248.851V139.481Z" fill="#3B9C0B"/>
<path d="M202.414 138.129H191.383V173.837H202.414V138.129Z" fill="#3B9C0B"/>
<path d="M187.008 148.716H175.977V173.837H187.008V148.716Z" fill="#3B9C0B"/>
</g>
<path d="M173.189 175.062L170.684 174.195L177.74 165.106L181.81 167.309L190.067 156.807L200.305 164.224L218.882 136.994L229.288 148.095L248.178 128.491L250.551 129.511L229.254 151.609L219.274 140.964L201.112 167.587L190.705 160.049L182.708 170.22L178.652 168.025L173.189 175.062Z" fill="#3B9C0B"/>
<path d="M250.027 133.514L247.474 131.007L242.998 130.492L251.879 126.442L250.027 133.514Z" fill="#3B9C0B"/>
<path opacity="0.3" d="M156.685 94.0007C154.625 93.8996 152.565 93.9337 150.511 94.1867C137.157 95.8327 125.709 106.385 116.146 117.854C114.079 120.333 111.847 123.012 108.975 123.517C105.509 124.127 102.28 121.375 99.6977 118.495C95.1851 113.462 90.2982 107.085 84.2207 107.956C79.8743 108.58 76.5797 112.808 73.3948 116.463C70.2099 120.118 66.0648 123.648 61.8061 122.42C58.0118 121.325 55.1994 117.547 52.0799 114.699C45.0538 108.283 36.9358 114.259 31.998 120.079V129.143H156.685L156.685 94.0007Z" fill="#3B9C0B"/>
<path opacity="0.5" d="M47.1211 88.2222H38.2285V89.476H47.1211V88.2222Z" fill="#3B9C0B"/>
<path opacity="0.5" d="M46.3957 91.0793H38.2285V92.333H46.3957V91.0793Z" fill="#3B9C0B"/>
<path opacity="0.5" d="M96.0794 82.8564H103.123V81.6026H96.0794V82.8564Z" fill="#3B9C0B"/>
<path opacity="0.5" d="M94.2305 85.7125H103.123V84.4587H94.2305V85.7125Z" fill="#3B9C0B"/>
<path opacity="0.5" d="M138.572 73.984H129.68V75.2379H138.572V73.984Z" fill="#3B9C0B"/>
<path opacity="0.5" d="M138.573 76.8401H132.582V78.0937H138.573V76.8401Z" fill="#3B9C0B"/>
<path opacity="0.5" d="M50.748 98.7831L47.6328 92.4328L47.7685 92.3341L50.8837 98.6846L50.748 98.7831Z" fill="#3B9C0B"/>
<path opacity="0.5" d="M90.241 92.1621L93.3564 85.8117L93.2206 85.7133L90.1055 92.0636L90.241 92.1621Z" fill="#3B9C0B"/>
<path opacity="0.5" d="M129.257 85.2735L132.372 78.9232L132.236 78.8247L129.121 85.175L129.257 85.2735Z" fill="#3B9C0B"/>
<path opacity="0.3" d="M143.705 44.3784H107.242V49.0187H143.705V44.3784Z" fill="#3B9C0B"/>
<path opacity="0.3" d="M143.705 51.2671H107.242V55.9074H143.705V51.2671Z" fill="#3B9C0B"/>
<path opacity="0.3" d="M143.705 58.1556H107.242V62.7959H143.705V58.1556Z" fill="#3B9C0B"/>
<path opacity="0.5" d="M114.135 44.3784H107.242V49.0187H114.135V44.3784Z" fill="#3B9C0B"/>
<path opacity="0.5" d="M124.149 51.2671H107.242V55.9074H124.149V51.2671Z" fill="#3B9C0B"/>
<path opacity="0.5" d="M115.358 58.1556H107.242V62.7959H115.358V58.1556Z" fill="#3B9C0B"/>
<path opacity="0.3" d="M177.325 51.6889C178.495 44.4802 173.599 37.688 166.391 36.518C159.182 35.3481 152.39 40.2435 151.22 47.4522C150.05 54.661 154.945 61.4532 162.154 62.6231C169.363 63.793 176.155 58.8976 177.325 51.6889Z" fill="#3B9C0B"/>
<path opacity="0.5" d="M197.077 36.3933C190.256 36.9188 184.883 42.6164 184.883 49.5726C184.883 56.5289 190.256 62.2263 197.077 62.752V36.3933Z" fill="#3B9C0B"/>
<path opacity="0.3" d="M199.135 36.3933V62.7522C205.956 62.2265 211.329 56.5289 211.329 49.5728C211.329 42.6164 205.956 36.9191 199.135 36.3933Z" fill="#3B9C0B"/>
<path opacity="0.5" d="M231.12 36.3782C224.203 36.8056 218.725 42.5481 218.725 49.5727C218.725 56.5976 224.203 62.34 231.12 62.7675V36.3782Z" fill="#3B9C0B"/>
<path d="M232.775 49.3402L243.504 43.146C241.371 39.3197 237.395 36.6637 232.775 36.3782V49.3402Z" fill="#3B9C0B"/>
<path opacity="0.3" d="M232.775 51.2506V62.7673C239.692 62.3398 245.171 56.5974 245.171 49.5726C245.171 47.83 244.831 46.1677 244.218 44.6443L232.775 51.2506Z" fill="#3B9C0B"/>
<path opacity="0.5" d="M250.83 78.0416H199.014V81.2772H250.83V78.0416Z" fill="#3B9C0B"/>
<path opacity="0.5" d="M250.83 83.827H199.014V84.6191H250.83V83.827Z" fill="#3B9C0B"/>
<path opacity="0.5" d="M250.83 86.8625H199.014V87.6546H250.83V86.8625Z" fill="#3B9C0B"/>
<path opacity="0.5" d="M250.83 89.899H199.014V90.6911H250.83V89.899Z" fill="#3B9C0B"/>
<path opacity="0.5" d="M250.83 92.9335H199.014V93.7255H250.83V92.9335Z" fill="#3B9C0B"/>
<path opacity="0.5" d="M250.83 95.97H199.014V96.762H250.83V95.97Z" fill="#3B9C0B"/>
<path opacity="0.5" d="M250.83 99.0055H199.014V99.7975H250.83V99.0055Z" fill="#3B9C0B"/>
<path opacity="0.5" d="M250.83 102.042H199.014V102.834H250.83V102.042Z" fill="#3B9C0B"/>
<path opacity="0.5" d="M250.83 105.078H199.014V105.87H250.83V105.078Z" fill="#3B9C0B"/>
<path opacity="0.5" d="M250.83 108.113H199.014V108.905H250.83V108.113Z" fill="#3B9C0B"/>
<path opacity="0.5" d="M250.83 111.149H199.014V111.941H250.83V111.149Z" fill="#3B9C0B"/>
<path opacity="0.5" d="M251.879 27.2896H241.945V28.4399H251.879V27.2896Z" fill="#3B9C0B"/>
<path opacity="0.5" d="M218.723 68.0027H208.789V69.1531H218.723V68.0027Z" fill="#3B9C0B"/>
<path opacity="0.5" d="M213.756 65.8035H208.789V66.9539H213.756V65.8035Z" fill="#3B9C0B"/>
<path opacity="0.5" d="M222.479 30.4354H212.545V31.5858H222.479V30.4354Z" fill="#3B9C0B"/>
<path opacity="0.5" d="M217.512 28.2371H212.545V29.3875H217.512V28.2371Z" fill="#3B9C0B"/>
<path opacity="0.5" d="M251.878 29.9116H245.186V31.0618H251.878V29.9116Z" fill="#3B9C0B"/>
<path opacity="0.5" d="M244.802 31.7384L241.322 37.5646L241.474 37.6551L244.954 31.8289L244.802 31.7384Z" fill="#3B9C0B"/>
<path opacity="0.5" d="M220.988 61.4222L217.508 67.2484L217.659 67.3389L221.139 61.5127L220.988 61.4222Z" fill="#3B9C0B"/>
<path opacity="0.5" d="M187.422 69.1008H177.488V70.2512H187.422V69.1008Z" fill="#3B9C0B"/>
<path opacity="0.5" d="M182.455 66.9036H177.488V68.054H182.455V66.9036Z" fill="#3B9C0B"/>
<path opacity="0.5" d="M188.367 62.6683L184.887 68.4945L185.038 68.585L188.518 62.7588L188.367 62.6683Z" fill="#3B9C0B"/>
<path opacity="0.5" d="M211.121 30.477L207.641 36.3032L207.792 36.3937L211.272 30.5675L211.121 30.477Z" fill="#3B9C0B"/>
<path opacity="0.5" d="M187.797 30.4354H177.863V31.5858H187.797V30.4354Z" fill="#3B9C0B"/>
<path opacity="0.5" d="M182.83 28.2371H177.863V29.3875H182.83V28.2371Z" fill="#3B9C0B"/>
<path opacity="0.5" d="M185.015 32.8584H177.863V34.0088H185.015V32.8584Z" fill="#3B9C0B"/>
<path opacity="0.5" d="M176.439 30.477L172.959 36.3033L173.11 36.3938L176.591 30.5675L176.439 30.477Z" fill="#3B9C0B"/>
<g opacity="0.5">
<path d="M39.8834 147.453H36.9863V164.038H39.8834V147.453Z" fill="#3B9C0B"/>
<path d="M45.1022 149.526H42.2051V161.964H45.1022V149.526Z" fill="#3B9C0B"/>
<path d="M50.3209 147.453H47.4238V164.038H50.3209V147.453Z" fill="#3B9C0B"/>
<path opacity="0.3" d="M55.5397 139.815H52.6426V171.165H55.5397V139.815Z" fill="#3B9C0B"/>
<path d="M60.7584 144.289H57.8613V167.202H60.7584V144.289Z" fill="#3B9C0B"/>
<path opacity="0.3" d="M107.924 139.815H105.027V171.165H107.924V139.815Z" fill="#3B9C0B"/>
<path d="M113.143 145.925H110.246V165.565H113.143V145.925Z" fill="#3B9C0B"/>
<path d="M118.001 151.162H115.104V160.327H118.001V151.162Z" fill="#3B9C0B"/>
<path d="M122.702 148.435H119.805V163.055H122.702V148.435Z" fill="#3B9C0B"/>
<path opacity="0.3" d="M127.505 140.728H124.607V170.761H127.505V140.728Z" fill="#3B9C0B"/>
<path d="M132.456 149.526H129.559V161.964H132.456V149.526Z" fill="#3B9C0B"/>
<path d="M137.585 145.925H134.688V165.565H137.585V145.925Z" fill="#3B9C0B"/>
<path opacity="0.3" d="M142.36 139.815H139.463V171.674H142.36V139.815Z" fill="#3B9C0B"/>
<path d="M147.053 145.925H144.156V164.583H147.053V145.925Z" fill="#3B9C0B"/>
<path d="M151.952 150.484H149.055V160.024H151.952V150.484Z" fill="#3B9C0B"/>
<path d="M156.686 152.436H153.789V158.073H156.686V152.436Z" fill="#3B9C0B"/>
<path d="M34.8951 151.162H31.998V159.345H34.8951V151.162Z" fill="#3B9C0B"/>
<path opacity="0.3" d="M86.5553 139.815H83.6582V171.165H86.5553V139.815Z" fill="#3B9C0B"/>
<path d="M91.774 144.289H88.877V167.202H91.774V144.289Z" fill="#3B9C0B"/>
<path d="M65.977 149.526H63.0801V161.964H65.977V149.526Z" fill="#3B9C0B"/>
<path d="M71.1959 151.162H68.2988V160.327H71.1959V151.162Z" fill="#3B9C0B"/>
<path d="M97.4186 149.526H94.5215V161.964H97.4186V149.526Z" fill="#3B9C0B"/>
<path d="M102.637 145.925H99.7402V165.565H102.637V145.925Z" fill="#3B9C0B"/>
<path d="M76.4147 148.435H73.5176V163.055H76.4147V148.435Z" fill="#3B9C0B"/>
<path d="M81.6354 145.925H78.7383V165.565H81.6354V145.925Z" fill="#3B9C0B"/>
</g>
<g opacity="0.5">
<path d="M18.7539 32.2303L21.8724 31.3925C21.9655 32.1529 22.1827 32.7405 22.5241 33.1556C22.8653 33.5706 23.2998 33.7781 23.8274 33.7781C24.293 33.7781 24.671 33.6114 24.9619 33.2778C25.2528 32.9443 25.3982 32.5061 25.3982 31.963C25.3982 31.4509 25.2489 30.9663 24.9503 30.5084C24.6515 30.0509 23.9669 29.3682 22.8964 28.4605C21.4224 27.2116 20.4255 26.1624 19.9058 25.3128C19.386 24.4635 19.1261 23.55 19.1261 22.5724C19.1261 21.1528 19.5625 20.0086 20.4352 19.1396C21.3079 18.2708 22.4542 17.8363 23.8738 17.8363C25.2313 17.8363 26.3233 18.1758 27.1495 18.8545C27.9757 19.5333 28.5128 20.5358 28.7611 21.8625L25.8754 22.8633C25.7899 22.1263 25.5979 21.5678 25.2994 21.1875C25.0008 20.8077 24.607 20.6175 24.1183 20.6175C23.6607 20.6175 23.2901 20.7688 23.007 21.0713C22.7238 21.3738 22.5823 21.7735 22.5823 22.2699C22.5823 23.1387 23.354 24.2092 24.8977 25.4815C25.2702 25.7918 25.5572 26.0283 25.7589 26.1913C26.8681 27.1613 27.6498 28.0533 28.1038 28.8677C28.5575 29.6825 28.7845 30.5784 28.7845 31.5558C28.7845 33.1541 28.3286 34.4204 27.4172 35.3552C26.5056 36.2902 25.2702 36.7574 23.7109 36.7574C22.3379 36.7574 21.2188 36.3599 20.3539 35.5648C19.4888 34.7692 18.9554 33.6579 18.7539 32.2303Z" fill="#0B5638"/>
<path d="M30.8086 36.3958V18.1848H34.7882L36.7199 26.7724C36.9061 27.556 37.0532 28.258 37.162 28.8785C37.2704 29.4992 37.3598 30.1121 37.4296 30.7171L37.6042 30.7289C37.7126 29.961 37.8252 29.2607 37.9416 28.6284C38.0581 27.9963 38.1744 27.4475 38.2907 26.982L40.5133 18.1848H44.4116V36.3958H41.1532L41.1998 30.147C41.2074 28.9679 41.2637 27.6725 41.3684 26.2605C41.4731 24.8488 41.6225 23.3165 41.8164 21.6641H41.607C41.3744 22.9443 41.1667 24.0498 40.9844 24.9806C40.8021 25.9113 40.6604 26.5943 40.5596 27.0286L38.8839 34.0801H36.1494L34.4271 26.6212C34.2565 25.9152 34.0916 25.1592 33.9327 24.352C33.7738 23.5453 33.6126 22.6492 33.4497 21.6641H33.2401C33.434 23.4406 33.5853 25.0543 33.6939 26.5049C33.8025 27.9555 33.8646 29.1696 33.8801 30.147L33.9966 36.3958H30.8086Z" fill="#0B5638"/>
<path d="M46.1582 36.3958L50.2891 18.1848H54.0943L58.1204 36.3958H54.4086L53.9083 33.4401H50.2893L49.6843 36.3958H46.1582ZM50.8128 30.6705H53.3844L52.5466 24.9339C52.4845 24.4683 52.4245 23.8828 52.3662 23.1768C52.3081 22.4711 52.2594 21.6836 52.2207 20.8146H51.9998C51.9222 21.8464 51.8485 22.7502 51.7788 23.5259C51.7089 24.3018 51.6544 24.7942 51.6157 25.0036L50.8128 30.6705Z" fill="#0B5638"/>
<path d="M60.0742 36.3958V18.1848H64.4612C66.3772 18.1848 67.8259 18.6154 68.8073 19.4765C69.7886 20.3377 70.2794 21.6099 70.2794 23.2931C70.2794 24.4569 70.0233 25.4362 69.5114 26.2314C68.9993 27.0265 68.2699 27.5793 67.3238 27.8895L70.6051 36.3958H66.9397L63.8676 27.8198H63.5302V36.3958H60.0742ZM63.5304 25.9812C63.5769 25.9812 63.6448 25.9853 63.734 25.9928C63.8231 26.0007 63.891 26.0046 63.9376 26.0046C64.8374 26.0046 65.5357 25.7776 66.0321 25.3239C66.5284 24.8701 66.7767 24.232 66.7767 23.4098C66.7767 22.5875 66.5324 21.965 66.0436 21.5421C65.5549 21.1193 64.8372 20.9079 63.891 20.9079H63.5302V25.9812H63.5304Z" fill="#0B5638"/>
<path d="M74.3767 36.3958V21.2334H71.5957V18.1848H80.7186V21.2334H77.9026V36.3958H74.3767Z" fill="#0B5638"/>
</g>
<g opacity="0.5">
<path d="M19.916 61.3749V43.1639H27.5612V46.0265H23.4419V50.3901H27.5612V53.2061H23.4419V61.3749H19.916Z" fill="#0B5638"/>
<path d="M28.3633 61.3749L32.4942 43.1639H36.2993L40.3255 61.3749H36.6136L36.1133 58.4193H32.4944L31.8894 61.3749H28.3633ZM33.0178 55.6496H35.5894L34.7517 49.913C34.6896 49.4475 34.6296 48.8617 34.5713 48.1559C34.5131 47.45 34.4645 46.6627 34.4258 45.7935H34.2048C34.1273 46.8253 34.0536 47.7291 33.9837 48.5048C33.9139 49.2807 33.8595 49.7731 33.8208 49.9827L33.0178 55.6496Z" fill="#0B5638"/>
<path d="M42.2812 61.3749V43.1639H46.6683C48.5842 43.1639 50.033 43.5945 51.0145 44.4556C51.9959 45.3168 52.4864 46.5891 52.4864 48.2724C52.4864 49.4361 52.2305 50.4156 51.7184 51.2107C51.2063 52.0058 50.4772 52.5587 49.5308 52.869L52.8123 61.3751H49.1468L46.0748 52.7991H45.7374V61.3751H42.2812V61.3749ZM45.7374 50.9603C45.7839 50.9603 45.8516 50.9645 45.941 50.9719C46.0302 50.9798 46.0982 50.9837 46.1446 50.9837C47.0444 50.9837 47.7425 50.7567 48.2391 50.303C48.7354 49.8493 48.9837 49.2112 48.9837 48.3889C48.9837 47.5667 48.7394 46.9443 48.2507 46.5212C47.762 46.0985 47.0442 45.887 46.098 45.887H45.7372L45.7374 50.9603Z" fill="#0B5638"/>
<path d="M55.0117 61.3751V43.1641H58.9913L60.923 51.7517C61.1092 52.5353 61.2563 53.2373 61.3652 53.8578C61.4736 54.4786 61.563 55.0914 61.6327 55.6964L61.8073 55.708C61.9157 54.9402 62.0283 54.24 62.1448 53.6075C62.2613 52.9754 62.3776 52.4267 62.494 51.9611L64.7166 43.1639H68.6147V61.3749H65.3566L65.4031 55.1262C65.4108 53.947 65.4671 52.6516 65.5718 51.2397C65.6764 49.8279 65.8258 48.2956 66.0199 46.6433H65.8105C65.5778 47.9234 65.3702 49.0289 65.1879 49.9597C65.0057 50.8904 64.8639 51.5732 64.7632 52.0077L63.0874 59.0594H60.353L58.6307 51.6005C58.46 50.8947 58.2949 50.1385 58.136 49.3314C57.9771 48.5246 57.8161 47.6287 57.6531 46.6433H57.4437C57.6376 48.42 57.7888 50.0336 57.8974 51.484C58.0061 52.9348 58.0679 54.1487 58.0836 55.1262L58.1999 61.3749L55.0117 61.3751Z" fill="#0B5638"/>
<path d="M75.2231 61.3749H71.6973V43.1639H75.2231V61.3749Z" fill="#0B5638"/>
<path d="M78.25 61.3749V43.1639H81.7759L84.1847 51.8447C84.3086 52.2715 84.4987 53.0298 84.7549 54.1196C85.0108 55.2096 85.3135 56.5652 85.6626 58.1865H85.8954C85.6082 55.9755 85.3833 54.0209 85.2204 52.3218C85.0574 50.6229 84.9761 49.3585 84.9761 48.5284V43.1639H88.1645V61.3749H84.7083L82.3695 53.2642C82.3384 53.1477 82.284 52.9541 82.2064 52.6826C81.547 50.4251 81.0778 48.4547 80.7985 46.7713H80.5891C80.8684 48.9589 81.0815 50.9138 81.229 52.6361C81.3763 54.3581 81.4502 55.7936 81.4502 56.9416V61.3749H78.25Z" fill="#0B5638"/>
<path d="M95.9142 53.3226V50.4367H101.558V54.3C101.558 56.7051 101.085 58.5455 100.138 59.8217C99.1916 61.0979 97.8302 61.7358 96.0539 61.7358C94.2387 61.7358 92.8905 60.968 92.0101 59.4319C91.1297 57.8958 90.6895 55.5415 90.6895 52.3686C90.6895 49.0794 91.1509 46.6609 92.0741 45.1132C92.9973 43.5656 94.4322 42.7917 96.3796 42.7917C97.644 42.7917 98.6603 43.0984 99.4283 43.711C100.196 44.3239 100.778 45.286 101.174 46.5967L98.0319 47.6906C97.8846 47.0157 97.6731 46.5231 97.3979 46.2127C97.1224 45.9026 96.7596 45.7472 96.3098 45.7472C95.5883 45.7472 95.0781 46.2206 94.7796 47.167C94.4808 48.1136 94.3314 49.8472 94.3314 52.3684C94.3314 54.8045 94.4748 56.4781 94.762 57.3895C95.049 58.3012 95.5416 58.7568 96.2399 58.7568C96.8138 58.7568 97.256 58.4292 97.5664 57.7733C97.8767 57.1179 98.0319 56.181 98.0319 54.9632V53.3226H95.9142Z" fill="#0B5638"/>
</g>
<path d="M268.729 183.481H17.2696C8.00231 183.481 0.462891 175.942 0.462891 166.674V16.8067C0.462891 7.53963 8.00231 0 17.2696 0H268.729C277.996 0 285.535 7.53963 285.535 16.8067V166.674C285.536 175.942 277.996 183.481 268.729 183.481ZM17.2696 4.94897C10.7312 4.94897 5.41164 10.2683 5.41164 16.8067V166.674C5.41164 173.213 10.7312 178.532 17.2696 178.532H268.729C275.267 178.532 280.587 173.213 280.587 166.674V16.8067C280.587 10.2683 275.267 4.94897 268.729 4.94897H17.2696Z" fill="#00623A"/>
<path opacity="0.5" d="M150.511 80.0242C137.157 81.6702 125.709 92.2223 116.146 103.691C114.079 106.17 111.847 108.849 108.975 109.354C105.509 109.964 102.28 107.213 99.6977 104.332C95.1851 99.2999 90.2982 92.9219 84.2207 93.7936C79.8743 94.4172 76.5797 98.6449 73.3948 102.3C70.2099 105.955 66.0648 109.486 61.8061 108.257C58.0118 107.162 55.1994 103.384 52.0799 100.536C45.0538 94.1205 36.9358 100.097 31.998 105.916V120.08C36.9356 114.261 45.0538 108.285 52.0799 114.7C55.1994 117.549 58.0118 121.327 61.8061 122.421C66.0648 123.65 70.2099 120.119 73.3948 116.464C76.5797 112.809 79.8741 108.581 84.2207 107.958C90.2982 107.086 95.1851 113.464 99.6977 118.497C102.28 121.377 105.509 124.128 108.975 123.518C111.847 123.013 114.079 120.334 116.146 117.855C125.709 106.386 137.157 95.8339 150.511 94.1881C152.565 93.9349 154.625 93.9007 156.685 94.0021V79.8376C154.625 79.7368 152.565 79.771 150.511 80.0242Z" fill="#3B9C0B"/>
<path d="M261.506 180.035L279.533 211.999L277.424 178.343L261.506 180.035Z" fill="#00623A"/>
<g clip-path="url(#clip0_4005_6255)">
<path d="M58.7498 264.19H54.7119L52.4282 216.569L51.6293 199.914L50.5439 177.407L49.1284 147.726L48.6074 136.811L48.9548 135.005C49.085 134.302 49.7015 133.789 50.4136 133.789C50.9693 133.789 51.4643 134.102 51.7248 134.571C52.0027 135.066 52.324 135.778 52.4803 136.585C52.6713 137.532 53.8696 137.871 54.5643 137.193C54.5904 137.167 54.5991 137.15 54.5991 137.124L55.0853 151.912L55.8321 174.915L56.6223 199.115L57.1433 215.076L58.7498 264.19Z" fill="#765216"/>
<path opacity="0.3" d="M55.0853 151.912C54.2257 151.174 53.3573 150.47 52.4629 149.819C51.5164 149.133 50.3528 148.447 49.1284 147.726L48.6074 136.811L48.9548 135.005C49.085 134.302 49.7015 133.789 50.4136 133.789C50.9693 133.789 51.4643 134.102 51.7248 134.571C52.0027 135.066 52.324 135.778 52.4803 136.585C52.6713 137.532 53.8696 137.871 54.5643 137.193C54.5904 137.167 54.5991 137.15 54.5991 137.124L55.0853 151.912Z" fill="black"/>
<path d="M82.6821 211.539C74.8669 211.539 72.3747 204.914 71.5845 200.294C71.159 197.828 71.2198 195.935 71.2198 195.935C73.8335 195.214 76.647 194.372 79.6862 193.365L80.1725 196.291L82.6821 211.539Z" fill="#B3BCB7"/>
<path d="M87.1017 238.326L82.6818 211.537C74.8666 211.537 72.3744 204.912 71.5842 200.292C71.1587 197.826 71.2195 195.933 71.2195 195.933C65.4884 197.505 60.7211 198.46 56.6312 199.111H56.6225L56.7441 202.845L56.9264 208.411L57.1435 215.072C57.1435 215.072 68.6231 236.468 73.8593 263.995C74.6842 268.319 75.3529 272.8 75.7958 277.367C75.9173 278.566 76.0128 279.764 76.0997 280.971H85.5039L85.7297 279.26L87.5359 265.618C88.7342 256.553 88.5953 247.357 87.1017 238.326ZM52.2807 213.5L51.7858 203.201L51.6295 199.91C51.1258 199.962 51.0911 199.962 50.6309 200.023C47.1488 200.388 43.6406 200.275 40.1672 199.91C40.1672 199.91 40.6188 201.517 40.8445 203.887C41.3221 209.115 40.6795 218.059 31.5879 221.906L40.7577 278.982L41.079 280.971H50.9348C50.9348 280.971 50.9348 279.391 50.9348 276.733C50.9435 272.8 50.9695 266.487 51.0303 259.392C51.1606 242.017 51.5166 219.934 52.4284 216.565L52.2807 213.5Z" fill="#96A19B"/>
<path d="M31.5879 221.907L29.0784 206.259L28.375 201.9C28.375 201.9 31.9179 199.025 40.1672 199.911C40.1672 199.911 40.6188 201.518 40.8446 203.888C41.3222 209.116 40.6796 218.06 31.5879 221.907Z" fill="#B3BCB7"/>
<path d="M42.7774 200.132C43.433 202.454 43.7004 204.881 43.697 207.309C43.69 209.737 43.3201 212.186 42.5013 214.507C41.6433 216.802 40.3087 218.988 38.4018 220.566C36.5444 222.198 34.2189 223.178 31.8691 223.654C32.9902 223.212 34.1147 222.802 35.1237 222.167C35.6525 221.899 36.1249 221.538 36.6173 221.217C37.0732 220.843 37.5464 220.494 37.9537 220.071C39.6591 218.46 40.8809 216.406 41.6859 214.211C42.4865 212.005 42.8694 209.652 43.0327 207.286C43.1143 206.101 43.1178 204.908 43.0657 203.715C43.0379 202.52 42.9311 201.326 42.7774 200.132Z" fill="#404441"/>
<path d="M68.9961 196.527C69.1012 197.542 69.2297 198.548 69.4277 199.542C69.6005 200.538 69.815 201.524 70.0894 202.492C70.6434 204.418 71.3285 206.314 72.3662 208.001C73.3735 209.699 74.7298 211.184 76.4118 212.214C77.2403 212.75 78.1694 213.126 79.128 213.401C80.0806 213.728 81.0896 213.824 82.103 213.957C80.0754 214.117 77.9419 213.796 76.0819 212.795C75.1475 212.315 74.2965 211.671 73.5454 210.933C72.8056 210.183 72.1699 209.339 71.622 208.448C70.5435 206.652 69.8549 204.663 69.4424 202.646C69.0361 200.628 68.8467 198.567 68.9961 196.527Z" fill="#404441"/>
<path d="M50.6309 200.025C47.1488 200.39 43.6406 200.277 40.1672 199.912C31.9179 199.026 28.375 201.901 28.375 201.901L29.0784 206.26C29.4691 206.069 29.8599 205.886 30.2506 205.747C32.9339 204.792 36.1381 204.184 38.9776 204.011C39.6028 203.976 40.2193 203.932 40.8446 203.889C44.0575 203.663 47.2617 203.368 50.4572 203.255C50.9001 203.238 51.3429 203.22 51.7858 203.203L51.6295 199.912C51.1259 199.964 51.0911 199.964 50.6309 200.025ZM79.686 193.365C76.6468 194.372 73.8333 195.214 71.2195 195.935C65.4884 197.507 60.7212 198.462 56.6312 199.113H56.6225L56.7441 202.847C61.7545 202.378 66.7302 201.553 71.5843 200.294C72.166 200.146 72.7392 199.99 73.3123 199.825C75.8826 199.096 77.9753 197.489 80.1723 196.291L79.686 193.365Z" fill="#79827D"/>
<path d="M46.8119 112.158C47.9147 112.827 49.4865 113.496 51.4489 113.617C54.6879 113.817 57.7358 112.054 59.3336 109.276C59.5246 108.946 59.6983 108.598 59.8459 108.233C60.6274 106.332 61.2005 103.675 61.079 100.019C61.0269 98.5774 60.8792 96.9796 60.5927 95.2082C59.9327 93.3499 59.1512 91.9866 58.4739 91.0401C58.2047 90.658 57.9616 90.3454 57.7358 90.0936C57.2756 89.5813 56.5201 89.4597 55.9383 89.8157C49.2867 93.7494 45.3097 92.0474 45.3097 92.0474C44.4066 92.4208 43.5382 92.7855 42.722 93.1415V93.1502C42.6525 93.7928 42.4267 94.3833 42.1489 94.8869C41.9144 95.3211 41.6539 95.6858 41.4281 95.9637C41.1416 96.3284 40.9158 96.5368 40.9158 96.5368C40.6813 96.502 40.4382 96.502 40.1951 96.5281C40.1517 96.5368 40.0909 96.5368 40.0474 96.5455C38.6581 96.7799 37.6855 98.0564 37.8332 99.4805C38.0068 100.939 39.318 101.999 40.7856 101.834C41.1589 101.79 41.4976 101.677 41.7928 101.504H41.8623L41.9144 106.132L42.0186 113.626L42.0534 116.891C42.0534 116.891 41.897 123.343 52.1783 123.586C52.1783 123.586 60.5666 123.265 60.0022 115.788C51.5531 118.619 47.0377 112.48 46.8119 112.158ZM55.8341 99.1853C55.1915 99.1853 54.6705 98.6729 54.6705 98.0303C54.6705 97.3964 55.1915 96.8841 55.8341 96.8841C56.468 96.8841 56.9803 97.3964 56.9803 98.0303C56.9803 98.6729 56.468 99.1853 55.8341 99.1853ZM45.3618 98.5774C45.3618 97.9435 45.8828 97.4225 46.5167 97.4225C47.1593 97.4225 47.6716 97.9435 47.6716 98.5774C47.6716 99.22 47.1593 99.741 46.5167 99.741C45.8828 99.741 45.3618 99.22 45.3618 98.5774Z" fill="#FBBD96"/>
<path d="M59.8641 114.645C59.9387 115.037 59.9856 115.42 60.0039 115.784C51.5565 118.621 47.0394 112.48 46.8145 112.162C47.9155 112.824 49.4838 113.496 51.4445 113.618C54.6835 113.814 57.7357 112.05 59.3318 109.278L59.7607 113.655L59.8641 114.645Z" fill="#FE9A76"/>
<path d="M61.9395 90.8131C62.009 96.3705 60.5936 95.2069 60.5936 95.2069C59.9336 93.3486 59.1521 91.9853 58.4748 91.0388C58.2056 90.6567 57.9625 90.3441 57.7367 90.0923C57.2765 89.58 56.521 89.4584 55.9392 89.8144C49.2876 93.7481 45.3105 92.0461 45.3105 92.0461C46.8388 91.4122 48.4627 90.7523 50.2081 90.0576C50.2081 90.0576 55.6092 87.713 61.6269 85.8461C61.7832 87.3744 61.87 88.6509 61.9135 89.7276C61.9308 90.1184 61.9395 90.4744 61.9395 90.8131Z" fill="#C1581E"/>
<path d="M42.7133 93.1405V93.1492C42.6438 93.7918 42.418 94.3822 42.1401 94.8859C41.9144 95.3201 41.6539 95.6848 41.4281 95.9627C41.1415 96.3274 40.9158 96.5358 40.9158 96.5358C40.6813 96.501 40.4382 96.501 40.195 96.5271C40.1516 96.5358 40.0908 96.5358 40.0474 96.5444C39.7782 96.2145 39.6306 95.8584 39.5698 95.5458C39.4396 94.9988 39.5264 94.5559 39.5264 94.5559C40.525 94.0957 41.5844 93.6355 42.7133 93.1405Z" fill="#C1581E"/>
<path d="M55.8313 96.8834C56.4661 96.8834 56.9793 97.3966 56.9793 98.0314C56.9793 98.6757 56.4661 99.1889 55.8313 99.1889C55.187 99.1889 54.6738 98.6757 54.6738 98.0314C54.6738 97.3966 55.187 96.8834 55.8313 96.8834Z" fill="black"/>
<path d="M46.5169 99.7412C47.1562 99.7412 47.6744 99.2229 47.6744 98.5837C47.6744 97.9444 47.1562 97.4261 46.5169 97.4261C45.8776 97.4261 45.3594 97.9444 45.3594 98.5837C45.3594 99.2229 45.8776 99.7412 46.5169 99.7412Z" fill="black"/>
<path d="M47.0859 106.479C48.4918 107.204 49.8968 107.713 51.3296 107.702C52.0382 107.705 52.7554 107.61 53.4501 107.37C53.8105 107.284 54.1396 107.105 54.4999 106.974C54.8516 106.826 55.1807 106.627 55.5611 106.478C55.0774 107.106 54.4721 107.674 53.7314 108.041C53.0124 108.454 52.1589 108.624 51.3218 108.635C50.4803 108.625 49.6458 108.421 48.9182 108.038C48.1931 107.66 47.5418 107.141 47.0859 106.479Z" fill="#C45F3F"/>
<path d="M53.2656 95.0446C53.5201 94.6261 54.0011 94.4176 54.4101 94.2709C54.84 94.1137 55.2984 94.0512 55.7569 94.0399C56.6696 94.0434 57.6161 94.3169 58.2778 94.9882C57.3452 95.0107 56.5688 94.9569 55.7613 94.9725C55.3601 94.9656 54.9581 94.9812 54.543 94.9847C54.114 95.0029 53.7241 94.9612 53.2656 95.0446Z" fill="#C1581E"/>
<path d="M50.502 103.286C51.3147 102.953 52.1414 102.771 52.9724 102.627L52.5973 103.094C52.4358 102.266 52.3342 101.43 52.2925 100.588C52.2543 99.7446 52.2552 98.8971 52.4062 98.0314C52.7597 98.8363 52.9629 99.6595 53.1261 100.487C53.2868 101.315 53.3875 102.151 53.4283 102.993L53.4309 103.055C53.4413 103.268 53.2763 103.45 53.0627 103.459H53.0523C52.21 103.478 51.3634 103.457 50.502 103.286Z" fill="#FE9A76"/>
<path d="M42.7637 96.6947C43.0363 96.2388 43.4384 95.8871 43.8778 95.6101C44.318 95.327 44.8164 95.1412 45.3314 95.024C45.848 94.9189 46.3873 94.8911 46.9074 94.991C47.4285 95.0657 47.926 95.2827 48.3454 95.5927C47.8149 95.6553 47.3451 95.6553 46.8788 95.7187C46.4168 95.7699 45.967 95.8307 45.5233 95.9366C44.6237 96.1137 43.7614 96.4012 42.7637 96.6947Z" fill="#C1581E"/>
<path d="M39.6367 97.8784C40.2168 97.9392 40.7343 98.3256 41.0582 98.8162C41.376 99.3155 41.5019 99.9347 41.3639 100.494C41.1589 99.9555 40.9766 99.4797 40.6935 99.0524C40.42 98.62 40.07 98.2501 39.6367 97.8784Z" fill="#C1581E"/>
<path opacity="0.44" d="M42.7133 93.1401C41.5844 93.6351 40.525 94.0953 39.5264 94.5555C39.5264 94.5555 39.4396 94.9984 39.5698 95.5455C40.0214 95.4673 40.499 95.2763 40.881 95.1894C41.3065 95.1026 41.7233 94.9984 42.1401 94.8855C42.418 94.3819 42.6438 93.7914 42.7133 93.1488V93.1401ZM61.626 85.8459C55.6083 87.7129 50.2071 90.0575 50.2071 90.0575C48.4618 90.7521 46.8379 91.4121 45.3096 92.046C44.4065 92.4194 43.5382 92.7841 42.7219 93.1401V93.1488C42.6525 93.7914 42.4267 94.3819 42.1488 94.8855C42.5483 94.7726 42.939 94.6511 43.3385 94.5208C45.4138 93.8261 47.4458 93.4006 49.608 93.1401C52.5777 92.7754 55.5909 92.0286 58.4739 91.0387C59.6461 90.6393 60.7924 90.1964 61.9125 89.7275C61.8691 88.6507 61.7823 87.3742 61.626 85.8459Z" fill="black"/>
<path d="M77.2901 83.4389V85.0628C76.3289 83.6161 73.8367 83.3547 70.728 83.7185C67.9649 84.045 64.7173 84.8856 61.6277 85.8469C55.6074 87.7138 50.2027 90.0567 50.2027 90.0567C48.4573 90.7479 46.8335 91.4104 45.3122 92.0452C44.4065 92.4186 43.539 92.7824 42.7175 93.1376C41.5878 93.6325 40.5241 94.0988 39.5255 94.5565C35.4746 96.3861 32.4692 97.9265 30.2471 99.1865C25.0387 102.146 24.1521 103.546 24.1521 103.546C24.1521 103.546 20.512 100.549 24.9458 97.2822C24.9458 97.2822 28.427 94.7623 35.4277 91.2706C41.0468 88.4615 48.9341 85.0263 59.1172 81.7682C59.5089 81.6467 59.9014 81.5164 60.293 81.3948C63.1681 80.4987 66.1544 79.9759 69.1693 79.9664C72.7348 79.9577 76.7109 80.602 77.2901 83.4389Z" fill="#00623A"/>
<path d="M77.2902 85.064C77.2902 85.064 75.946 94.1643 61.0954 100.017H61.0772C61.0303 98.5799 60.881 96.9743 60.5918 95.2098C60.5918 95.2098 62.0107 96.3674 61.936 90.8134H61.9456C68.6571 88.125 70.7289 83.7198 70.7289 83.7198C73.8368 83.3559 76.329 83.6173 77.2902 85.064Z" fill="#00623A"/>
<path d="M70.7282 83.7207C70.7282 83.7207 68.6563 88.1267 61.9448 90.8143H61.9352C61.9257 89.5448 61.8328 87.9209 61.627 85.8482C64.7174 84.8878 67.9651 84.0472 70.7282 83.7207Z" fill="black"/>
<path d="M59.1164 81.7732C48.9306 85.0295 41.046 88.4595 35.4277 91.2729L35.584 85.1337L35.6448 82.6936C35.7056 80.297 37.9373 78.5516 40.2731 79.0639L42.8782 79.6283C44.6757 80.0364 46.5166 79.0726 47.22 77.3619C47.8452 75.8423 49.278 75 50.7542 75C51.7094 75 52.6645 75.356 53.4374 76.1115L56.7198 79.3852L59.1164 81.7732Z" fill="#00623A"/>
<path d="M41.857 101.502L41.9126 106.132H41.8474C28.6867 108.913 24.1504 103.547 24.1504 103.547C24.1504 103.547 25.037 102.147 30.2454 99.1874C30.2454 99.1874 33.783 100.345 37.8339 99.4765C38.0024 100.942 39.3179 101.997 40.7837 101.829C41.1571 101.792 41.4931 101.68 41.7918 101.502L41.857 101.502Z" fill="#00623A"/>
<path d="M39.5244 94.5576C39.5244 94.5576 39.31 95.65 40.0472 96.5462C38.6561 96.7797 37.6853 98.058 37.8346 99.4768C33.7838 100.345 30.2461 99.1877 30.2461 99.1877C32.4673 97.9268 35.4736 96.3872 39.5244 94.5576Z" fill="black"/>
<path opacity="0.34" d="M59.1164 81.7733C48.9306 85.0297 41.046 88.4597 35.4277 91.2731L35.584 85.1339C38.5712 83.9442 42.1141 84.9341 45.2662 84.1874C47.932 83.5621 50.5458 82.4159 53.0119 81.2523C53.9758 80.8008 55.3651 79.9151 56.7198 79.3854L59.1164 81.7733Z" fill="black"/>
<path d="M51.2132 191.187L50.9614 186.055L50.5446 177.406L49.19 149.003L48.6082 136.811C48.3563 138.105 47.5575 139.225 46.4199 139.885L45.8208 140.232C45.3432 140.51 44.935 140.918 44.6572 141.405L39.1865 151.252C34.9056 158.754 30.8677 162.905 27.6548 165.197C27.6722 165.336 27.8545 166.882 28.089 169.279C28.7229 175.678 29.6781 188.113 28.6013 195.885C28.6013 195.885 28.3755 199.949 28.3755 201.903C28.3755 201.903 31.9184 199.028 40.1678 199.914C43.6412 200.279 47.1493 200.392 50.6314 200.027C51.0917 199.966 51.1264 199.966 51.63 199.914L51.2132 191.187ZM77.7414 162.115C77.6633 161.055 77.6198 160.048 77.6198 159.102C74.6761 157.052 70.5949 153.501 66.5918 147.761C65.5411 146.241 64.6032 144.626 63.7349 142.985C63.2312 142.047 62.4931 140.858 61.6856 140.276L60.2354 139.598C59.1847 139.095 58.3163 138.287 57.7259 137.289C55.8068 139.19 54.5998 137.124 54.5998 137.124L54.9211 147.014L55.8329 174.914L56.1194 183.745L56.3539 190.788L56.6231 199.115H56.6317C60.7217 198.464 65.489 197.509 71.2201 195.937C73.8338 195.216 76.6473 194.374 79.6865 193.367C81.0064 192.941 82.3697 192.472 83.7765 191.977C83.7765 191.977 78.5837 174.037 77.7414 162.115ZM86.8504 127.685C82.0137 113.062 60.027 113.626 60.027 113.626L59.7578 113.652L59.862 114.642C59.9402 115.041 59.9836 115.423 60.001 115.788C60.5654 123.265 52.1771 123.586 52.1771 123.586C41.8958 123.343 42.0521 116.891 42.0521 116.891L42.0174 113.626H41.8524C41.8524 113.626 17.0262 117.672 13.7525 137.697C13.4572 139.564 13.4051 141.474 13.518 143.358C13.7091 146.484 14.1606 152.459 15.1071 156.557C15.1071 156.557 16.236 150.922 27.5419 147.431C27.5767 147.422 27.6201 147.405 27.6548 147.396C30.4683 145.772 33.5336 143.028 36.3296 140.137C41.6266 134.666 45.9944 128.657 45.9944 128.657C45.9771 128.596 45.9684 128.544 45.9684 128.501L45.5429 128.301C45.1 128.084 44.9264 127.52 45.1955 127.094C45.4387 126.721 45.76 126.408 46.142 126.174L47.2449 125.488C47.7659 125.175 48.3737 124.993 48.9902 124.993L51.1351 123.933C51.4737 123.777 51.8211 123.673 52.1771 123.647C52.3334 123.612 52.4897 123.612 52.6373 123.621L57.3959 123.907C58.0037 123.942 58.5508 124.289 58.8547 124.81L63.7522 133.398C64.1517 134.076 64.6553 134.675 65.2545 135.161L68.9971 138.226L69.0058 138.235L70.4473 139.407C71.2809 140.085 72.1579 140.684 73.087 141.214C74.3027 141.9 76.1089 142.872 78.1235 143.732C78.2016 143.766 78.2798 143.801 78.3579 143.836C79.9557 144.505 81.6924 145.121 83.3597 145.46C83.3597 145.46 90.2544 146.945 92.1648 151.365C91.6698 149.029 86.8504 127.685 86.8504 127.685Z" fill="#FF9306"/>
<path d="M70.0383 168.857C67.804 170.208 65.4751 171.294 63.1175 172.316C60.7486 173.312 58.3537 174.241 55.832 174.915C58.0455 173.57 60.3865 172.481 62.7528 171.458C65.1304 170.459 67.5366 169.525 70.0383 168.857Z" fill="#AF3215"/>
<path d="M37.668 184.072C39.5983 182.569 41.7049 181.36 43.848 180.235C46.0068 179.138 48.2124 178.13 50.5491 177.408C48.5354 178.794 46.4158 179.948 44.2753 181.064C42.1244 182.16 39.9543 183.211 37.668 184.072Z" fill="#AF3215"/>
<path d="M48.6077 136.811L49.1895 149.002C47.2443 150.374 45.6639 152.319 44.5438 154.395C41.9908 159.145 38.4392 165.44 33.5678 168.037C31.8745 168.94 29.9641 169.487 28.0885 169.278C27.854 166.882 27.6717 165.336 27.6543 165.197C30.8672 162.905 34.9051 158.754 39.186 151.251L44.6567 141.404C44.9345 140.918 45.3427 140.51 45.8202 140.232L46.4194 139.885C47.557 139.225 48.3558 138.104 48.6077 136.811Z" fill="#DD5228"/>
<path d="M77.7412 162.115C75.0493 161.759 72.2445 160.864 71.272 160.343C67.4165 158.277 64.7507 154.638 62.3627 151.165C60.6694 148.699 58.0122 146.953 54.9209 147.014L54.5996 137.124C54.5996 137.124 55.8066 139.19 57.7257 137.289C58.3162 138.287 59.1845 139.095 60.2352 139.598L61.6854 140.276C62.4929 140.857 63.231 142.047 63.7347 142.985C64.603 144.626 65.5409 146.241 66.5916 147.761C70.5947 153.501 74.6759 157.052 77.6196 159.102C77.6196 160.048 77.6631 161.055 77.7412 162.115Z" fill="#DD5228"/>
<path d="M50.9612 186.055L51.213 191.187C47.097 191.621 43.1287 192.038 39.4816 194.209C37.8838 195.155 36.3729 196.232 34.9141 197.309C35.4611 196.458 35.8866 195.598 36.7115 194.287C38.509 193.045 39.7247 190.796 41.7654 189.572C44.5701 187.896 47.8525 187.132 50.9612 186.055Z" fill="#DD5228"/>
<path d="M73.0868 180.038C69.9433 180.984 68.2761 184.284 65.8881 186.325C64.2122 187.766 62.5102 189.303 60.3914 190.059C59.1497 190.493 57.7603 190.675 56.3536 190.788L56.1191 183.746C58.5939 182.487 61.034 181.097 63.2136 179.413C64.959 178.067 66.5394 176.113 68.3629 174.984C68.3195 177.537 65.4105 180.316 63.7867 182.113C62.3192 183.746 60.4001 185.161 59.0889 186.802C64.3338 186.733 67.8245 180.368 73.0868 180.038Z" fill="#DD5228"/>
<path d="M36.3306 140.136C33.5345 143.028 30.4692 145.772 27.6557 147.396C27.621 147.405 27.5776 147.422 27.5429 147.431C27.4213 145.711 27.6123 143.888 27.5429 142.108C27.4821 140.744 26.9871 139.355 27.126 137.896C27.595 139.138 29.9308 139.555 31.051 139.867C32.3535 140.232 33.6734 140.597 35.0454 140.44C35.4709 140.388 35.8964 140.249 36.3306 140.136Z" fill="#DD5228"/>
<path d="M78.1236 143.731C76.109 142.871 74.3028 141.898 73.0871 141.212C72.158 140.683 71.2809 140.084 70.4473 139.406L69.0059 138.234C70.1868 138.442 71.4286 138.408 72.7137 138.104C74.5112 137.678 75.7009 136.506 77.2552 135.837C77.8804 137.748 77.4983 140.222 77.7936 142.246C77.8631 142.732 78.002 143.244 78.1236 143.731Z" fill="#DD5228"/>
<path d="M30.668 121.178C32.8831 125.842 37.0469 129.633 42.2726 130.543C37.6052 129.567 35.5047 124.398 33.7871 120.627C33.0863 121.605 33.9243 123.051 33.7689 124.162C32.3969 124.013 31.2272 122.093 30.668 121.178Z" fill="#DD5228"/>
<path d="M63.0645 127.299C63.4917 127.106 64.2402 127.188 64.7942 127.07C66.5396 126.698 68.1808 125.521 69.6162 124.512C71.273 123.349 72.2299 121.652 73.7191 120.471C73.3814 123.882 71.8175 125.975 68.7965 127.598C67.2178 128.448 64.2211 129.203 63.0645 127.299Z" fill="#DD5228"/>
<path d="M78.3544 144.299C78.153 144.299 77.9671 144.168 77.9072 143.966C76.2417 138.369 77.8273 129.622 77.8951 129.252C77.9419 128.999 78.186 128.827 78.4387 128.878C78.6922 128.925 78.8598 129.168 78.8129 129.422C78.7964 129.51 77.2012 138.319 78.8007 143.699C78.8746 143.946 78.7339 144.206 78.4864 144.279C78.443 144.292 78.3978 144.299 78.3544 144.299Z" fill="#AF3215"/>
<path d="M27.6506 147.866C27.6419 147.866 27.6332 147.865 27.6254 147.865C27.3675 147.851 27.1704 147.631 27.1843 147.374C27.1886 147.291 27.608 138.955 25.2591 132.265C25.1732 132.022 25.3017 131.755 25.5448 131.67C25.788 131.584 26.0545 131.713 26.1396 131.956C28.5511 138.825 28.1351 147.077 28.116 147.425C28.103 147.673 27.8972 147.866 27.6506 147.866Z" fill="#AF3215"/>
<path d="M92.4001 155.567C92.4001 155.567 92.3914 155.628 92.3654 155.741C92.0701 157.026 89.9427 164.806 81.9017 161.559C81.9017 161.559 80.1911 160.899 77.6208 159.101C74.677 157.052 70.5958 153.5 66.5927 147.76C65.542 146.241 64.6041 144.626 63.7358 142.984C63.2321 142.047 62.494 140.857 61.6865 140.275L60.2363 139.598C59.1856 139.094 58.3173 138.287 57.7268 137.288C57.5271 136.941 57.3621 136.567 57.2318 136.177L55.1217 129.751L52.8466 128.908C52.6643 128.839 52.4732 128.804 52.2735 128.813L48.7914 128.943L47.3673 129.403C46.7769 129.586 46.1516 129.256 45.9953 128.657C45.978 128.596 45.9693 128.544 45.9693 128.5L45.5438 128.301C45.1009 128.084 44.9273 127.519 45.1965 127.094C45.4396 126.72 45.7609 126.408 46.143 126.173L47.2458 125.487C47.7668 125.175 48.3746 124.992 48.9911 124.992L51.136 123.933C51.4746 123.776 51.822 123.672 52.178 123.646C52.3343 123.611 52.4906 123.611 52.6382 123.62L57.3968 123.907C58.0047 123.941 58.5517 124.289 58.8556 124.81L63.7532 133.398C64.1526 134.075 64.6562 134.674 65.2554 135.161L70.4482 139.407C71.2818 140.084 72.1588 140.683 73.0879 141.213C74.3471 141.925 76.2488 142.95 78.3589 143.835C78.4196 143.861 78.4717 143.879 78.5325 143.905C80.0782 144.547 81.7541 145.129 83.3606 145.459C83.3606 145.459 90.2553 146.944 92.1657 151.364C92.1657 151.373 92.1657 151.373 92.1657 151.381C92.6867 152.562 92.8343 153.943 92.4001 155.567Z" fill="#FBBD96"/>
<path d="M57.726 137.287C55.8069 139.188 54.5999 137.122 54.5999 137.122C54.5999 137.148 54.5912 137.165 54.5652 137.191C53.8705 137.868 52.6722 137.53 52.4811 136.583C52.3248 135.776 52.0035 135.064 51.7257 134.569C51.4652 134.1 50.9702 133.787 50.4144 133.787C49.7024 133.787 49.0859 134.299 48.9556 135.003L48.6083 136.809C48.3564 138.103 47.5576 139.223 46.42 139.883L45.8209 140.23C45.3433 140.508 44.9351 140.916 44.6573 141.403L39.1866 151.25C34.9057 158.752 30.8678 162.903 27.6549 165.195C23.2871 168.313 20.3955 167.992 20.3955 167.992C14.0565 166.142 15.0117 157.337 15.0985 156.607C15.1072 156.573 15.1072 156.555 15.1072 156.555C15.1072 156.555 16.2448 150.885 27.6549 147.394C27.7331 147.351 27.8199 147.299 27.8981 147.247C35.9824 142.427 45.9945 128.655 45.9945 128.655C46.1508 129.254 46.776 129.584 47.3665 129.402L48.7906 128.942L52.2727 128.811C52.4724 128.803 52.6635 128.837 52.8458 128.907L55.1209 129.749L57.231 136.175C57.3613 136.566 57.5263 136.939 57.726 137.287Z" fill="#FBBD96"/>
<path d="M54.5994 137.585C54.5698 137.585 54.5394 137.583 54.509 137.577C54.2564 137.527 54.0914 137.281 54.1409 137.029C54.2346 136.553 54.9389 132.34 50.9375 130.961C50.6944 130.876 50.565 130.611 50.6483 130.368C50.7326 130.124 50.9974 129.995 51.2414 130.078C55.9887 131.715 55.1664 136.651 55.057 137.208C55.0136 137.432 54.8182 137.585 54.5994 137.585Z" fill="#C45F3F"/>
<path d="M55.9702 126.357C55.8808 126.357 55.7896 126.332 55.7097 126.278L54.8231 125.68C54.6165 125.535 54.3768 125.461 54.1224 125.461H48.9887C48.7308 125.461 48.5215 125.253 48.5215 124.994C48.5215 124.735 48.7299 124.527 48.9887 124.527H54.1224C54.5687 124.527 54.9942 124.66 55.3511 124.91L56.2316 125.503C56.4452 125.647 56.5017 125.937 56.3575 126.151C56.2681 126.285 56.1204 126.357 55.9702 126.357Z" fill="#C45F3F"/>
<path d="M57.726 137.756C57.5636 137.756 57.4056 137.671 57.3196 137.52C57.1042 137.14 56.9253 136.739 56.7881 136.327L54.7484 130.107L52.6826 129.346C52.5506 129.297 52.4134 129.276 52.2953 129.281L48.874 129.409L47.5063 129.847C47.1025 129.975 46.6579 129.933 46.288 129.731C45.9155 129.527 45.6507 129.187 45.5404 128.776C45.5195 128.716 45.503 128.633 45.4987 128.551C45.4883 128.484 45.4883 128.426 45.4883 128.386C45.4883 127.799 45.8156 127.271 46.3436 127.007L47.1468 126.606C47.469 126.445 47.8268 126.354 48.181 126.343C49.2526 126.306 53.4198 126.165 53.5631 126.165C53.821 126.165 54.0294 126.374 54.0294 126.632C54.0294 126.891 53.821 127.099 53.5631 127.099C53.412 127.1 49.6703 127.225 48.2123 127.276C47.9909 127.283 47.7677 127.34 47.5654 127.442L46.7622 127.843C46.5529 127.947 46.4235 128.155 46.4235 128.386C46.4322 128.423 46.4322 128.461 46.4322 128.498C46.4869 128.699 46.5919 128.833 46.7387 128.913C46.8881 128.994 47.06 129.01 47.225 128.959L48.6517 128.502C48.6916 128.489 48.7342 128.481 48.7767 128.48L52.258 128.349C52.4985 128.335 52.759 128.379 53.0056 128.471L55.2833 129.31C55.417 129.36 55.5212 129.468 55.5655 129.603L57.6747 136.034C57.792 136.387 57.9465 136.733 58.1324 137.06C58.2591 137.284 58.181 137.568 57.9561 137.696C57.8831 137.736 57.8041 137.756 57.726 137.756Z" fill="#C45F3F"/>
<path d="M58.8553 125.275C58.6955 125.275 58.54 125.193 58.4523 125.045C58.2187 124.649 57.8141 124.396 57.3695 124.368L52.6109 124.088C52.4659 124.079 52.3548 124.082 52.2671 124.1C51.9267 124.128 51.6384 124.209 51.3353 124.352C51.1026 124.464 50.8247 124.363 50.7144 124.129C50.605 123.897 50.704 123.619 50.9376 123.508C51.3449 123.316 51.74 123.207 52.1464 123.176C52.2645 123.152 52.4451 123.143 52.6682 123.157L57.4277 123.437C58.1832 123.484 58.8674 123.908 59.2582 124.571C59.3893 124.794 59.3155 125.079 59.0932 125.21C59.0176 125.254 58.936 125.275 58.8553 125.275Z" fill="#C45F3F"/>
<path d="M27.3588 151.147C26.3862 152.38 24.3282 152.537 22.9128 153.093C20.603 154.004 17.7027 155.915 15.0977 156.609C15.1063 156.575 15.1063 156.557 15.1063 156.557C15.1063 156.557 16.2439 150.887 27.654 147.396C27.7322 147.353 27.819 147.301 27.8972 147.249C28.1316 148.612 28.1577 150.131 27.3588 151.147Z" fill="#FE9A76"/>
<path d="M92.3989 155.566C92.3989 155.566 92.3902 155.627 92.3641 155.74C91.9386 155.688 91.461 155.471 90.94 155.071C88.7691 153.387 88.6736 150.59 85.8862 149.479C82.3173 148.046 79.8077 146.535 78.5312 143.904C80.0769 144.547 81.7528 145.129 83.3593 145.459C83.3593 145.459 90.254 146.943 92.1644 151.363C92.1644 151.372 92.1644 151.372 92.1644 151.381C92.6854 152.562 92.833 153.942 92.3989 155.566Z" fill="#FE9A76"/>
</g>
<path d="M18.4682 205.354H26.261C26.6392 205.354 26.946 205.655 26.946 206.027V206.036C26.946 206.407 26.6392 206.709 26.261 206.709H24.0853C23.7071 206.709 23.4003 207.01 23.4003 207.381V207.391C23.4003 207.762 23.7071 208.063 24.0853 208.063H73.4868C73.865 208.063 74.1717 208.364 74.1717 208.735V208.745C74.1717 209.116 73.865 209.417 73.4868 209.417H34.3479C33.9697 209.417 33.6629 209.718 33.6629 210.089V210.099C33.6629 210.47 33.9697 210.771 34.3479 210.771H194.22C194.598 210.771 194.905 210.47 194.905 210.099V210.089C194.905 209.718 194.598 209.417 194.22 209.417H173.979C173.601 209.417 173.294 209.116 173.294 208.745V208.735C173.294 208.364 173.601 208.063 173.979 208.063H244.585C244.963 208.063 245.27 207.762 245.27 207.391V207.381C245.27 207.01 244.963 206.709 244.585 206.709H242.409C242.031 206.709 241.724 206.407 241.724 206.036V206.027C241.724 205.655 242.031 205.354 242.409 205.354H256.318C256.697 205.354 257.003 205.053 257.003 204.682V204.672C257.003 204.301 256.697 204 256.318 204H18.4682C18.09 204 17.7832 204.301 17.7832 204.672V204.682C17.7837 205.054 18.09 205.354 18.4682 205.354Z" fill="#386693"/>
<path d="M247.523 208.063H252.171C252.549 208.063 252.856 207.762 252.856 207.391V207.381C252.856 207.01 252.549 206.709 252.171 206.709H247.523C247.145 206.709 246.838 207.01 246.838 207.381V207.391C246.838 207.762 247.145 208.063 247.523 208.063Z" fill="#386693"/>
<path d="M258.68 204.682C258.68 205.053 258.986 205.354 259.365 205.354H260.778C261.157 205.354 261.463 205.053 261.463 204.682C261.463 204.311 261.157 204.01 260.778 204.01H259.365C258.986 204.01 258.68 204.31 258.68 204.682Z" fill="#386693"/>
<path d="M12.1479 205.354H15.4826C15.8608 205.354 16.1676 205.053 16.1676 204.682V204.672C16.1676 204.301 15.8608 204 15.4826 204H12.1479C11.7697 204 11.4629 204.301 11.4629 204.672V204.682C11.4629 205.054 11.7697 205.354 12.1479 205.354Z" fill="#386693"/>
<path d="M26.6869 210.771H30.9491C31.3273 210.771 31.6341 210.47 31.6341 210.099V210.089C31.6341 209.718 31.3273 209.417 30.9491 209.417H26.6869C26.3087 209.417 26.002 209.718 26.002 210.089V210.099C26.002 210.47 26.3087 210.771 26.6869 210.771Z" fill="#386693"/>
<path d="M219.489 210.771H198.16C197.779 210.771 197.471 210.468 197.471 210.094C197.471 209.72 197.779 209.417 198.16 209.417H219.489C219.87 209.417 220.178 209.72 220.178 210.094C220.178 210.467 219.869 210.771 219.489 210.771Z" fill="#386693"/>
<path d="M232.936 210.771H224.115C223.734 210.771 223.426 210.468 223.426 210.094C223.426 209.72 223.734 209.417 224.115 209.417H232.936C233.317 209.417 233.625 209.72 233.625 210.094C233.625 210.467 233.316 210.771 232.936 210.771Z" fill="#386693"/>
<path d="M134.834 116.411C130.041 119.393 125.303 122.512 121.147 126.298C116.991 130.083 113.414 134.581 111.348 139.752C108.005 148.12 108.999 158.02 113.942 165.594C127.518 153.305 135.364 134.484 134.834 116.411Z" fill="#3B9C0B"/>
<path d="M108.321 172.276C103.012 170.908 98.4278 167.333 95.4636 162.818C92.4994 158.303 91.0921 152.908 90.9769 147.546C90.8611 142.183 91.9935 136.845 93.7971 131.779C98.2026 137.868 102.809 144.056 105.86 150.889C108.872 157.636 109.903 165.08 108.321 172.276Z" fill="#3B9C0B"/>
<path d="M118.587 171.93C118.398 166.199 120.649 160.509 124.357 156.063C128.065 151.617 133.158 148.376 138.66 146.373C144.161 144.37 150.065 143.565 155.935 143.497C147.393 156.726 133.621 166.55 118.587 171.93Z" fill="#3B9C0B"/>
<path d="M115.398 178.023C115.203 178.023 115.026 177.89 114.983 177.696C113.043 169.084 113.181 160.012 115.381 151.46C117.58 142.908 121.849 134.85 127.725 128.156C127.879 127.982 128.148 127.962 128.326 128.111C128.505 128.261 128.526 128.523 128.372 128.698C122.582 135.294 118.375 143.235 116.207 151.662C114.039 160.09 113.904 169.03 115.815 177.517C115.866 177.741 115.72 177.963 115.491 178.012C115.459 178.02 115.429 178.023 115.398 178.023Z" fill="#00623A"/>
<path d="M114.958 181.193C114.918 181.193 114.876 181.187 114.835 181.175C114.61 181.109 114.482 180.878 114.549 180.658C118.878 166.552 129.591 154.358 143.208 148.039C143.419 147.94 143.674 148.029 143.775 148.236C143.876 148.444 143.785 148.692 143.572 148.791C130.171 155.011 119.626 167.013 115.365 180.897C115.311 181.076 115.141 181.193 114.958 181.193Z" fill="#00623A"/>
<path d="M117.536 183.455C117.428 183.455 117.321 183.416 117.238 183.336C104.962 171.603 96.8671 155.993 94.4457 139.382C94.4126 139.155 94.5746 138.944 94.8076 138.911C95.0386 138.881 95.2561 139.037 95.2896 139.265C97.6848 155.695 105.691 171.135 117.834 182.741C118.002 182.902 118.005 183.166 117.841 183.33C117.756 183.413 117.646 183.455 117.536 183.455Z" fill="#00623A"/>
<path d="M122.907 203.979H107.592L96.8906 175.12H133.608L122.907 203.979Z" fill="#00623A"/>
<path d="M109.375 195.801L101.706 175.12H96.8906L107.592 203.979H122.907L124.778 198.934H113.948C111.9 198.934 110.072 197.681 109.375 195.801Z" fill="#386693"/>
<path d="M34.3408 131.843C33.4249 148.084 41.2052 171.474 51.7182 184.087C52.6336 167.847 44.8538 144.456 34.3408 131.843Z" fill="#00623A"/>
<path d="M69.095 131.843C70.011 148.084 62.2307 171.474 51.7177 184.087C50.8023 167.847 58.5821 144.456 69.095 131.843Z" fill="#00623A"/>
<path d="M51.7176 124.793C45.2322 141.167 45.2322 167.714 51.7176 184.088C58.203 167.714 58.203 141.167 51.7176 124.793Z" fill="#3B9C0B"/>
<path d="M19.4629 139.089C23.4476 154.881 37.8885 175.027 51.7174 184.086C47.7321 168.294 33.2913 148.148 19.4629 139.089Z" fill="#3B9C0B"/>
<path d="M83.9713 139.089C79.986 154.881 65.5457 175.027 51.7168 184.086C55.702 168.294 70.1428 148.148 83.9713 139.089Z" fill="#3B9C0B"/>
<path d="M59.3736 203.981H44.0586L33.3574 175.122H70.0748L59.3736 203.981Z" fill="#00623A"/>
<path d="M45.8414 195.803L38.1725 175.122H33.3574L44.0586 203.981H59.374L61.2448 198.936H50.4152C48.3673 198.936 46.5389 197.684 45.8414 195.803Z" fill="#386693"/>
<path d="M170.879 170.83C169.252 167.206 169.302 162.9 171.011 159.313C171.552 158.179 172.255 157.097 172.527 155.875C173.48 151.583 168.899 147.295 170.334 143.133C171.443 139.915 175.542 138.679 177.403 135.811C178.806 133.649 178.729 130.914 179.267 128.409C179.806 125.904 181.559 123.182 184.179 123.21C186.491 123.235 188.219 125.529 188.451 127.776C188.684 130.023 187.836 132.224 187.106 134.366C186.375 136.509 185.749 138.835 186.418 140.996C187.351 144.011 190.694 146.467 189.996 149.542C189.549 151.509 187.578 152.742 186.496 154.457C185.108 156.658 185.295 159.463 185.817 161.997C186.339 164.532 187.155 167.078 186.869 169.648C186.481 173.131 183.296 177.186 179.606 177.89C175.931 178.59 172.151 173.664 170.879 170.83Z" fill="#3B9C0B"/>
<path d="M189.995 149.542C190.346 147.992 189.671 146.599 188.796 145.213C187.313 145.723 185.764 146.064 184.263 146.533C182.489 147.087 180.695 147.922 179.414 149.235C178.175 155.916 177.269 162.534 176.579 167.717C176.422 162.175 176.953 154.927 178.303 147.766C177.56 146.35 176.311 145.139 175.057 144.08C173.897 143.1 172.665 142.13 171.683 140.994C171.096 141.618 170.616 142.311 170.332 143.134C168.897 147.295 173.478 151.584 172.524 155.875C172.253 157.098 171.55 158.179 171.009 159.313C169.3 162.901 169.251 167.207 170.877 170.831C172.149 173.664 175.929 178.59 179.604 177.89C183.294 177.186 186.479 173.131 186.867 169.647C187.153 167.077 186.337 164.531 185.815 161.997C185.292 159.462 185.106 156.658 186.494 154.457C187.577 152.741 189.548 151.509 189.995 149.542Z" fill="#00623A"/>
<path d="M179.414 149.234C179.523 148.646 179.634 148.057 179.748 147.469C181.137 140.194 182.93 133.001 184.329 127.481C182.065 132.718 179.805 139.881 178.404 147.223C178.369 147.404 178.337 147.585 178.303 147.767C178.63 148.39 178.86 149.052 178.947 149.759C179.093 149.575 179.251 149.402 179.414 149.234Z" fill="#00623A"/>
<path d="M176.579 167.717C177.269 162.533 178.175 155.915 179.414 149.234C179.251 149.402 179.093 149.575 178.947 149.758C178.859 149.051 178.629 148.388 178.303 147.766C176.953 154.926 176.423 162.174 176.579 167.717Z" fill="#386693"/>
<path d="M164.614 174.492C164.587 171.876 162.377 169.842 160.33 168.157C158.282 166.47 156.056 164.467 155.978 161.853C155.908 159.526 157.592 157.501 158.038 155.214C158.564 152.517 157.324 149.809 155.952 147.413C154.58 145.017 153.002 142.597 152.772 139.86C152.543 137.124 154.255 133.991 157.052 133.724C159.512 133.49 161.621 135.499 162.775 137.635C163.929 139.771 164.546 142.204 166.075 144.103C168.502 147.116 173.025 148.552 174.196 152.212C175.14 155.159 173.449 158.249 173.218 161.328C172.681 168.464 179.329 173.684 180.248 180.512C181.303 188.349 172.847 193.479 166.914 187.595C165.362 186.056 164.064 184.052 163.642 181.912C163.111 179.228 164.641 177.087 164.614 174.492Z" fill="#3B9C0B"/>
<path d="M180.248 180.513C179.824 177.363 178.182 174.555 176.588 171.745C172.502 174.078 169.368 178.448 168.991 183.057C168.807 185.306 169.207 187.584 170.086 189.67C175.437 191.659 181.125 187.023 180.248 180.513Z" fill="#00623A"/>
<path d="M178.906 189.222C176.512 187.52 174.877 184.836 174.487 181.969C174.097 179.103 174.958 176.094 176.814 173.841C178.595 171.678 181.27 170.132 182.3 167.544C183.216 165.241 182.604 162.664 182.111 160.241C181.618 157.817 181.308 155.11 182.695 153.043C185.154 149.38 191.042 150.098 194.569 147.394C196.478 145.931 197.469 143.636 198.868 141.7C200.269 139.764 202.576 138.024 204.929 138.604C207.213 139.168 208.443 141.764 208.25 144.057C208.056 146.35 206.812 148.412 205.654 150.416C204.496 152.42 203.364 154.575 203.431 156.875C203.491 158.945 204.519 161.064 203.8 163.013C203.123 164.849 201.132 165.853 199.266 166.554C197.401 167.255 195.359 167.921 194.198 169.51C193.179 170.905 193.058 172.747 193.251 174.451C193.444 176.155 193.912 177.832 193.931 179.546C193.972 183.389 191.522 187.151 187.94 188.743C185.144 189.986 181.39 190.987 178.906 189.222Z" fill="#3B9C0B"/>
<path d="M181.533 187.135C182.75 183.966 184.174 180.332 185.828 176.517C187.479 172.701 189.359 168.706 191.393 164.786C193.432 160.868 195.625 157.029 197.804 153.475C199.981 149.919 202.144 146.652 204.045 143.822C201.716 146.326 199.204 149.385 196.778 152.83C194.348 156.273 192.006 160.1 189.942 164.066C187.882 168.034 186.101 172.139 184.689 176.087C183.274 180.034 182.228 183.821 181.533 187.135Z" fill="#00623A"/>
<path d="M170.367 176.466C169.721 171.033 168.227 163.99 166.06 157.136C163.912 150.276 161.098 143.629 158.51 138.78C160.292 143.966 162.669 150.701 164.803 157.513C166.954 164.32 168.859 171.197 170.367 176.466Z" fill="#00623A"/>
<path d="M186.858 203.978H168.987L160.971 182.358H194.876L186.858 203.978Z" fill="#00623A"/>
<path d="M170.323 197.851L164.578 182.358H160.971L168.987 203.978H186.858L188.26 200.199H173.749C172.215 200.199 170.845 199.26 170.323 197.851Z" fill="#386693"/>
<path d="M227.379 187.002C233.602 177.444 236.817 166.044 236.481 154.72C236.146 143.397 232.477 132.139 225.698 122.948C227.678 138.031 220.887 153.234 222.842 168.32C223.662 174.654 225.065 181.033 227.379 187.002Z" fill="#00623A"/>
<path d="M213.384 130.646C222.879 147.271 227.431 166.553 226.346 185.56C220.022 182.998 215.721 177.26 214.007 170.785C212.293 164.31 212.719 157.496 213.336 150.835C213.952 144.174 214.394 137.26 213.384 130.646Z" fill="#3B9C0B"/>
<path d="M225.814 187.013C226.921 166.531 238.565 146.851 256.182 135.691C249.181 145.578 248.382 158.984 243.18 169.879C239.596 177.383 232.929 182.51 225.814 187.013Z" fill="#3B9C0B"/>
<path d="M232.891 203.979H219.822L210.691 179.354H242.022L232.891 203.979Z" fill="#00623A"/>
<path d="M221.344 197.001L214.8 179.354H210.691L219.822 203.979H232.891L234.487 199.674H225.246C223.499 199.674 221.939 198.605 221.344 197.001Z" fill="#386693"/>
<defs>
<clipPath id="clip0_4005_6255">
<rect width="98" height="132" fill="white" transform="translate(13.4629 75)"/>
</clipPath>
</defs>
</svg>
