<svg width="270" height="206" viewBox="0 0 270 206" fill="none" xmlns="http://www.w3.org/2000/svg">
<path d="M253.87 198.942H25.8024C13.8816 189.02 6.73873 172.764 6 157.055C5.26079 141.347 11.326 125.429 22.2607 114.381C26.4184 110.18 31.4238 106.376 33.3582 100.733C36.2202 92.3855 31.3837 83.6074 28.8371 75.1529C23.6197 57.8328 28.8158 37.6851 41.7057 25.2577C54.5956 12.8304 74.5542 8.72469 91.1339 15.0903C104.185 20.1012 114.342 30.5942 125.33 39.3727C136.318 48.1513 149.875 55.6951 163.589 53.1401C179.51 50.1737 190.437 34.6911 205.655 29.0596C220.055 23.731 236.9 28.3213 248.447 38.6142C259.994 48.9071 266.596 64.1559 268.791 79.6667C270.986 95.1775 269.098 111.018 265.851 126.334C260.95 149.455 254.219 175.286 253.87 198.942Z" fill="#AAF1F7"/>
<path d="M142.884 37.3235C150.406 41.4679 159.648 43.423 167.778 40.5794C175.909 37.7357 182.165 29.2066 180.433 20.9417C179.522 16.5943 176.605 12.8179 172.984 10.1384C169.363 7.45885 165.068 5.77996 160.717 4.50684C153.468 2.38712 145.577 1.33579 138.389 3.64364C132.077 5.67021 123.367 13.0065 124.487 20.3883C125.503 27.0942 137.379 34.2903 142.884 37.3235Z" fill="#AAF1F7"/>
<path d="M26.132 92.8534C26.4431 96.2974 26.31 99.8751 24.9005 103.046C23.491 106.218 20.6106 108.922 17.1091 109.425C12.9613 110.021 8.86546 107.408 6.6332 103.942C4.40048 100.475 3.68062 96.3006 3.2034 92.2323C2.60297 87.1149 2.36931 81.6706 4.77999 77.0899C7.08636 72.7066 14.5842 68.0517 18.7961 72.5125C23.4443 77.4348 25.551 86.4172 26.132 92.8534Z" fill="#AAF1F7"/>
<path d="M13.1891 66.6056C16.0218 66.8569 18.8597 65.1384 20.1195 62.647C23.159 56.6374 16.998 48.3019 10.2564 51.9041C4.07081 55.2093 5.96509 65.9647 13.1891 66.6056Z" fill="#AAF1F7"/>
<path d="M252.288 37.5096C253.743 38.6509 255.417 39.8585 257.271 39.6505C259.344 39.4181 260.826 37.3768 261.013 35.347C261.199 33.3172 260.38 31.3321 259.425 29.5204C257.727 26.2968 255.542 23.3171 252.966 20.7077C250.942 18.659 248.601 16.7957 245.82 15.9459C243.039 15.096 239.747 15.4234 237.593 17.3412C234.275 20.2941 235.695 24.4778 238.697 26.8515C243.213 30.4214 247.758 33.9568 252.288 37.5096Z" fill="#AAF1F7"/>
<path d="M223.423 12.0293C222.12 13.6681 221.617 15.9437 222.321 17.9016C223.026 19.8594 225.007 21.3705 227.132 21.3631C229.81 21.3543 232.078 18.9487 232.389 16.3499C232.651 14.1666 231.596 10.7696 229.535 9.5578C227.542 8.38658 224.609 10.5367 223.423 12.0293Z" fill="#AAF1F7"/>
<path d="M261.287 45.5039C261.78 46.878 263.455 47.6933 264.902 47.3461C266.35 46.9988 267.428 45.6049 267.482 44.1496C267.695 38.3683 259.69 41.0538 261.287 45.5039Z" fill="#AAF1F7"/>
<path d="M253.277 84.9871H19.2617V92.7581H253.277V84.9871Z" fill="#00623A"/>
<path d="M126.333 0C121.682 2.89346 117.084 5.92017 113.051 9.59383C109.018 13.2675 105.547 17.6328 103.542 22.6506C100.298 30.7707 101.262 40.3784 106.06 47.728C119.234 35.8028 126.848 17.5383 126.333 0Z" fill="#3B9C0B"/>
<path d="M100.605 54.2126C95.4526 52.885 91.0041 49.4152 88.1276 45.0337C85.251 40.6523 83.8854 35.4169 83.7735 30.2133C83.6612 25.0096 84.7601 19.8291 86.5104 14.9132C90.7856 20.8214 95.2553 26.8264 98.2164 33.4581C101.14 40.0049 102.14 47.2291 100.605 54.2126Z" fill="#3B9C0B"/>
<path d="M110.567 53.8772C110.384 48.3148 112.568 42.7935 116.167 38.4789C119.765 34.1648 124.708 31.0191 130.046 29.0755C135.385 27.1319 141.114 26.3504 146.811 26.2844C138.522 39.1221 125.156 48.6556 110.567 53.8772Z" fill="#3B9C0B"/>
<path d="M107.473 59.789C107.283 59.789 107.111 59.6604 107.069 59.4718C105.187 51.1151 105.321 42.3112 107.456 34.0117C109.59 25.7127 113.733 17.8927 119.435 11.3971C119.584 11.2278 119.845 11.2085 120.018 11.3533C120.192 11.4985 120.212 11.7535 120.063 11.9227C114.444 18.3238 110.361 26.0299 108.258 34.2081C106.154 42.3868 106.022 51.0626 107.877 59.298C107.926 59.5161 107.785 59.7314 107.562 59.7789C107.532 59.7863 107.502 59.789 107.473 59.789Z" fill="#00623A"/>
<path d="M107.045 62.8653C107.006 62.8653 106.966 62.8597 106.926 62.8482C106.707 62.7841 106.583 62.5591 106.648 62.3456C110.849 48.6571 121.246 36.8237 134.459 30.6919C134.664 30.596 134.912 30.6817 135.01 30.8832C135.108 31.0847 135.02 31.3254 134.813 31.4213C121.808 37.4573 111.575 49.1044 107.44 62.5775C107.387 62.7518 107.223 62.8653 107.045 62.8653Z" fill="#00623A"/>
<path d="M109.546 65.0615C109.442 65.0615 109.337 65.0232 109.257 64.9462C97.3439 53.5596 89.4887 38.4113 87.1389 22.2918C87.1068 22.071 87.264 21.8667 87.4901 21.8349C87.7143 21.8058 87.9253 21.9566 87.9579 22.1779C90.2822 38.1222 98.0519 53.1059 109.836 64.3689C109.999 64.5248 110.002 64.7807 109.842 64.9398C109.76 65.0209 109.653 65.0615 109.546 65.0615Z" fill="#00623A"/>
<path d="M114.759 84.978H99.8965L89.5117 56.9725H125.143L114.759 84.978Z" fill="#00623A"/>
<path d="M101.626 77.0418L94.1844 56.9725H89.5117L99.8965 84.978H114.759L116.574 80.0824H106.065C104.077 80.0824 102.303 78.8669 101.626 77.0418Z" fill="#386693"/>
<path d="M28.8113 14.9752C27.9225 30.7355 35.4727 53.434 45.6748 65.6737C46.5632 49.9139 39.0134 27.2153 28.8113 14.9752Z" fill="#00623A"/>
<path d="M62.538 14.9752C63.4268 30.7355 55.8766 53.434 45.6745 65.6737C44.7862 49.9139 52.3359 27.2153 62.538 14.9752Z" fill="#00623A"/>
<path d="M45.6753 8.13342C39.3817 24.0228 39.3817 49.7849 45.6753 65.6747C51.969 49.7849 51.969 24.0228 45.6753 8.13342Z" fill="#3B9C0B"/>
<path d="M14.375 22.0068C18.2419 37.3322 32.2557 56.8828 45.6757 65.6738C41.8083 50.3489 27.7945 30.7983 14.375 22.0068Z" fill="#3B9C0B"/>
<path d="M76.9764 22.0068C73.1091 37.3322 59.0957 56.8828 45.6758 65.6738C49.5432 50.3489 63.557 30.7983 76.9764 22.0068Z" fill="#3B9C0B"/>
<path d="M53.1062 84.9798H38.2442L27.8594 56.9744H63.491L53.1062 84.9798Z" fill="#00623A"/>
<path d="M39.9742 77.0437L32.5321 56.9744H27.8594L38.2442 84.9798H53.1067L54.9221 80.0842H44.4127C42.4254 80.0842 40.6511 78.8687 39.9742 77.0437Z" fill="#386693"/>
<path d="M161.315 52.81C159.736 49.2931 159.784 45.1145 161.443 41.6331C161.968 40.5325 162.65 39.483 162.914 38.2966C163.839 34.1318 159.393 29.9708 160.786 25.9319C161.862 22.8089 165.84 21.6095 167.646 18.8258C169.007 16.7277 168.932 14.0741 169.455 11.6431C169.978 9.21214 171.679 6.57045 174.221 6.59812C176.465 6.62255 178.142 8.84833 178.367 11.0289C178.593 13.2095 177.77 15.3449 177.061 17.424C176.353 19.5036 175.745 21.7603 176.394 23.8583C177.299 26.7836 180.544 29.1671 179.866 32.1509C179.433 34.0599 177.52 35.2565 176.47 36.9211C175.123 39.0569 175.304 41.7784 175.811 44.238C176.318 46.6975 177.109 49.1681 176.832 51.6623C176.456 55.0427 173.365 58.9778 169.783 59.6607C166.217 60.3399 162.549 55.56 161.315 52.81Z" fill="#3B9C0B"/>
<path d="M179.865 32.1504C180.206 30.6467 179.551 29.2952 178.701 27.9501C177.263 28.4449 175.759 28.7755 174.303 29.2306C172.581 29.7683 170.84 30.5785 169.597 31.8525C168.395 38.3366 167.516 44.7585 166.846 49.7887C166.694 44.4099 167.209 37.3761 168.519 30.4272C167.798 29.0531 166.586 27.8782 165.369 26.8504C164.243 25.8996 163.048 24.9585 162.095 23.856C161.525 24.4614 161.059 25.1337 160.783 25.9319C159.391 29.9707 163.837 34.1322 162.911 38.2965C162.648 39.4829 161.965 40.5324 161.441 41.6331C159.782 45.1144 159.735 49.293 161.313 52.8099C162.547 55.5599 166.215 60.3398 169.781 59.6601C173.363 58.9772 176.454 55.0421 176.83 51.6617C177.107 49.1676 176.316 46.6965 175.809 44.2374C175.302 41.7779 175.121 39.0564 176.468 36.9205C177.518 35.2555 179.432 34.0594 179.865 32.1504Z" fill="#00623A"/>
<path d="M169.598 31.8522C169.704 31.2813 169.811 30.71 169.922 30.1392C171.27 23.0791 173.01 16.0989 174.368 10.7417C172.171 15.824 169.978 22.7757 168.618 29.8998C168.584 30.0755 168.553 30.2517 168.52 30.4278C168.837 31.0323 169.06 31.6751 169.145 32.3617C169.287 32.1823 169.44 32.0145 169.598 31.8522Z" fill="#00623A"/>
<path d="M166.846 49.7884C167.515 44.7581 168.395 38.3358 169.597 31.8522C169.439 32.0149 169.285 32.1828 169.144 32.3608C169.059 31.6742 168.835 31.0314 168.519 30.4269C167.209 37.3758 166.694 44.4095 166.846 49.7884Z" fill="#386693"/>
<path d="M155.234 56.3635C155.207 53.8251 153.063 51.8516 151.076 50.2155C149.089 48.5791 146.929 46.6355 146.853 44.098C146.785 41.8404 148.42 39.8747 148.852 37.6559C149.363 35.0386 148.159 32.4108 146.828 30.0854C145.496 27.7605 143.965 25.4116 143.743 22.7561C143.52 20.1005 145.181 17.06 147.895 16.8013C150.283 16.574 152.329 18.5235 153.449 20.5962C154.569 22.6694 155.168 25.0307 156.652 26.8728C159.007 29.7972 163.396 31.1911 164.533 34.7421C165.448 37.6028 163.808 40.6005 163.583 43.5894C163.062 50.5139 169.513 55.5792 170.406 62.2057C171.429 69.8113 163.223 74.7889 157.466 69.079C155.96 67.5855 154.7 65.6405 154.29 63.5646C153.776 60.9598 155.26 58.8816 155.234 56.3635Z" fill="#3B9C0B"/>
<path d="M170.406 62.2059C169.995 59.1492 168.401 56.425 166.854 53.6975C162.889 55.9616 159.848 60.2024 159.482 64.6747C159.304 66.8575 159.691 69.0681 160.544 71.0924C165.737 73.0226 171.257 68.524 170.406 62.2059Z" fill="#00623A"/>
<path d="M169.103 70.6573C166.78 69.0061 165.193 66.4013 164.814 63.6194C164.436 60.8376 165.271 57.9183 167.072 55.7317C168.801 53.6327 171.397 52.1323 172.396 49.6211C173.285 47.3856 172.691 44.8855 172.213 42.5334C171.735 40.1813 171.433 37.5543 172.78 35.5485C175.166 31.9938 180.879 32.691 184.302 30.0669C186.155 28.6466 187.116 26.4199 188.475 24.5409C189.834 22.6619 192.073 20.9733 194.356 21.5368C196.572 22.0837 197.766 24.6027 197.579 26.8285C197.391 29.0538 196.183 31.0541 195.06 32.999C193.936 34.9435 192.837 37.0351 192.903 39.2674C192.961 41.2764 193.958 43.3325 193.261 45.2235C192.604 47.0057 190.671 47.98 188.861 48.6601C187.051 49.3403 185.07 49.9863 183.943 51.5282C182.953 52.8825 182.836 54.6698 183.024 56.3233C183.211 57.9768 183.665 59.6045 183.683 61.2678C183.723 64.9972 181.345 68.6483 177.87 70.1925C175.156 71.3988 171.513 72.3708 169.103 70.6573Z" fill="#3B9C0B"/>
<path d="M171.652 68.6327C172.833 65.5571 174.215 62.0306 175.82 58.3288C177.422 54.6261 179.246 50.7491 181.221 46.9449C183.2 43.1431 185.327 39.4169 187.442 35.9683C189.554 32.5178 191.653 29.3467 193.499 26.6008C191.238 29.0304 188.8 31.999 186.446 35.3425C184.089 38.6833 181.816 42.397 179.812 46.2459C177.813 50.0971 176.085 54.0806 174.715 57.9115C173.341 61.7419 172.326 65.4165 171.652 68.6327Z" fill="#00623A"/>
<path d="M160.817 58.2795C160.19 53.0081 158.74 46.1726 156.638 39.5211C154.553 32.8641 151.822 26.4136 149.311 21.708C151.04 26.7405 153.347 33.2768 155.418 39.8877C157.506 46.4931 159.354 53.1671 160.817 58.2795Z" fill="#00623A"/>
<path d="M176.821 84.9778H159.479L151.699 63.9973H184.602L176.821 84.9778Z" fill="#00623A"/>
<path d="M160.775 79.0322L155.2 63.9973H151.699L159.479 84.9778H176.821L178.181 81.3101H164.1C162.611 81.3101 161.282 80.3994 160.775 79.0322Z" fill="#386693"/>
<path d="M216.144 68.5027C222.184 59.2271 225.303 48.1642 224.978 37.1755C224.652 26.1868 221.092 15.2622 214.514 6.34253C216.435 20.9795 209.845 35.7331 211.741 50.3733C212.538 56.5194 213.899 62.7098 216.144 68.5027Z" fill="#00623A"/>
<path d="M202.562 13.8127C211.776 29.946 216.193 48.6583 215.141 67.1035C209.004 64.6168 204.83 59.0484 203.167 52.7649C201.503 46.4814 201.916 39.8686 202.515 33.4048C203.113 26.941 203.542 20.2318 202.562 13.8127Z" fill="#3B9C0B"/>
<path d="M214.625 68.5128C215.698 48.6363 226.999 29.5386 244.095 18.7085C237.301 28.3028 236.525 41.3125 231.477 51.8853C227.999 59.168 221.529 64.1434 214.625 68.5128Z" fill="#3B9C0B"/>
<path d="M221.492 84.9774H208.81L199.949 61.0809H230.353L221.492 84.9774Z" fill="#00623A"/>
<path d="M210.287 78.2056L203.936 61.0809H199.949L208.81 84.9774H221.492L223.041 80.8002H214.073C212.378 80.8002 210.865 79.7627 210.287 78.2056Z" fill="#386693"/>
<path d="M122.422 159.887H77.2676V198.951H122.422V159.887Z" fill="#386693"/>
<path d="M77.2676 198.951H122.422V159.887L77.2676 198.951Z" fill="#2A4D7C"/>
<path d="M173.908 161.34C174.04 156.679 175.382 152.146 176.384 147.587C177.387 143.029 178.049 138.247 176.832 133.738C175.615 129.23 172.131 125.04 167.444 124.16C162.757 123.278 157.343 126.799 157.417 131.46C157.238 127.067 157.053 122.63 155.886 118.382C154.72 114.135 152.472 110.033 148.866 107.401C145.26 104.768 140.16 103.863 136.146 105.854C131.817 108.001 129.602 112.994 129.494 117.736C129.387 122.478 131.015 127.073 132.623 131.548C130.643 128.414 125.504 128.52 122.752 131.038C119.999 133.554 119.239 137.551 119.409 141.229C119.778 149.17 123.958 156.864 130.484 161.612L173.908 161.34Z" fill="#3B9C0B"/>
<path d="M132.777 149.35C133.392 145.717 134.593 141.759 136.555 136.917C136.603 136.798 136.543 136.664 136.422 136.618C136.302 136.57 136.164 136.628 136.116 136.747C134.278 141.282 133.106 145.049 132.451 148.505L126.552 133.172C126.506 133.053 126.37 132.992 126.248 133.038C126.126 133.082 126.064 133.215 126.111 133.334L132.173 149.092C128.658 146.771 125.469 144.009 122.69 140.874C122.604 140.777 122.455 140.767 122.357 140.85C122.258 140.934 122.248 141.079 122.333 141.175C125.259 144.477 128.635 147.371 132.365 149.775C132.39 149.79 132.418 149.792 132.445 149.798L136.49 160.311C136.526 160.404 136.616 160.461 136.711 160.461C136.739 160.461 136.767 160.456 136.794 160.446C136.916 160.401 136.978 160.268 136.932 160.149L132.777 149.35Z" fill="#00623A"/>
<path d="M155.162 136.598C155.038 136.572 154.909 136.649 154.88 136.773C153.825 141.356 151.973 145.681 149.385 149.636C148.598 143.464 147.515 137.33 146.144 131.257C146.193 131.237 146.238 131.206 146.264 131.156C148.229 127.417 149.735 123.45 150.74 119.365C150.77 119.241 150.692 119.116 150.566 119.087C150.435 119.058 150.311 119.134 150.281 119.257C149.312 123.194 147.87 127.019 146.002 130.635C145.211 127.186 144.332 123.755 143.355 120.351C143.355 120.351 143.354 120.35 143.354 120.349C142.512 117.415 141.602 114.498 140.623 111.603C140.582 111.483 140.449 111.416 140.325 111.457C140.201 111.497 140.134 111.627 140.175 111.749C141.092 114.46 141.945 117.192 142.742 119.938C141.798 119.424 140.841 118.883 139.91 118.351C138.808 117.723 137.668 117.073 136.556 116.478C136.442 116.417 136.299 116.458 136.236 116.569C136.173 116.681 136.215 116.821 136.33 116.883C137.436 117.474 138.573 118.122 139.672 118.749C140.742 119.36 141.847 119.989 142.928 120.569C144.631 126.516 146.05 132.539 147.182 138.614C143.665 136.278 140.363 133.606 137.366 130.659C137.274 130.568 137.125 130.568 137.032 130.658C136.94 130.748 136.939 130.894 137.032 130.984C140.155 134.055 143.605 136.834 147.286 139.244C147.289 139.245 147.293 139.244 147.295 139.246C148.532 146.004 149.416 152.825 149.933 159.675C149.943 159.796 150.046 159.888 150.168 159.888C150.174 159.888 150.18 159.888 150.186 159.888C150.316 159.879 150.414 159.768 150.404 159.641C150.167 156.5 149.852 153.365 149.464 150.239C149.524 150.228 149.581 150.199 149.617 150.145C152.325 146.075 154.25 141.61 155.341 136.875C155.37 136.75 155.29 136.627 155.162 136.598Z" fill="#00623A"/>
<path d="M171.879 133.15C171.753 133.111 171.622 133.18 171.584 133.302C170.823 135.698 169.464 137.892 167.654 139.669C167.735 136.163 167.581 132.659 167.178 129.2C167.163 129.073 167.043 128.982 166.917 128.996C166.787 129.011 166.694 129.125 166.709 129.252C167.248 133.869 167.344 138.567 167.017 143.239C165.411 139.946 163.299 136.938 160.715 134.293C160.625 134.2 160.476 134.197 160.382 134.285C160.287 134.373 160.284 134.519 160.374 134.611C163.114 137.416 165.324 140.633 166.946 144.172C166.506 149.522 165.51 154.831 163.962 159.937C163.925 160.059 163.997 160.188 164.122 160.224C164.144 160.23 164.167 160.233 164.189 160.233C164.291 160.233 164.385 160.168 164.415 160.068C166.355 153.666 167.436 146.949 167.64 140.228C167.645 140.228 167.65 140.231 167.655 140.231C167.715 140.231 167.774 140.209 167.82 140.165C169.771 138.307 171.228 135.981 172.036 133.439C172.074 133.317 172.004 133.188 171.879 133.15Z" fill="#00623A"/>
<path d="M169.085 198.953H128.76L114.271 153.288H183.573L169.085 198.953Z" fill="#00623A"/>
<path d="M125.924 153.288H114.271L128.76 198.952H169.085L171.377 191.728H148.842C142.467 191.728 136.834 187.672 134.946 181.724L125.924 153.288Z" fill="#386693"/>
<path d="M40.1261 157.324C37.3855 144.748 32.7081 132.488 26.3814 121.146C28.1114 120.402 29.6776 119.117 30.887 117.479L29.9353 117.318C30.3951 117.173 30.8591 117.021 31.3231 116.86C32.3828 115.236 33.098 113.333 33.3769 111.401C32.8638 111.723 32.3602 112.036 31.8372 112.331C32.3951 111.777 32.9375 111.201 33.4676 110.603C33.6956 107.988 33.0867 105.405 31.7678 103.439C30.8955 104.433 30.1506 105.503 29.5001 106.616C29.6026 107.172 29.7187 107.738 29.7975 108.306C29.6158 107.901 29.418 107.5 29.2178 107.105C28.3993 108.584 27.7451 110.134 27.249 111.731C27.4029 112.443 27.5468 113.171 27.6601 113.908C27.4383 113.466 27.2273 113.038 26.9894 112.611C26.2686 115.275 25.9485 118.066 26.2374 120.882C24.6146 117.989 22.8779 115.16 21.0446 112.398C22.1661 111.497 23.0908 110.293 23.7427 108.913L22.9487 108.93L23.9915 108.355C24.582 106.906 24.8803 105.304 24.8567 103.728C24.4824 104.047 24.1123 104.359 23.73 104.663C24.1066 104.147 24.4725 103.619 24.8289 103.08C24.6844 100.964 23.9353 98.954 22.6901 97.448C22.0608 98.3315 21.5501 99.2818 21.1352 100.27C21.2796 100.72 21.4326 101.175 21.5638 101.634C21.3679 101.32 21.163 101.011 20.9572 100.705C20.4488 102.017 20.1052 103.389 19.9211 104.781C20.1453 105.35 20.3653 105.93 20.5683 106.517C20.3238 106.188 20.0868 105.866 19.8343 105.546C19.6657 107.445 19.7828 109.374 20.2596 111.225C19.0242 109.406 17.7493 107.615 16.4257 105.863C16.3813 105.805 16.3247 105.764 16.2628 105.732C16.1533 104.143 15.6445 102.537 14.8052 101.052L14.2978 101.76L14.4597 100.47C13.5298 99.0066 12.2836 97.691 10.8533 96.6554C10.8859 97.1921 10.9161 97.7214 10.9336 98.2554C10.7207 97.584 10.4931 96.914 10.2534 96.244C8.25853 94.9465 5.96303 94.2069 3.75484 94.2083C4.09943 95.3583 4.59507 96.4562 5.20069 97.4969C5.70671 97.6846 6.22123 97.869 6.72631 98.07C6.30855 98.0235 5.88892 97.9852 5.47117 97.9497C6.30761 99.2938 7.32721 100.534 8.48181 101.639C9.1554 101.831 9.83371 102.03 10.5092 102.246C10.0447 102.239 9.5892 102.23 9.12708 102.234C11.0157 103.887 13.2177 105.207 15.6195 105.959C15.5567 106.104 15.5642 106.274 15.6667 106.41C16.6084 107.656 17.5194 108.927 18.4158 110.207C17.2433 109.438 15.9404 108.826 14.5621 108.383L14.7004 109.335L13.8526 108.17C12.0254 107.665 10.091 107.441 8.18206 107.508L9.35791 108.839L7.39612 107.553C4.83014 107.753 2.34393 108.486 0.263672 109.778C1.29082 110.655 2.46761 111.38 3.73832 111.951L5.53819 111.495L4.29957 112.19C6.00126 112.88 7.85022 113.302 9.72279 113.448L11.9583 112.523L10.7518 113.5C13.7795 113.572 16.801 112.908 19.3056 111.492C21.0351 114.025 22.6736 116.622 24.2228 119.272C23.0172 118.206 21.5421 117.368 19.9206 116.805L20.0287 117.725L19.2225 116.578C17.4189 116.05 15.4726 115.852 13.5779 115.998C13.989 116.409 14.3941 116.816 14.7924 117.235C14.1377 116.84 13.4731 116.455 12.7995 116.078C10.2619 116.398 7.87666 117.36 6.07395 118.859C7.17285 119.564 8.36238 120.122 9.60242 120.554C10.1495 120.36 10.7004 120.159 11.256 119.975C10.883 120.224 10.5139 120.48 10.1481 120.736C11.795 121.256 13.5217 121.56 15.2598 121.656C15.9442 121.346 16.6376 121.038 17.3396 120.744C16.9596 121.06 16.5852 121.368 16.2142 121.689C19.1168 121.719 22.0302 121.181 24.6141 119.948C25.8046 122.012 26.9393 124.108 28.017 126.234C26.9129 125.334 25.5931 124.628 24.151 124.155L24.2695 125.027L23.4803 123.951C21.7474 123.479 19.8791 123.334 18.0721 123.528C18.4776 123.907 18.876 124.282 19.2673 124.67C18.6325 124.312 17.9867 123.965 17.3306 123.627C14.9156 124.007 12.6754 125.016 11.0346 126.52C12.1108 127.14 13.2602 127.62 14.4497 127.985C14.9595 127.782 15.4731 127.57 15.9924 127.378C15.6478 127.626 15.3079 127.882 14.9723 128.139C16.5484 128.574 18.185 128.81 19.8277 128.858C20.4654 128.547 21.1135 128.238 21.7715 127.944C21.4189 128.252 21.0719 128.553 20.7292 128.867C23.4085 128.829 26.0868 128.302 28.4947 127.17C29.2532 128.696 29.9774 130.238 30.6764 131.792C29.224 131.175 27.5737 130.881 25.8796 130.916L26.2936 131.701L25.1706 130.946C23.3575 131.078 21.5284 131.582 19.89 132.395C20.4116 132.609 20.9232 132.821 21.4326 133.052C20.7042 132.934 19.9683 132.834 19.2249 132.749C17.0813 133.955 15.3561 135.716 14.4134 137.718C15.6539 137.898 16.9029 137.928 18.1434 137.845C18.5404 137.475 18.9383 137.094 19.3514 136.732C19.1224 137.085 18.902 137.445 18.6867 137.803C20.312 137.651 21.9159 137.307 23.4618 136.795C23.9443 136.287 24.4399 135.778 24.953 135.282C24.7312 135.691 24.5121 136.088 24.3049 136.5C26.7595 135.575 29.0616 134.233 30.962 132.432C31.7305 134.164 32.4678 135.909 33.1608 137.671C31.3939 137.224 29.4407 137.215 27.5114 137.63L28.1416 138.407C27.6781 138.207 27.2065 138.008 26.7293 137.817C24.743 138.36 22.8255 139.348 21.2178 140.65C21.848 140.755 22.4644 140.861 23.0828 140.992C22.2506 141.038 21.4142 141.11 20.5725 141.205C18.5107 143.07 17.1021 145.476 16.6711 147.909C18.0703 147.756 19.4283 147.452 20.7462 147.043C21.0734 146.54 21.3981 146.022 21.7507 145.526C21.5959 145.967 21.4562 146.415 21.3226 146.859C23.0375 146.282 24.6769 145.526 26.2233 144.619C26.6202 143.956 27.0347 143.288 27.4779 142.633C27.3325 143.131 27.1886 143.612 27.0644 144.109C29.4808 142.568 31.6743 140.659 33.4171 138.341C34.3125 140.654 35.1405 142.99 35.9019 145.345C34.6179 145.335 33.3146 145.543 32.0534 145.94L32.5962 146.486L31.4983 146.127C30.0888 146.636 28.7458 147.374 27.5577 148.286L28.9445 148.601L27.0767 148.672C25.5317 149.968 24.2922 151.569 23.5789 153.342C24.6537 153.434 25.7522 153.362 26.8369 153.149L27.7701 152.038L27.3099 153.046C28.7269 152.712 30.1105 152.14 31.3769 151.381L32.3649 149.772L32.06 150.945C33.8164 149.756 35.2915 148.196 36.2479 146.421C37.3963 150.081 38.3895 153.782 39.2028 157.513C39.25 157.73 39.4459 157.878 39.664 157.878C39.6966 157.878 39.7296 157.875 39.7626 157.868C40.0175 157.818 40.1804 157.573 40.1261 157.324Z" fill="#3B9C0B"/>
<path d="M47.1853 156.289C50.3611 143.811 51.654 130.788 51.0522 117.885C52.9408 117.957 54.9252 117.472 56.7468 116.517L55.9637 115.965C56.4419 116.031 56.9276 116.093 57.4166 116.147C59.098 115.14 60.5934 113.736 61.7112 112.119C61.1051 112.189 60.5127 112.254 59.9104 112.296C60.66 112.037 61.4063 111.751 62.1507 111.441C63.5281 109.188 64.1394 106.604 63.8354 104.273C62.6052 104.794 61.4563 105.436 60.372 106.159C60.2148 106.702 60.0652 107.261 59.8811 107.805C59.9 107.362 59.9019 106.918 59.8986 106.477C58.4995 107.456 57.2165 108.57 56.0548 109.793C55.8735 110.499 55.6767 111.216 55.4478 111.926C55.4463 111.434 55.4487 110.959 55.4265 110.472C53.5837 112.559 52.0449 114.93 51.0413 117.586C50.8804 114.291 50.5872 111.005 50.178 107.737C51.5898 107.407 52.9611 106.721 54.1667 105.758L53.4449 105.434L54.6406 105.363C55.8207 104.314 56.8077 103.001 57.4931 101.575C57.0135 101.701 56.5415 101.823 56.0614 101.932C56.6312 101.63 57.1967 101.311 57.7589 100.98C58.5778 99.0159 58.8058 96.8884 58.3616 95.0011C57.3996 95.5263 56.5146 96.1621 55.6984 96.8732C55.6262 97.3394 55.5601 97.8138 55.4723 98.2823C55.4369 97.9167 55.3916 97.5505 55.3434 97.1881C54.2979 98.15 53.3741 99.2364 52.5844 100.408C52.5306 101.016 52.4688 101.631 52.3876 102.246C52.3153 101.846 52.2469 101.454 52.1629 101.059C51.1598 102.694 50.4003 104.478 49.9991 106.346C49.704 104.183 49.3609 102.027 48.9568 99.8856C48.9431 99.8141 48.9105 99.7528 48.869 99.6979C49.4827 98.2228 49.7456 96.5615 49.6573 94.8674L48.8836 95.2865L49.6073 94.1964C49.4279 92.483 48.8973 90.7667 48.076 89.2238C47.8645 89.72 47.6545 90.2092 47.4302 90.6966C47.5398 90.0022 47.6361 89.3027 47.7205 88.5977C46.5088 86.5775 44.7774 84.9309 42.7916 83.9866C42.5857 85.1679 42.539 86.3673 42.6169 87.5615C42.9874 87.9466 43.3674 88.3325 43.7314 88.7295C43.3769 88.5087 43.0167 88.2947 42.657 88.0844C42.8062 89.6504 43.1668 91.2015 43.7087 92.69C44.2284 93.1502 44.7491 93.6201 45.2594 94.1033C44.8449 93.8981 44.4394 93.6948 44.0226 93.5006C44.979 95.7951 46.3668 97.9236 48.1888 99.6269C48.0675 99.7307 47.9976 99.887 48.0288 100.053C48.3163 101.576 48.5655 103.108 48.7973 104.643C48.0883 103.45 47.1914 102.342 46.1515 101.353L45.8489 102.269L45.6091 100.859C44.193 99.6223 42.5546 98.5936 40.8081 97.8374L41.2683 99.5365L40.0816 97.5409C37.6855 96.6223 35.1219 96.2179 32.6725 96.4891C33.2031 97.7165 33.9357 98.8721 34.8217 99.9294L36.6438 100.29L35.2187 100.385C36.4389 101.733 37.9121 102.904 39.5298 103.836L41.9537 103.962L40.4314 104.324C43.121 105.684 46.135 106.38 49.0215 106.178C49.4397 109.196 49.7489 112.232 49.9528 115.277C49.3472 113.802 48.397 112.418 47.1919 111.218L46.8765 112.091L46.6655 110.716C45.2811 109.469 43.6205 108.458 41.8513 107.778C42.0368 108.324 42.218 108.863 42.3884 109.41C41.9768 108.775 41.5525 108.145 41.1158 107.517C38.691 106.719 36.1156 106.562 33.8229 107.139C34.4951 108.243 35.314 109.253 36.235 110.172C36.8137 110.232 37.399 110.287 37.9806 110.36C37.534 110.424 37.087 110.496 36.6438 110.57C37.8914 111.743 39.307 112.755 40.8265 113.585C41.5813 113.599 42.3426 113.619 43.105 113.655C42.6221 113.776 42.1472 113.893 41.6695 114.023C44.2657 115.292 47.1258 116.055 50.0014 116.052C50.1459 118.418 50.2261 120.787 50.2417 123.159C49.6531 121.877 48.7826 120.677 47.6984 119.636L47.4137 120.471L47.1871 119.165C45.8409 117.999 44.2261 117.07 42.5154 116.471C42.7099 116.985 42.9001 117.493 43.0776 118.009C42.6674 117.415 42.2426 116.827 41.8045 116.243C39.4632 115.551 36.9968 115.499 34.8477 116.149C35.5368 117.167 36.3549 118.091 37.2607 118.928C37.8097 118.963 38.3667 118.993 38.9194 119.042C38.4989 119.118 38.0783 119.203 37.6615 119.29C38.8831 120.355 40.2487 121.268 41.704 122.014C42.4168 122.007 43.138 122.006 43.8607 122.024C43.4057 122.15 42.9591 122.271 42.5102 122.408C44.9355 123.52 47.5799 124.192 50.2516 124.205C50.2492 125.901 50.2086 127.598 50.1407 129.293C49.1116 128.117 47.7597 127.147 46.2214 126.453L46.2412 127.336L45.5704 126.176C43.881 125.519 42.0113 125.189 40.1732 125.22C40.5461 125.635 40.911 126.045 41.2655 126.47C40.6631 126.053 40.0467 125.647 39.417 125.253C36.9492 125.42 34.6084 126.265 32.8632 127.661C33.8975 128.354 35.0067 128.915 36.1595 129.371C36.682 129.208 37.2107 129.036 37.7441 128.887C37.3801 129.107 37.0205 129.336 36.666 129.566C38.1949 130.125 39.7918 130.501 41.4108 130.703C42.0726 130.453 42.7462 130.207 43.4297 129.982C43.0469 130.254 42.6721 130.518 42.3011 130.799C44.9228 131.018 47.594 130.796 50.1095 129.99C50.0236 131.876 49.9042 133.76 49.7371 135.64C48.3488 134.483 46.5971 133.64 44.6769 133.187L44.8949 134.155C44.5678 133.777 44.2327 133.397 43.89 133.02C41.8602 132.659 39.6941 132.726 37.6648 133.209C38.184 133.573 38.691 133.932 39.188 134.315C38.4196 133.999 37.6355 133.707 36.8359 133.432C34.1462 134.226 31.8012 135.786 30.3223 137.789C31.6482 138.25 33.0058 138.558 34.3742 138.753C34.8935 138.442 35.4179 138.115 35.9569 137.821C35.6204 138.15 35.2937 138.493 34.9742 138.836C36.7745 139.051 38.5876 139.072 40.3842 138.919C41.0379 138.493 41.7106 138.07 42.4021 137.671C42.0486 138.056 41.703 138.426 41.3684 138.821C44.2313 138.469 47.0597 137.692 49.6658 136.353C49.4336 138.816 49.1305 141.27 48.759 143.713C47.6091 143.154 46.3441 142.784 45.0323 142.601L45.2759 143.324L44.4498 142.532C42.9549 142.386 41.4165 142.475 39.939 142.786L41.0441 143.663L39.3334 142.927C37.3636 143.431 35.5316 144.34 34.0952 145.628C35.02 146.172 36.0396 146.577 37.1106 146.849L38.4474 146.25L37.5817 146.96C39.0049 147.266 40.5055 147.344 41.9844 147.203L43.594 146.18L42.7934 147.104C44.9058 146.787 46.9313 146.015 48.5867 144.829C47.9778 148.61 47.2112 152.363 46.269 156.065C46.2143 156.28 46.3238 156.497 46.5197 156.59C46.549 156.604 46.5801 156.616 46.6127 156.624C46.8662 156.687 47.1225 156.536 47.1853 156.289Z" fill="#3B9C0B"/>
<path d="M52.7565 157.324C55.4972 144.748 60.1746 132.488 66.5013 121.146C64.7712 120.402 63.205 119.117 61.9957 117.479L62.9473 117.318C62.488 117.173 62.0235 117.021 61.5595 116.86C60.4998 115.236 59.7847 113.333 59.5057 111.401C60.0188 111.723 60.5225 112.036 61.0455 112.331C60.4875 111.777 59.9452 111.201 59.4151 110.603C59.1871 107.988 59.796 105.405 61.1149 103.439C61.9867 104.433 62.7321 105.503 63.3825 106.616C63.2801 107.172 63.164 107.738 63.0856 108.306C63.2673 107.901 63.4651 107.5 63.6653 107.105C64.4838 108.584 65.1376 110.134 65.6341 111.731C65.4802 112.443 65.3363 113.171 65.223 113.908C65.4444 113.466 65.6558 113.038 65.8938 112.611C66.6146 115.275 66.9346 118.066 66.6457 120.882C68.2686 117.989 70.0052 115.16 71.8386 112.398C70.717 111.497 69.7923 110.293 69.1404 108.913L69.9344 108.93L68.8916 108.355C68.3011 106.906 68.0028 105.304 68.0264 103.728C68.4012 104.047 68.7708 104.359 69.1532 104.663C68.7765 104.147 68.4111 103.619 68.0543 103.08C68.1987 100.964 68.9478 98.954 70.193 97.448C70.8223 98.3315 71.333 99.2818 71.7479 100.27C71.6035 100.72 71.4505 101.175 71.3193 101.634C71.5152 101.32 71.7201 101.011 71.9259 100.705C72.4343 102.017 72.7779 103.389 72.962 104.781C72.7378 105.35 72.5178 105.93 72.3148 106.517C72.5594 106.188 72.7963 105.866 73.0489 105.546C73.2174 107.445 73.1003 109.374 72.6236 111.225C73.8589 109.406 75.1338 107.615 76.4574 105.863C76.5018 105.805 76.5589 105.764 76.6203 105.732C76.7298 104.143 77.2391 102.537 78.0779 101.052L78.5854 101.76L78.4235 100.47C79.3534 99.0066 80.5995 97.691 82.0303 96.6554C81.9977 97.1921 81.9675 97.7214 81.95 98.2554C82.1629 97.584 82.39 96.914 82.6302 96.244C84.6251 94.9465 86.9206 94.2069 89.1288 94.2083C88.7842 95.3583 88.2885 96.4562 87.6824 97.4969C87.1764 97.6846 86.6619 97.869 86.1568 98.07C86.5746 98.0235 86.9942 97.9852 87.412 97.9497C86.5755 99.2938 85.5559 100.534 84.4013 101.639C83.7277 101.831 83.0489 102.03 82.3739 102.246C82.8384 102.239 83.2939 102.23 83.756 102.234C81.8674 103.887 79.6654 105.207 77.2637 105.959C77.3264 106.104 77.3189 106.274 77.2165 106.41C76.2748 107.656 75.3637 108.927 74.4673 110.207C75.6399 109.438 76.9427 108.826 78.321 108.383L78.1827 109.335L79.0305 108.17C80.8577 107.665 82.7922 107.441 84.7011 107.508L83.5252 108.839L85.487 107.553C88.0525 107.753 90.5387 108.486 92.619 109.778C91.5914 110.655 90.415 111.38 89.1443 111.951L87.3444 111.495L88.5831 112.19C86.8814 112.88 85.0324 113.302 83.1599 113.448L80.9243 112.523L82.1308 113.5C79.1032 113.572 76.0817 112.908 73.5771 111.492C71.8475 114.025 70.2091 116.622 68.6599 119.272C69.8655 118.206 71.3406 117.368 72.962 116.805L72.8539 117.725L73.6601 116.578C75.4638 116.05 77.41 115.852 79.3047 115.998C78.8936 116.409 78.4886 116.816 78.0902 117.235C78.7449 116.84 79.4095 116.455 80.0831 116.078C82.6208 116.398 85.006 117.36 86.8087 118.859C85.7098 119.564 84.5203 120.122 83.2802 120.554C82.7331 120.36 82.1823 120.159 81.6267 119.975C81.9996 120.224 82.3687 120.48 82.7341 120.736C81.0871 121.256 79.3605 121.56 77.6224 121.656C76.938 121.346 76.2445 121.038 75.5426 120.744C75.9226 121.06 76.2969 121.368 76.668 121.689C73.7649 121.719 70.852 121.181 68.2681 119.948C67.0776 122.012 65.9428 124.108 64.8652 126.234C65.9693 125.334 67.2891 124.628 68.7312 124.155L68.6127 125.027L69.4019 123.951C71.1352 123.479 73.0031 123.334 74.81 123.528C74.4045 123.907 74.0062 124.282 73.6148 124.67C74.2497 124.312 74.8955 123.965 75.5511 123.627C77.9661 124.007 80.2063 125.016 81.8471 126.52C80.7709 127.14 79.6215 127.62 78.432 127.985C77.9222 127.782 77.4086 127.57 76.8893 127.378C77.2335 127.626 77.5738 127.882 77.9094 128.139C76.3333 128.574 74.6967 128.81 73.0541 128.858C72.4163 128.547 71.7682 128.238 71.1102 127.944C71.4628 128.252 71.8098 128.553 72.1525 128.867C69.4732 128.829 66.7949 128.302 64.387 127.17C63.6285 128.696 62.9043 130.238 62.2053 131.792C63.6577 131.175 65.308 130.881 67.0021 130.916L66.5886 131.701L67.7116 130.946C69.5246 131.078 71.3538 131.582 72.9922 132.395C72.4706 132.609 71.9589 132.821 71.4496 133.052C72.178 132.934 72.9139 132.834 73.6568 132.749C75.8004 133.955 77.5256 135.716 78.4683 137.718C77.2278 137.898 75.9788 137.928 74.7383 137.845C74.3413 137.475 73.9434 137.094 73.5303 136.732C73.7593 137.085 73.9797 137.445 74.1954 137.803C72.5702 137.651 70.9662 137.307 69.4203 136.795C68.9379 136.287 68.4423 135.778 67.9292 135.282C68.151 135.691 68.37 136.088 68.5773 136.5C66.1227 135.575 63.8206 134.233 61.9202 132.432C61.1517 134.164 60.4144 135.909 59.7214 137.671C61.4882 137.224 63.4411 137.215 65.3703 137.63L64.7401 138.407C65.2036 138.207 65.6752 138.008 66.1524 137.817C68.1387 138.36 70.0562 139.348 71.6639 140.65C71.0337 140.755 70.4173 140.861 69.7989 140.992C70.6311 141.038 71.4675 141.11 72.3092 141.205C74.3706 143.07 75.7796 145.476 76.2106 147.909C74.8114 147.756 73.4534 147.452 72.1355 147.043C71.8084 146.54 71.4836 146.022 71.131 145.526C71.2858 145.967 71.4255 146.415 71.5591 146.859C69.8442 146.282 68.2048 145.526 66.6584 144.619C66.2615 143.956 65.847 143.288 65.4038 142.633C65.5492 143.131 65.6931 143.612 65.8173 144.109C63.4009 142.568 61.2074 140.659 59.4646 138.341C58.5692 140.654 57.7412 142.99 56.9798 145.345C58.2642 145.335 59.5671 145.543 60.8283 145.94L60.2855 146.486L61.3835 146.127C62.7929 146.636 64.1359 147.374 65.324 148.286L63.9376 148.601L65.805 148.672C67.35 149.968 68.5895 151.569 69.3028 153.342C68.228 153.434 67.1295 153.362 66.0448 153.149L65.1116 152.038L65.5718 153.046C64.1548 152.712 62.7712 152.14 61.5048 151.381L60.5168 149.772L60.8217 150.945C59.0653 149.756 57.5902 148.196 56.6338 146.421C55.4854 150.081 54.4922 153.782 53.6789 157.513C53.6317 157.73 53.4358 157.878 53.2177 157.878C53.1851 157.878 53.1521 157.875 53.1191 157.868C52.8651 157.818 52.7022 157.573 52.7565 157.324Z" fill="#3B9C0B"/>
<path d="M66.6023 198.952H26.2768L11.7891 153.288H81.0905L66.6023 198.952Z" fill="#3B9C0B"/>
<path d="M23.4417 153.288H11.7891L26.2772 198.952H66.6028L68.895 191.727H46.36C39.9842 191.727 34.3514 187.672 32.4637 181.723L23.4417 153.288Z" fill="#00623A"/>
<path d="M191.791 128.365C189.822 127.71 188.093 126.506 186.507 125.192C180.889 120.539 176.695 114.267 174.591 107.372C174.081 105.701 173.689 103.964 173.812 102.224C173.935 100.484 174.629 98.7248 175.987 97.5932C178.05 95.8765 181.23 95.9784 183.639 97.1912C186.048 98.4039 187.835 100.519 189.433 102.656C192.023 106.12 194.309 109.801 196.257 113.645C197.373 115.847 198.386 118.124 198.878 120.533C199.285 122.522 199.722 126.137 198.193 127.831C196.781 129.396 193.538 128.948 191.791 128.365Z" fill="#00623A"/>
<path d="M207.809 117.653C206.721 116.591 206.35 115.015 206.257 113.515C206.005 109.451 207.461 105.408 209.756 102.009C212.051 98.6099 215.147 95.7976 218.408 93.2638C220.11 91.9418 221.913 90.6623 223.997 90.0573C226.081 89.4518 228.519 89.6285 230.181 90.9984C231.594 92.1632 232.254 94.0339 232.257 95.8396C232.261 97.6457 231.679 99.4058 230.957 101.068C227.702 108.56 221.395 114.708 213.704 117.812C211.737 118.607 209.581 119.383 207.809 117.653Z" fill="#00623A"/>
<path d="M209.025 135.442C213.891 128.514 220.805 122.976 228.712 119.673C231.119 118.668 233.954 117.883 236.277 119.063C238.335 120.109 239.399 122.514 239.331 124.779C239.264 127.044 238.243 129.183 237.006 131.1C233.919 135.88 229.262 139.615 223.971 141.864C221.308 142.997 218.476 143.759 215.589 144.091C213.633 144.316 210.236 144.879 208.489 143.666C205.628 141.679 207.519 137.588 209.025 135.442Z" fill="#00623A"/>
<path d="M201.612 156.631C201.375 156.631 201.171 156.458 201.144 156.223C198.791 136.194 205.757 115.404 219.779 100.61C219.955 100.423 220.254 100.412 220.446 100.585C220.637 100.758 220.649 101.05 220.471 101.237C206.634 115.836 199.76 136.352 202.082 156.118C202.112 156.371 201.926 156.6 201.667 156.628C201.648 156.63 201.63 156.631 201.612 156.631Z" fill="#00623A"/>
<path d="M203.312 157.922C203.074 157.922 202.869 157.745 202.843 157.508C200.999 140.141 194.642 123.376 184.457 109.027C184.309 108.818 184.362 108.53 184.576 108.385C184.79 108.24 185.085 108.292 185.233 108.501C195.508 122.978 201.922 139.891 203.783 157.412C203.81 157.666 203.621 157.892 203.362 157.919C203.345 157.921 203.328 157.922 203.312 157.922Z" fill="#00623A"/>
<path d="M197.1 156.371C197.015 156.371 196.929 156.349 196.852 156.302C196.631 156.168 196.563 155.884 196.7 155.667C203.429 145.067 212.855 136.209 223.961 130.051C224.188 129.926 224.476 130.004 224.605 130.225C224.733 130.446 224.653 130.728 224.427 130.854C213.459 136.935 204.148 145.684 197.502 156.153C197.412 156.294 197.258 156.371 197.1 156.371Z" fill="#00623A"/>
<path d="M198.06 88.9544C198.405 82.7023 200.548 76.5538 204.18 71.395C205.527 69.4814 207.119 67.665 209.183 66.5123C211.247 65.3595 213.857 64.9547 216.027 65.9032C218.395 66.9379 219.849 69.3965 220.314 71.8897C220.778 74.3829 220.409 76.9439 220.038 79.4519C219.205 85.0876 218.345 90.8173 215.88 95.9776C213.928 100.066 210.651 104.213 206.333 106.104C201.17 108.363 199.738 102.05 198.882 98.3592C198.169 95.2808 197.886 92.1066 198.06 88.9544Z" fill="#3B9C0B"/>
<path d="M211.86 113.658C214.618 108.546 218.84 104.196 223.919 101.233C225.723 100.18 227.676 99.2874 229.763 99.0518C231.851 98.8166 234.101 99.316 235.615 100.739C237.228 102.257 237.788 104.622 237.507 106.792C237.225 108.962 236.202 110.975 235.032 112.84C231.681 118.183 226.935 122.66 221.422 125.847C218.608 127.474 215.571 128.803 212.423 129.679C208.64 130.731 207.941 128.759 208.272 125.412C208.679 121.317 209.896 117.298 211.86 113.658Z" fill="#3B9C0B"/>
<path d="M249.253 114.964C252.292 114.81 255.768 115.379 257.445 117.86C258.799 119.864 258.519 122.621 257.276 124.693C256.032 126.764 253.981 128.252 251.852 129.451C248.263 131.474 244.28 132.813 240.188 133.433C236.614 133.974 231.3 134.55 227.909 133.003C221.137 129.914 234.533 119.911 237.353 118.376C240.994 116.392 245.083 115.174 249.253 114.964Z" fill="#3B9C0B"/>
<path d="M227.344 137.108C231.357 135.12 236.134 134.858 240.5 135.919C241.7 136.211 242.909 136.615 243.851 137.398C244.794 138.18 245.427 139.411 245.194 140.598C244.895 142.118 243.367 143.066 241.943 143.745C237.334 145.944 232.282 147.249 227.166 147.594C225.358 147.716 222.361 148.21 220.841 146.924C219.238 145.567 220.74 143.361 221.653 142.026C223.074 139.947 225.063 138.238 227.344 137.108Z" fill="#3B9C0B"/>
<path d="M181.506 100.35C178.299 95.7103 176.888 90.1419 175.533 84.7027C175.036 82.7056 174.535 80.6472 174.85 78.6151C175.164 76.583 176.498 74.5597 178.533 74.0409C180.494 73.5415 182.534 74.5251 184.132 75.7419C187.104 78.0046 189.288 81.1346 190.891 84.4661C192.494 87.7976 193.551 91.3496 194.602 94.8844C195.596 98.2261 197.525 103.729 195.59 107.084C193.941 109.941 187.987 106.438 186.189 105.145C184.361 103.829 182.775 102.187 181.506 100.35Z" fill="#3B9C0B"/>
<path d="M184.452 113.399C183.214 111.969 181.554 110.495 179.659 110.778C178.242 110.99 177.141 112.193 176.693 113.523C176.245 114.854 176.337 116.296 176.511 117.686C177.62 126.495 181.986 134.879 188.623 140.941C189.865 142.076 193.057 144.581 194.709 142.754C195.992 141.335 194.915 137.258 194.655 135.557C193.853 130.307 192.088 125.199 189.472 120.547C188.045 118.01 186.365 115.609 184.452 113.399Z" fill="#3B9C0B"/>
<path d="M171.542 128.029C170.117 127.518 168.604 127.128 167.095 127.285C165.586 127.442 164.077 128.237 163.422 129.575C162.543 131.372 163.401 133.511 164.487 135.196C168.017 140.673 174.164 144.377 180.694 145.284C183.189 145.63 187.216 145.456 186.315 141.901C185.581 139.007 182.985 136.029 180.896 133.96C178.265 131.355 175.063 129.291 171.542 128.029Z" fill="#3B9C0B"/>
<path d="M224.688 112.877L225.024 112.564C225.213 112.388 225.221 112.096 225.041 111.912C224.86 111.728 224.561 111.721 224.373 111.896L224.037 112.209C217.509 118.274 206.814 128.219 201.609 142.486C201.488 139.711 201.413 137.021 201.38 134.403C201.381 134.386 201.389 134.37 201.388 134.352C201.385 134.274 201.379 134.197 201.375 134.119C201.118 110.988 204.391 93.5571 212.078 74.5931C212.174 74.3561 212.055 74.0882 211.812 73.9946C211.571 73.9015 211.296 74.0163 211.2 74.2533C204.435 90.9422 201.067 106.44 200.501 125.618C198.166 110.971 191.625 96.7452 181.928 85.5901C181.759 85.3964 181.462 85.372 181.262 85.5371C181.064 85.7017 181.039 85.9927 181.208 86.1872C192.637 99.3339 199.633 116.795 200.431 134.131C200.502 140.462 200.833 147.212 201.413 154.538C201.432 154.779 201.639 154.963 201.883 154.963C201.895 154.963 201.907 154.963 201.92 154.962C202.18 154.942 202.374 154.721 202.354 154.467C202.097 151.218 201.889 148.085 201.731 145.049C206.499 129.779 217.882 119.2 224.688 112.877Z" fill="#00623A"/>
<path d="M185.763 124.653C185.625 124.438 185.334 124.371 185.113 124.506C184.891 124.641 184.824 124.925 184.962 125.142C191.444 135.287 196.173 145.751 198.277 154.607C198.328 154.821 198.522 154.964 198.737 154.964C198.772 154.964 198.808 154.96 198.844 154.952C199.097 154.895 199.255 154.647 199.196 154.399C197.069 145.447 192.299 134.883 185.763 124.653Z" fill="#00623A"/>
<path d="M171.282 133.938C171.038 133.851 170.766 133.974 170.677 134.213C170.588 134.452 170.714 134.717 170.959 134.804C180.832 138.325 189.292 146.02 193.592 155.388C193.67 155.559 193.842 155.661 194.023 155.661C194.087 155.661 194.153 155.648 194.215 155.62C194.453 155.516 194.559 155.244 194.453 155.011C189.986 145.277 181.541 137.596 171.282 133.938Z" fill="#00623A"/>
<path d="M248.99 122.026C239.003 123.743 229.952 127.423 222.816 132.669C214.804 138.559 209.038 146.555 206.58 155.183C206.51 155.428 206.657 155.682 206.908 155.75C206.95 155.761 206.993 155.767 207.035 155.767C207.242 155.767 207.431 155.634 207.489 155.429C209.891 146.996 215.536 139.175 223.383 133.406C230.401 128.247 239.312 124.626 249.153 122.935C249.41 122.89 249.581 122.652 249.536 122.401C249.491 122.15 249.245 121.985 248.99 122.026Z" fill="#00623A"/>
<path d="M237.592 138.902C232.383 139.122 227.18 140.875 222.942 143.84C218.704 146.804 215.329 151.05 213.438 155.797C213.344 156.034 213.464 156.301 213.707 156.393C213.763 156.415 213.821 156.425 213.878 156.425C214.067 156.425 214.245 156.313 214.318 156.13C216.143 151.549 219.401 147.451 223.492 144.59C227.583 141.728 232.605 140.035 237.632 139.824C237.893 139.813 238.094 139.598 238.083 139.343C238.072 139.089 237.853 138.892 237.592 138.902Z" fill="#00623A"/>
<path d="M228.968 151.928H180.82V198.961H228.968V151.928Z" fill="#00623A"/>
<path d="M228.969 151.928H211.797V198.961H228.969V151.928Z" fill="#00623A"/>
<path d="M211.796 162.072H180.82V163.916H211.796V162.072Z" fill="#D4CFBE"/>
<path d="M228.969 162.072H211.797V163.916H228.969V162.072Z" fill="#A59B95"/>
<path d="M149.128 62.4666C148.721 61.4572 147.905 60.5677 146.843 60.2514C145.836 59.9517 144.72 60.1956 143.813 60.7166C142.906 61.2377 142.181 62.0124 141.533 62.8221C138.703 66.3602 137.145 70.7333 136.578 75.2061C138.314 77.3484 139.717 79.7457 140.723 82.2956C142.086 79.5672 143.988 77.1261 145.689 74.5794C147.504 71.8621 149.126 68.9009 149.462 65.6731C149.575 64.5936 149.535 63.4755 149.128 62.4666Z" fill="#3B9C0B"/>
<path d="M136.363 77.6512C136.112 82.9516 137.107 88.2387 138.474 93.3741C138.833 93.1209 139.347 92.652 139.594 92.2919C138.438 89.2499 139.078 85.7981 140.45 82.8437C140.536 82.6584 140.632 82.4781 140.723 82.2955C139.718 79.7455 138.315 77.3482 136.579 75.2059C136.476 76.0193 136.402 76.8355 136.363 77.6512Z" fill="#167728"/>
<path d="M138.943 93.4403C138.058 89.1027 137.156 84.7111 135.191 80.7266C133.225 76.7422 130.048 73.1428 125.818 71.5662C124.17 70.952 122.197 70.6952 120.728 71.6506C119.312 72.5724 118.764 74.4611 119.161 76.0777C119.559 77.6944 120.757 79.0376 122.169 79.9667C123.58 80.8963 125.203 81.463 126.815 82.0007C128.426 82.5379 130.058 83.0621 131.516 83.9203C134.734 85.8145 136.861 89.3641 136.977 93.0322C137.646 93.0788 138.273 93.3937 138.943 93.4403Z" fill="#3B9C0B"/>
<path d="M140.307 93.4097C140.127 90.999 141.664 88.705 143.688 87.3152C145.712 85.9254 148.167 85.2863 150.583 84.7648C152.999 84.2433 155.468 83.802 157.687 82.7332C159.441 81.8884 161.067 80.5697 161.718 78.7676C162.368 76.9661 161.755 74.6578 160.013 73.7904C158.961 73.2671 157.705 73.3279 156.55 73.5622C152.537 74.376 149.2 77.05 146.31 79.8886C144.395 81.7699 142.584 83.7785 141.197 86.0592C139.81 88.3403 138.856 90.9151 138.758 93.5669C139.204 93.548 139.861 93.4291 140.307 93.4097Z" fill="#3B9C0B"/>
<path d="M152.288 92.3857H125.473V98.6877H152.288V92.3857Z" fill="white"/>
<path d="M145.319 117.622H132.44L126.797 98.6875H150.962L145.319 117.622Z" fill="white"/>
<path d="M145.521 92.3857V98.6877H150.962H152.287V92.3857H145.521Z" fill="#E4E4E0"/>
<path d="M141.631 117.622H145.319L150.962 98.6875H145.521L141.631 117.622Z" fill="#E4E4E0"/>
<path d="M126.797 98.6885L145.047 100.995L145.521 98.6885H126.797Z" fill="#D4CFBE"/>
<path d="M150.961 98.6885H145.521L145.047 100.995L150.084 101.632L150.961 98.6885Z" fill="#A59B95"/>
<path d="M17.7175 200.297H25.5472C25.9272 200.297 26.2354 200.598 26.2354 200.969V200.979C26.2354 201.35 25.9272 201.651 25.5472 201.651H23.3612C22.9812 201.651 22.673 201.952 22.673 202.323V202.333C22.673 202.704 22.9812 203.005 23.3612 203.005H72.9962C73.3762 203.005 73.6844 203.306 73.6844 203.677V203.687C73.6844 204.058 73.3762 204.359 72.9962 204.359H33.6723C33.2923 204.359 32.9841 204.66 32.9841 205.032V205.041C32.9841 205.413 33.2923 205.714 33.6723 205.714H194.3C194.68 205.714 194.989 205.413 194.989 205.041V205.032C194.989 204.66 194.68 204.359 194.3 204.359H173.964C173.584 204.359 173.275 204.058 173.275 203.687V203.677C173.275 203.306 173.584 203.005 173.964 203.005H244.903C245.283 203.005 245.592 202.704 245.592 202.333V202.323C245.592 201.952 245.283 201.651 244.903 201.651H242.717C242.337 201.651 242.029 201.35 242.029 200.979V200.969C242.029 200.598 242.337 200.297 242.717 200.297H256.692C257.072 200.297 257.38 199.995 257.38 199.624V199.615C257.38 199.243 257.072 198.942 256.692 198.942H17.7175C17.3375 198.942 17.0293 199.243 17.0293 199.615V199.624C17.0298 199.996 17.3375 200.297 17.7175 200.297Z" fill="#386693"/>
<path d="M247.854 203.006H252.524C252.904 203.006 253.212 202.705 253.212 202.333V202.324C253.212 201.953 252.904 201.651 252.524 201.651H247.854C247.474 201.651 247.166 201.953 247.166 202.324V202.333C247.166 202.705 247.474 203.006 247.854 203.006Z" fill="#386693"/>
<path d="M259.062 199.624C259.062 199.995 259.371 200.296 259.751 200.296H261.171C261.551 200.296 261.859 199.995 261.859 199.624C261.859 199.253 261.551 198.952 261.171 198.952H259.751C259.37 198.952 259.062 199.252 259.062 199.624Z" fill="#386693"/>
<path d="M11.366 200.297H14.7165C15.0965 200.297 15.4047 199.995 15.4047 199.624V199.615C15.4047 199.243 15.0965 198.942 14.7165 198.942H11.366C10.986 198.942 10.6777 199.243 10.6777 199.615V199.624C10.6777 199.996 10.986 200.297 11.366 200.297Z" fill="#386693"/>
<path d="M25.9753 205.712H30.2576C30.6376 205.712 30.9459 205.411 30.9459 205.04V205.03C30.9459 204.659 30.6376 204.358 30.2576 204.358H25.9753C25.5954 204.358 25.2871 204.659 25.2871 205.03V205.04C25.2871 205.411 25.5954 205.712 25.9753 205.712Z" fill="#386693"/>
<path d="M219.686 205.713H198.257C197.875 205.713 197.564 205.41 197.564 205.036C197.564 204.662 197.875 204.359 198.257 204.359H219.686C220.069 204.359 220.379 204.662 220.379 205.036C220.379 205.409 220.069 205.713 219.686 205.713Z" fill="#386693"/>
<path d="M233.199 205.713H224.337C223.955 205.713 223.645 205.41 223.645 205.036C223.645 204.662 223.955 204.359 224.337 204.359H233.199C233.582 204.359 233.892 204.662 233.892 205.036C233.892 205.409 233.582 205.713 233.199 205.713Z" fill="#386693"/>
<path d="M96.6402 89.6088C101.432 90.7583 105.296 94.2083 106.899 98.7668L114.12 119.307L125.566 122.881L124.032 134.869L112.748 132.757C107.479 131.771 103.049 128.305 100.914 123.497L94.2578 108.516L96.6402 89.6088Z" fill="#CC6164"/>
<path d="M130.508 136.178L132.058 124.062C132.111 123.649 131.83 123.266 131.412 123.181L126.543 122.196C126.076 122.102 125.625 122.417 125.566 122.879L124.032 134.868L124.016 134.995C123.963 135.408 124.244 135.791 124.661 135.875L129.531 136.86C129.998 136.955 130.449 136.64 130.508 136.178Z" fill="#A34262"/>
<path d="M131.952 124.898L151.175 130.315C152.59 128.669 154.638 127.445 156.774 126.929C158.91 126.414 161.212 126.578 163.248 127.39C163.685 127.565 164.123 127.777 164.433 128.124C164.744 128.471 164.903 128.982 164.717 129.405C164.486 129.933 163.843 130.142 163.266 130.25C161.651 130.55 159.972 130.512 158.373 130.141C157.783 133.308 157.502 136.556 156.912 139.723C154.413 139.645 151.876 138.83 149.911 137.32L130.582 135.603L131.952 124.898Z" fill="#EBA58E"/>
<path d="M95.9996 94.6914L94.2578 108.516L96.1795 112.842C98.6633 107.116 98.6147 100.364 95.9996 94.6914Z" fill="#A34262"/>
<path d="M170.588 97.0828C162.495 101.139 157.163 108.327 154.804 112.244C154.167 113.303 154.5 114.657 155.547 115.338C158.646 117.35 162.439 118.522 163.848 118.937L170.588 97.0828Z" fill="#C7D2D7"/>
<path d="M170.588 97.0828C175.04 104.831 175.42 113.7 175.171 118.238C175.103 119.465 174.06 120.414 172.803 120.416C169.081 120.422 165.257 119.352 163.848 118.937L170.588 97.0828Z" fill="#99A3B0"/>
<path d="M165.586 108.442C163.588 110.084 160.889 112.994 161.909 116.138C162.422 117.718 162.343 119.426 161.854 121.013L159.744 127.853L162.23 128.585L164.339 121.744C164.829 120.157 165.729 118.691 167.05 117.651C169.678 115.58 169.073 111.699 168.337 109.252C167.989 108.098 166.528 107.668 165.586 108.442Z" fill="#797C99"/>
<path d="M161.62 126.259C160.51 125.932 159.511 125.987 159.389 126.382L150.553 155.034L154.574 156.217L163.41 127.565C163.532 127.17 162.73 126.586 161.62 126.259Z" fill="#A64F5A"/>
<path d="M154.574 156.218C154.453 156.612 153.454 156.667 152.344 156.34C151.233 156.013 150.432 155.429 150.553 155.035C150.675 154.64 151.673 154.585 152.784 154.912C153.895 155.238 154.696 155.823 154.574 156.218Z" fill="#8C404C"/>
<path d="M165.664 133.5C165.513 133.329 165.341 133.183 165.159 133.048C165.328 132.959 165.488 132.854 165.632 132.728C166.174 132.249 166.458 131.458 166.201 130.789C165.992 130.245 165.468 129.862 164.905 129.677C164.342 129.491 163.737 129.477 163.142 129.477C162.369 129.478 161.594 129.501 160.822 129.547C160.134 129.587 159.447 129.646 158.763 129.722C158.357 129.768 157.799 129.756 157.44 129.981C156.69 130.451 156.9 131.358 157.426 131.897C157.263 131.974 157.103 132.082 156.945 132.231C156.556 132.597 156.42 133.177 156.609 133.673C156.726 133.977 156.946 134.219 157.205 134.427C156.916 134.6 156.649 134.842 156.479 135.052C156.175 135.425 156.014 135.932 156.147 136.391C156.246 136.733 156.493 137.014 156.742 137.273C156.808 137.341 156.877 137.405 156.944 137.471C156.595 137.477 156.324 137.696 156.212 138.313C156.094 138.961 156.302 139.573 156.594 140.145C156.9 140.682 157.328 141.143 157.774 141.576C158.336 142.122 158.946 142.643 159.677 142.942C160.407 143.241 161.281 143.292 161.971 142.912C162.661 142.532 163.083 141.661 162.792 140.941C162.769 140.885 162.741 140.832 162.711 140.78C162.719 140.781 162.727 140.784 162.734 140.784C163.349 140.849 163.999 140.746 164.508 140.403C165.04 140.044 165.378 139.435 165.426 138.805C165.475 138.176 165.24 137.536 164.818 137.058C164.813 137.053 164.809 137.05 164.804 137.045C164.923 137.023 165.04 136.993 165.154 136.948C165.797 136.693 166.238 136.049 166.311 135.374C166.385 134.701 166.118 134.014 165.664 133.5Z" fill="#F2C9AD"/>
<path d="M163.482 132.673C161.898 132.229 159.279 131.921 157.633 131.984C159.216 132.427 161.835 132.736 163.482 132.673Z" fill="#EBA58E"/>
<path d="M163.763 136.806C162.895 136.448 161.758 136.045 160.626 135.628C159.493 135.215 158.366 134.788 157.471 134.5C158.228 135.047 159.318 135.618 160.469 136.038C161.619 136.461 162.825 136.731 163.763 136.806Z" fill="#EBA58E"/>
<path d="M162.286 140.856C161.508 140.382 160.602 139.83 159.69 139.275C158.788 138.702 157.894 138.134 157.125 137.645C157.672 138.292 158.522 139.023 159.471 139.611C160.417 140.203 161.455 140.646 162.286 140.856Z" fill="#EBA58E"/>
<path d="M71.855 84.9885C64.6994 85.6816 58.4525 90.0192 55.431 96.3931L39.7571 129.458C38.6988 131.691 38.4547 134.21 39.0655 136.598H80.1326L91.9302 113.841C95.6621 106.642 97.3142 98.5852 96.7095 90.538L96.6397 89.6084L87.5794 87.4347L71.855 84.9885Z" fill="#CC6164"/>
<path d="M67.4258 105.934L86.1415 124.898L84.2859 128.583L83.1908 127.929C76.9505 124.205 72.1801 118.533 69.651 111.831L67.4258 105.934Z" fill="#A34262"/>
<path d="M79.0779 132.494C76.8027 132.478 74.223 132.446 71.4984 132.274C68.7743 132.104 65.9076 131.796 63.0669 131.327C60.2271 130.853 57.4171 130.218 54.7888 129.499C52.1591 128.783 49.7135 127.98 47.5605 127.261C49.3717 128.6 51.655 129.916 54.2502 130.993C56.8422 132.074 59.7414 132.915 62.7044 133.41C65.6678 133.899 68.6889 134.041 71.5012 133.857C74.315 133.679 76.915 133.175 79.0779 132.494Z" fill="#A34262"/>
<path d="M72.1994 130.82C70.535 130.227 68.6544 129.54 66.7087 128.707C64.762 127.877 62.7521 126.903 60.8082 125.813C58.8668 124.719 56.9947 123.51 55.2826 122.283C53.5682 121.057 52.0152 119.814 50.6543 118.706C51.5903 120.173 52.8809 121.747 54.4707 123.228C56.0572 124.71 57.9397 126.096 59.9685 127.239C61.9987 128.378 64.171 129.272 66.2801 129.868C68.3891 130.467 70.4316 130.766 72.1994 130.82Z" fill="#A34262"/>
<path d="M39.0656 136.596L38.9013 143.529C38.7951 148.009 40.4515 152.359 43.5291 155.683L68.7641 182.938L65.3027 182.015L60.7792 195.964L69.0785 199.523C73.0139 201.211 77.5157 201.09 81.3496 199.192C88.0525 195.875 91.0083 188.074 88.1308 181.293L79.7786 161.611L111.287 148.124L110.697 167.836H126.628L130.566 147.468C131.507 142.604 129.995 137.595 126.504 134.008C122.845 130.247 117.441 128.627 112.252 129.736L80.1326 136.597L39.0656 136.596Z" fill="#495375"/>
<path d="M80.1329 136.596L38.9922 139.722L39.0658 136.596H80.1329Z" fill="#797C99"/>
<path d="M79.7786 161.612L75.5586 151.667L84.7902 142.246L80.1742 152.736L79.7786 161.612Z" fill="#373F56"/>
<path d="M111.287 148.124L111.951 137.501L110.349 139.76C108.443 142.444 108.128 145.911 109.518 148.883L111.287 148.124Z" fill="#373F56"/>
<path d="M68.7651 182.938L75.2357 189.566L71.8324 188.362C69.3773 187.493 67.7422 185.216 67.7422 182.666L68.7651 182.938Z" fill="#373F56"/>
<path d="M30.7506 190.143C33.7825 177.844 37.4842 174.259 39.1127 173.241C38.6525 173.202 38.1809 173.175 37.6891 173.175C37.6891 173.175 32.9687 173.867 28.9564 190.143C26.8219 198.802 28.7181 202.449 32.441 201.644C29.9689 200.992 28.9947 197.265 30.7506 190.143Z" fill="#ECA85E"/>
<path d="M46.2641 175.481C46.2641 175.481 43.4314 173.604 39.1128 173.241C37.4843 174.26 33.7826 177.844 30.7507 190.143C28.9947 197.266 29.969 200.992 32.441 201.644C35.7155 200.937 40.4033 196.784 45.0057 189.564L59.8106 198.95L65.5227 181.336L46.2641 175.481Z" fill="#F4D071"/>
<path d="M59.8105 198.95L60.7792 195.962L62.7499 196.807L59.8105 198.95Z" fill="#ECA85E"/>
<path d="M138.413 196.849H106.147C106.123 197.53 106.14 198.234 106.212 198.953H138.901L138.874 198.749C138.788 198.093 138.629 197.458 138.413 196.849Z" fill="#ECA85E"/>
<path d="M131.758 190.778L123.913 188.703L128.279 167.838H108.1L108.658 188.242C108.658 188.242 106.321 191.97 106.146 196.849H138.412C137.372 193.914 134.909 191.611 131.758 190.778Z" fill="#F4D071"/>
<path d="M76.1922 184.946C76.127 184.946 76.0619 184.919 76.0152 184.868L52.4379 158.758C50.2623 156.348 48.0121 153.857 46.2935 151.034C44.3435 147.832 43.3885 144.685 43.4565 141.683C43.4593 141.556 43.5575 141.456 43.6977 141.458C43.828 141.46 43.9314 141.566 43.9285 141.693C43.8629 144.608 44.7947 147.672 46.6994 150.799C48.3959 153.585 50.631 156.06 52.7924 158.453L76.3696 184.563C76.456 184.659 76.4466 184.805 76.3484 184.889C76.3036 184.927 76.2479 184.946 76.1922 184.946Z" fill="#373F56"/>
<path d="M82.9118 149.141C82.8202 149.141 82.7329 149.089 82.6947 149.001C82.6437 148.884 82.6994 148.748 82.8193 148.699C91.0997 145.248 99.5836 141.945 108.034 138.88C108.156 138.836 108.293 138.896 108.338 139.016C108.383 139.136 108.321 139.268 108.199 139.313C99.755 142.375 91.2782 145.676 83.0043 149.123C82.9746 149.136 82.943 149.141 82.9118 149.141Z" fill="#373F56"/>
<path d="M74.5156 81.5837H79.5031L75.3601 84.8714L74.5156 81.5837Z" fill="#A34262"/>
<path d="M80.6237 75.8833C78.7578 78.5748 76.8913 81.2663 75.0254 83.9578C76.0469 87.3635 80.1323 91.988 83.4748 91.988L84.1446 97.9206L84.6167 92.0991L89.4829 84.4332L80.6237 75.8833Z" fill="#F2C9AD"/>
<path d="M80.9973 76.2439C80.8 78.14 80.7754 80.043 81.3263 81.8556C82.1736 84.6453 84.4455 86.9651 87.2234 87.9939L89.4831 84.4341L80.9973 76.2439Z" fill="#DE7274"/>
<path d="M74.5163 81.5837C76.5012 85.7379 79.6256 89.3663 83.4756 91.9882C81.9679 93.8031 80.5027 95.8154 78.995 97.6303C76.6273 93.4757 74.2232 89.1413 71.8555 84.9867C72.5503 84.1613 73.6624 82.8195 74.5163 81.5837Z" fill="#E06E6E"/>
<path d="M84.6172 92.0994L89.8884 96.0576L87.5792 87.4335L84.6172 92.0994Z" fill="#E06E6E"/>
<path d="M78.3963 69.7934C79.4754 70.1226 80.2944 71.0273 80.7461 72.0399C81.1979 73.052 81.3291 74.1702 81.4079 75.2718C82.4832 73.3153 82.8863 70.9429 82.4634 68.7609C85.686 66.5389 87.6137 62.6042 87.0808 58.7858C92.4653 57.3536 98.8539 58.0309 104.32 59.1298C103.92 55.854 101.269 52.221 98.2463 50.7505C94.1023 48.735 89.1059 48.4629 84.7584 50.0159C80.4105 51.569 76.773 54.9258 74.9377 59.0777C73.2176 62.9694 73.1039 67.5081 74.5988 71.4852C74.6106 71.4603 74.6167 71.4331 74.6295 71.4082C75.2946 70.1032 76.9722 69.359 78.3963 69.7934Z" fill="#6A3649"/>
<path d="M104.321 59.1305C98.8552 58.0317 92.4662 57.3543 87.0821 58.7865C87.6151 62.6045 85.6877 66.5396 82.4647 68.7617C82.8876 70.9436 82.4845 73.316 81.4092 75.2725C81.3304 74.1709 81.1991 73.0527 80.7474 72.0406C80.2957 71.0285 79.4767 70.1233 78.3976 69.7941C76.9735 69.3597 75.2959 70.1044 74.6312 71.4089C74.6185 71.4338 74.6124 71.461 74.6006 71.4859C73.9869 72.7807 74.3575 74.442 75.4375 75.4062C76.5387 76.3893 78.375 76.8527 79.7302 76.2422C80.4038 80.4895 83.8855 84.1793 88.164 85.1799C92.4426 86.1805 97.2578 84.4315 99.8275 80.9428C101.361 78.8609 102.093 76.3261 102.656 73.8214C103.834 68.574 104.399 64.5024 104.321 59.1305Z" fill="#F2C9AD"/>
<path d="M82.4648 68.7609C85.6874 66.5389 87.6152 62.6042 87.0823 58.7858C92.4668 57.3536 98.8553 58.0309 104.321 59.1298C103.922 55.854 101.271 52.221 98.2478 50.7505C94.1038 48.735 89.1073 48.4629 84.7599 50.0159C80.412 51.569 76.7745 54.9258 74.9392 59.0777C73.5646 62.1878 73.2191 65.7107 73.8974 69.0302L82.5375 69.258C82.5144 69.092 82.4965 68.9251 82.4648 68.7609Z" fill="#472948"/>
<path d="M87.0823 58.7865C87.6152 62.6045 85.6879 66.5396 82.4648 68.7617C82.4965 68.9258 82.5144 69.0927 82.5371 69.2587L103.469 69.8102C104.089 66.2998 104.378 63.0628 104.321 59.1305C98.8553 58.0317 92.4663 57.3543 87.0823 58.7865Z" fill="#EBA58E"/>
<path d="M75.6289 72.6334C75.8328 72.1764 76.3237 71.8716 76.8317 71.8264C77.34 71.7813 77.8531 71.9754 78.243 72.2972C78.6329 72.6191 78.9067 73.0599 79.0837 73.5275C79.2442 73.9512 79.3155 74.4686 79.0266 74.8213C78.8279 75.0639 78.4876 75.1727 78.1722 75.1335C77.8569 75.0943 77.5694 74.9205 77.3566 74.6899C76.8345 74.126 76.7788 73.2028 77.2286 72.5822C76.7807 72.3138 76.0821 72.3729 75.6289 72.6334Z" fill="#EBA58E"/>
<path d="M93.7341 68.1802C91.6788 68.1788 89.6236 68.1775 87.5684 68.1761C87.9502 67.436 88.6894 66.6899 89.4452 66.3132C90.2009 65.9365 91.1223 65.8521 91.9078 66.1647C92.6932 66.4774 93.6496 67.3558 93.7341 68.1802Z" fill="#6A3649"/>
<path d="M92.7085 71.2883C92.7085 71.8435 92.296 72.2935 91.7866 72.2935C91.2778 72.2935 90.8652 71.8435 90.8652 71.2883C90.8652 70.7331 91.2778 70.2831 91.7866 70.2831C92.296 70.2831 92.7085 70.7331 92.7085 71.2883Z" fill="#472948"/>
<path d="M98.7109 68.1802C100.268 68.1788 101.825 68.1775 103.382 68.1761C103.093 67.436 102.533 66.6899 101.96 66.3132C101.388 65.9365 100.69 65.8521 100.095 66.1647C99.4992 66.4774 98.7747 67.3558 98.7109 68.1802Z" fill="#6A3649"/>
<path d="M99.7344 71.2883C99.7344 71.8435 100.147 72.2935 100.656 72.2935C101.165 72.2935 101.578 71.8435 101.578 71.2883C101.578 70.7331 101.165 70.2831 100.656 70.2831C100.147 70.2831 99.7344 70.7331 99.7344 71.2883Z" fill="#472948"/>
<path d="M98.2647 75.1416H95.0454C95.0355 75.1416 95.0255 75.1416 95.0156 75.1416C95.263 75.771 95.8478 76.2759 96.5379 76.2815C97.2285 76.287 98.0065 75.7669 98.2647 75.1416Z" fill="#EBA58E"/>
<path d="M98.04 77.6589C95.188 77.5796 92.3364 77.4998 89.4844 77.4205C89.7464 78.6591 90.604 79.8497 91.7535 80.4316C92.9029 81.0135 94.3218 81.061 95.509 80.5561C96.6966 80.0516 97.6926 78.8772 98.04 77.6589Z" fill="white"/>
<path d="M56.5078 65.6567L125.355 67.4707L106.717 59.6974L102.394 46.3118C97.1869 42.3136 87.2052 42.9153 82.1186 45.0645L75.6234 58.3076L56.5078 65.6567Z" fill="#BD6C67"/>
<path d="M105.312 55.3475L77.7194 54.0333L75.623 58.3078L106.716 59.6976L105.312 55.3475Z" fill="#8C404C"/>
<path d="M75.0266 91.293L99.7353 121.841L102.614 120.573L109.518 131.909L104.605 134.759C101.353 136.646 97.199 136.1 94.5735 133.44L67.4277 105.933L75.0266 91.293Z" fill="#CC6164"/>
<path d="M115.516 128.424L108.612 117.088C108.35 116.658 107.781 116.517 107.341 116.773L102.938 119.332C102.498 119.587 102.353 120.143 102.615 120.573L109.518 131.909C109.78 132.339 110.349 132.48 110.79 132.224L115.193 129.665C115.633 129.41 115.778 128.853 115.516 128.424Z" fill="#A34262"/>
<path d="M109.064 117.832L127.632 109.103C127.21 105.011 129.053 100.588 132.266 97.9309C132.636 97.6256 133.031 97.336 133.489 97.1839C133.946 97.0317 134.48 97.0349 134.886 97.2913C135.654 97.7759 135.636 98.9255 135.182 99.7006C134.728 100.476 133.97 101.031 133.407 101.735C132.844 102.439 132.492 103.457 132.982 104.211C133.28 104.67 133.835 104.923 134.388 104.984C134.941 105.044 135.497 104.936 136.038 104.809C139.067 104.095 141.937 102.743 144.393 100.872C144.868 100.51 145.338 100.123 145.899 99.9104C146.461 99.6974 147.146 99.69 147.618 100.055C148.081 100.413 148.236 101.05 148.155 101.621C148.074 102.192 147.795 102.715 147.521 103.225C147.827 102.765 148.731 102.438 149.288 102.51C149.844 102.583 150.341 102.987 150.513 103.509C150.697 104.065 150.526 104.67 150.309 105.215C149.867 106.328 149.23 107.368 148.435 108.275C148.729 109.596 148.231 111.084 147.102 111.867C146.961 112.828 146.277 113.771 145.416 114.254C144.555 114.737 143.562 114.942 142.581 115.097C138.734 115.707 134.779 115.665 130.946 114.975L114.879 127.379L109.064 117.832Z" fill="#F2C9AD"/>
<path d="M138.785 107.677C140.175 107.853 142.093 107.552 143.743 106.677C145.406 105.823 146.728 104.433 147.35 103.206C146.361 104.178 144.992 105.294 143.429 106.102C141.873 106.922 140.163 107.414 138.785 107.677Z" fill="#EBA58E"/>
<path d="M139.908 110.612C141.09 110.881 142.729 110.889 144.288 110.503C145.85 110.13 147.293 109.372 148.208 108.593C147.087 109.052 145.646 109.597 144.148 109.956C142.653 110.324 141.118 110.504 139.908 110.612Z" fill="#EBA58E"/>
<path d="M140.717 112.607C141.492 113.005 142.667 113.258 143.832 113.152C144.998 113.059 146.109 112.61 146.802 112.086C145.974 112.369 144.9 112.656 143.795 112.746C142.692 112.845 141.583 112.746 140.717 112.607Z" fill="#EBA58E"/>
<path d="M99.6649 122.125L99.5506 121.984L74.8419 91.4353C74.7612 91.3352 74.7782 91.1904 74.8806 91.1116C74.9831 91.0328 75.1313 91.0498 75.212 91.1494L99.8065 121.557L101.087 120.993C101.206 120.94 101.345 120.992 101.399 121.109C101.452 121.224 101.4 121.361 101.281 121.413L99.6649 122.125Z" fill="#A34262"/>
<path d="M99.4623 132.03C99.5873 130.625 99.5836 128.973 99.6275 127.322C99.6629 125.67 99.746 124.02 99.6888 122.611C98.7839 123.705 98.1481 125.475 98.1127 127.287C98.0612 129.098 98.6112 130.895 99.4623 132.03Z" fill="#A34262"/>
<path d="M95.2951 128.453C95.965 127.586 96.6754 126.532 97.4471 125.519C98.2128 124.501 99.0369 123.529 99.6902 122.649C98.6079 122.888 97.3593 123.704 96.5087 124.84C95.6449 125.968 95.2125 127.373 95.2951 128.453Z" fill="#A34262"/>
<path d="M163.957 173.706H137.143V180.008H163.957V173.706Z" fill="white"/>
<path d="M156.989 198.942H144.11L138.467 180.007H162.632L156.989 198.942Z" fill="white"/>
<path d="M157.191 173.706V180.007H162.632H163.957V173.706H157.191Z" fill="#E4E4E0"/>
<path d="M153.301 198.941H156.989L162.632 180.007H157.191L153.301 198.941Z" fill="#E4E4E0"/>
<path d="M138.467 180.007L156.717 182.314L157.191 180.007H138.467Z" fill="#D4CFBE"/>
<path d="M162.631 180.007H157.191L156.717 182.314L161.754 182.95L162.631 180.007Z" fill="#A59B95"/>
<path d="M138.705 173.707H162.397L153.203 167.802C151.594 166.768 149.508 166.768 147.898 167.802L138.705 173.707Z" fill="#FF9306"/>
<path d="M244.92 181.052C245.102 181.923 244.566 182.784 243.691 183.029L243.186 183.17L210.202 192.387C209.302 192.639 208.359 192.151 208.066 191.282C207.776 190.419 208.23 189.485 209.098 189.16L241.971 176.842C242.978 176.464 244.089 177.061 244.304 178.092L244.92 181.052Z" fill="white"/>
<path d="M213.406 187.545L218.42 179.68C220.057 177.113 223.106 175.75 226.164 176.219L238.555 178.121L213.406 187.545Z" fill="#FF9306"/>
<path d="M213.406 187.545L218.42 179.68C220.057 177.113 223.106 175.75 226.164 176.219L238.555 178.121L213.406 187.545Z" fill="black" fill-opacity="0.2"/>
<path d="M245.099 198.96H211.796C213.104 197 212.833 194.414 211.147 192.753L210.646 192.26L243.186 183.167L245.305 187.306C245.842 188.355 245.981 189.556 245.698 190.696L244.683 194.789C244.414 195.872 244.756 197.013 245.582 197.782C246.038 198.208 245.73 198.96 245.099 198.96Z" fill="white"/>
<path d="M245.582 197.783C244.757 197.013 244.414 195.872 244.683 194.789L245.698 190.696C245.981 189.556 245.842 188.355 245.305 187.306L243.186 183.167L210.646 192.26L211.147 192.753C211.362 192.965 211.554 193.193 211.723 193.432L241.376 186.702L242.559 188.412C243.054 189.127 243.184 190.026 242.911 190.846L241.84 194.069C241.55 194.942 241.716 195.899 242.285 196.63L244.097 198.96H245.099C245.73 198.96 246.038 198.208 245.582 197.783Z" fill="#E4E4E0"/>
<path d="M167.266 198.942H208.962L192.782 188.549C189.949 186.729 186.279 186.729 183.446 188.549L167.266 198.942Z" fill="#FF9306"/>
<path d="M167.266 198.942H208.962L192.782 188.549C189.949 186.729 186.279 186.729 183.446 188.549L167.266 198.942Z" fill="black" fill-opacity="0.2"/>
<path d="M152.111 198.942H175.803L166.609 193.037C165 192.003 162.914 192.003 161.305 193.037L152.111 198.942Z" fill="#FF9306"/>
</svg>
