<svg width="32" height="33" viewBox="0 0 32 33" fill="none" xmlns="http://www.w3.org/2000/svg">
<path d="M4.05088 10.6441H28.1895M6.85621 4.54883H25.1419C25.9502 4.54883 26.7254 4.86992 27.2969 5.44145C27.8685 6.01299 28.1895 6.78817 28.1895 7.59645V25.8669C28.1895 26.6752 27.8685 27.4504 27.2969 28.0219C26.7254 28.5935 25.9502 28.9145 25.1419 28.9145H6.85621C6.04793 28.9145 5.27276 28.5935 4.70122 28.0219C4.12968 27.4504 3.80859 26.6752 3.80859 25.8669V7.59645C3.80859 6.78817 4.12968 6.01299 4.70122 5.44145C5.27276 4.86992 6.04793 4.54883 6.85621 4.54883Z" stroke="#00623A" stroke-linecap="round" stroke-linejoin="round"/>
<path fill-rule="evenodd" clip-rule="evenodd" d="M10.3844 20.785V19.1409H11.7254C12.7433 19.1409 13.4351 18.5389 13.4351 17.6597C13.4351 16.8567 12.8027 16.2471 11.7543 16.2471C10.6679 16.2471 9.9989 16.8049 9.92424 17.7649H7.84576C7.92347 15.7854 9.44728 14.4536 11.8656 14.4536C14.2473 14.4536 15.5715 15.7702 15.5639 17.3412C15.5562 18.6426 14.738 19.4989 13.5844 19.7809V19.9226C15.0793 20.1374 15.9875 21.0898 15.9875 22.5268C15.9875 24.4087 14.2168 25.742 11.7909 25.742C9.365 25.742 7.71319 24.4148 7.61719 22.3835H9.76728C9.83433 23.2917 10.6084 23.8723 11.7619 23.8723C12.9002 23.8723 13.6972 23.2536 13.6972 22.3241C13.6972 21.3717 12.952 20.785 11.7467 20.785H10.3844ZM20.5939 25.4662V16.9161H20.4614L17.8267 18.7325V16.6418L20.6016 14.7294H22.8416V25.4662H20.5939Z" fill="#00623A"/>
</svg>
